<svg width="155" height="155" viewBox="0 0 155 155" fill="none" xmlns="http://www.w3.org/2000/svg">
<g clip-path="url(#clip0_476_499)">
<path d="M123.532 129.762L128.316 135.191C132.446 131.546 136.098 127.561 139.257 123.319L133.453 119.008C130.586 122.861 127.281 126.471 123.532 129.769V129.762Z" fill="#FF2600"/>
<path d="M118.75 124.34L123.533 129.769C127.275 126.471 130.587 122.854 133.454 119.008L127.65 114.697C125.082 118.147 122.117 121.389 118.757 124.347L118.75 124.34Z" fill="#FF3B19"/>
<path d="M113.967 118.911L118.75 124.34C122.11 121.382 125.075 118.14 127.643 114.69L121.84 110.378C119.562 113.433 116.938 116.3 113.967 118.918V118.911Z" fill="#FF5132"/>
<path d="M109.19 113.482L113.974 118.911C116.945 116.293 119.569 113.426 121.847 110.371L116.043 106.06C114.064 108.719 111.78 111.211 109.197 113.489L109.19 113.482Z" fill="#FF664C"/>
<path d="M104.408 108.06L109.192 113.489C111.774 111.212 114.058 108.719 116.037 106.06L110.233 101.749C108.553 104.005 106.609 106.13 104.415 108.067L104.408 108.06Z" fill="#FF7C65"/>
<path d="M99.625 102.631L104.408 108.06C106.602 106.123 108.546 104.005 110.226 101.742L104.422 97.4307C103.034 99.2912 101.437 101.041 99.625 102.631Z" fill="#FF917E"/>
<path d="M94.8389 97.2086L99.6222 102.638C101.434 101.041 103.031 99.2983 104.419 97.4377L98.6156 93.1265C97.5256 94.5913 96.269 95.9659 94.8458 97.2156L94.8389 97.2086Z" fill="#FFA797"/>
<path d="M90.0566 91.7795L94.84 97.2085C96.2632 95.9519 97.5198 94.5842 98.6098 93.1194L92.8059 88.8081C92.0144 89.8703 91.098 90.877 90.0636 91.7864L90.0566 91.7795Z" fill="#FFBCB1"/>
<path d="M85.2734 86.3577L90.0568 91.7867C91.0912 90.8703 92.0076 89.8705 92.7991 88.8083L86.9952 84.4971C86.4953 85.1635 85.926 85.7884 85.2734 86.3646V86.3577Z" fill="#FFD2CA"/>
<path d="M81.1913 80.1719C80.99 80.4426 80.7609 80.6926 80.4971 80.9286L85.2804 86.3576C85.933 85.7883 86.5023 85.1566 87.0022 84.4901L81.1983 80.1788L81.1913 80.1719Z" fill="#FFE7E3"/>
<path d="M140.899 106.394L147.473 109.407C149.764 104.401 151.479 99.2779 152.638 94.1057L145.578 92.5298C144.523 97.216 142.974 101.86 140.892 106.394H140.899Z" fill="#FF5700"/>
<path d="M134.318 103.381L140.893 106.394C142.969 101.853 144.524 97.2088 145.579 92.5296L138.519 90.9536C137.574 95.1538 136.186 99.3193 134.318 103.388V103.381Z" fill="#FF6819"/>
<path d="M127.742 100.375L134.317 103.388C136.177 99.3195 137.573 95.1541 138.517 90.9539L131.456 89.3779C130.623 93.0922 129.388 96.7786 127.742 100.382V100.375Z" fill="#FF7832"/>
<path d="M121.169 97.3617L127.744 100.375C129.396 96.7715 130.625 93.092 131.458 89.3709L124.397 87.7949C123.668 91.0232 122.599 94.2306 121.162 97.3617H121.169Z" fill="#FF894C"/>
<path d="M114.592 94.3489L121.166 97.3619C122.603 94.2309 123.673 91.0234 124.402 87.7952L117.341 86.2192C116.723 88.9685 115.814 91.6899 114.592 94.3558V94.3489Z" fill="#FF9965"/>
<path d="M108.019 91.3357L114.593 94.3487C115.815 91.6828 116.724 88.9614 117.342 86.2122L110.282 84.6362C109.775 86.8995 109.025 89.1488 108.019 91.3427V91.3357Z" fill="#FFAA7E"/>
<path d="M101.445 88.3226L108.02 91.3356C109.026 89.1418 109.776 86.8994 110.283 84.6292L103.223 83.0532C102.82 84.8305 102.23 86.6008 101.445 88.3226Z" fill="#FFBA97"/>
<path d="M94.8644 85.3166L101.439 88.3297C102.23 86.6079 102.82 84.8376 103.216 83.0603L96.1557 81.4844C95.8641 82.7826 95.4336 84.067 94.8574 85.3236L94.8644 85.3166Z" fill="#FFCBB1"/>
<path d="M88.2871 82.3035L94.8616 85.3165C95.4379 84.0599 95.8683 82.7756 96.1599 81.4773L89.0994 79.9014C88.9189 80.7136 88.6481 81.519 88.2871 82.3035Z" fill="#FFDBCA"/>
<path d="M82.0402 78.3184C81.9638 78.6447 81.8597 78.971 81.7139 79.2903L88.2884 82.3033C88.6494 81.5188 88.9202 80.7135 89.1007 79.9012L82.0402 78.3253V78.3184Z" fill="#FFECE3"/>
<path d="M133.439 118.994L139.243 123.305C142.527 118.882 145.269 114.224 147.477 109.413L140.903 106.4C138.896 110.76 136.418 114.981 133.439 118.987V118.994Z" fill="#FF3B00"/>
<path d="M127.636 114.676L133.44 118.987C136.418 114.981 138.903 110.76 140.903 106.4L134.328 103.387C132.53 107.296 130.302 111.086 127.636 114.676Z" fill="#FF4E19"/>
<path d="M121.833 110.364L127.637 114.676C130.303 111.079 132.531 107.296 134.329 103.387L127.755 100.374C126.165 103.831 124.193 107.185 121.833 110.364Z" fill="#FF6232"/>
<path d="M116.023 106.053L121.827 110.364C124.188 107.184 126.159 103.838 127.749 100.374L121.175 97.3608C119.793 100.374 118.078 103.283 116.023 106.046V106.053Z" fill="#FF754C"/>
<path d="M110.217 101.742L116.021 106.053C118.076 103.29 119.79 100.374 121.172 97.368L114.598 94.355C113.424 96.9168 111.966 99.3883 110.217 101.742Z" fill="#FF8865"/>
<path d="M104.414 97.423L110.218 101.734C111.967 99.3808 113.425 96.9093 114.599 94.3475L108.024 91.3345C107.059 93.445 105.858 95.4861 104.414 97.423Z" fill="#FF9C7E"/>
<path d="M98.6104 93.1121L104.414 97.4234C105.851 95.4864 107.052 93.4453 108.024 91.3348L101.45 88.3218C100.686 89.981 99.742 91.5847 98.6104 93.1051V93.1121Z" fill="#FFAF97"/>
<path d="M92.7979 88.801L98.6018 93.1123C99.7334 91.5919 100.678 89.9882 101.441 88.329L94.8667 85.3159C94.3113 86.5239 93.624 87.6902 92.7979 88.801Z" fill="#FFC2B1"/>
<path d="M86.9951 84.4828L92.799 88.7941C93.6252 87.6833 94.3125 86.5169 94.8679 85.3089L88.2934 82.2959C87.9462 83.0526 87.5158 83.7816 87.0021 84.4828H86.9951Z" fill="#FFD6CA"/>
<path d="M81.7121 79.2897C81.5732 79.5951 81.3997 79.8937 81.1914 80.1714L86.9953 84.4826C87.5091 83.7884 87.9395 83.0525 88.2866 82.2958L81.7121 79.2827V79.2897Z" fill="#FFE9E3"/>
<path d="M145.562 92.5224L152.623 94.0983C153.824 88.7249 154.435 83.3514 154.497 78.0612L147.263 77.9849C147.208 82.7821 146.652 87.6488 145.562 92.5224Z" fill="#FF7900"/>
<path d="M138.509 90.9462L145.569 92.5221C146.659 87.6485 147.215 82.7818 147.27 77.9846L140.036 77.9082C139.988 82.2125 139.488 86.5724 138.516 90.9462H138.509Z" fill="#FF8619"/>
<path d="M131.449 89.3704L138.51 90.9464C139.489 86.5795 139.982 82.2127 140.03 77.9084L132.796 77.832C132.754 81.6365 132.31 85.5035 131.449 89.3635V89.3704Z" fill="#FF9332"/>
<path d="M124.391 87.7872L131.451 89.3632C132.319 85.4962 132.756 81.6362 132.798 77.8317L125.564 77.7554C125.522 81.0669 125.14 84.4271 124.391 87.7872Z" fill="#FFA14C"/>
<path d="M117.337 86.2115L124.397 87.7874C125.147 84.4273 125.529 81.0671 125.571 77.7556L118.337 77.6792C118.302 80.4978 117.983 83.3512 117.337 86.2115Z" fill="#FFAE65"/>
<path d="M110.274 84.6284L117.335 86.2044C117.974 83.3441 118.3 80.4907 118.335 77.6721L111.101 77.5957C111.073 79.9145 110.809 82.268 110.281 84.6215L110.274 84.6284Z" fill="#FFBB7E"/>
<path d="M103.215 83.0526L110.275 84.6285C110.803 82.275 111.067 79.9215 111.095 77.6027L103.86 77.5264C103.84 79.3522 103.631 81.1989 103.215 83.0526Z" fill="#FFC897"/>
<path d="M96.1621 81.4768L103.223 83.0528C103.639 81.1991 103.847 79.3524 103.868 77.5266L96.6342 77.4502C96.6203 78.7762 96.4676 80.123 96.1621 81.4768Z" fill="#FFD6B1"/>
<path d="M89.0996 79.8938L96.1601 81.4697C96.4586 80.1229 96.6114 78.776 96.6322 77.4431L89.3981 77.3667C89.3912 78.1998 89.294 79.0468 89.1066 79.8868L89.0996 79.8938Z" fill="#FFE3CA"/>
<path d="M82.1581 77.2974C82.1581 77.6375 82.1164 77.9777 82.04 78.3179L89.1005 79.8939C89.288 79.0469 89.3852 78.2068 89.3921 77.3737L82.1581 77.2974Z" fill="#FFF0E3"/>
<path d="M147.251 77.9848L154.485 78.0612C154.541 72.5558 154.027 67.1754 152.986 61.9824L145.897 63.4126C146.842 68.1196 147.314 72.9932 147.258 77.9848H147.251Z" fill="#FF8700"/>
<path d="M140.018 77.9085L147.252 77.9849C147.307 72.9932 146.835 68.1196 145.891 63.4126L138.803 64.8428C139.65 69.0638 140.073 73.4375 140.025 77.9085H140.018Z" fill="#FF9319"/>
<path d="M132.783 77.8321L140.017 77.9085C140.066 73.4306 139.642 69.0638 138.795 64.8428L131.707 66.2729C132.457 70.008 132.832 73.8749 132.79 77.8321H132.783Z" fill="#FF9F32"/>
<path d="M125.557 77.7558L132.791 77.8322C132.833 73.875 132.458 70.0011 131.708 66.2729L124.62 67.7031C125.273 70.9522 125.599 74.3123 125.557 77.7558Z" fill="#FFAB4C"/>
<path d="M118.322 77.6795L125.556 77.7558C125.59 74.3124 125.264 70.9453 124.619 67.7031L117.53 69.1333C118.086 71.8964 118.363 74.7567 118.329 77.6864L118.322 77.6795Z" fill="#FFB765"/>
<path d="M111.087 77.6032L118.321 77.6796C118.349 74.7499 118.078 71.8896 117.523 69.1265L110.435 70.5566C110.893 72.8337 111.115 75.1872 111.094 77.6032H111.087Z" fill="#FFC27E"/>
<path d="M103.853 77.5269L111.087 77.6033C111.114 75.1873 110.885 72.8338 110.427 70.5566L103.339 71.9868C103.7 73.778 103.873 75.6316 103.86 77.5269H103.853Z" fill="#FFCE97"/>
<path d="M96.6278 77.4501L103.862 77.5264C103.883 75.6311 103.702 73.7775 103.341 71.9863L96.2529 73.4165C96.5167 74.7217 96.6417 76.0685 96.6278 77.4501Z" fill="#FFDAB1"/>
<path d="M89.3922 77.3737L96.6262 77.4501C96.6401 76.0685 96.5082 74.7217 96.2514 73.4165L89.1631 74.8467C89.3297 75.6659 89.4061 76.5059 89.3991 77.3737H89.3922Z" fill="#FFE6CA"/>
<path d="M82.0615 76.2768C82.1309 76.6101 82.1587 76.9502 82.1587 77.2974L89.3928 77.3737C89.3997 76.5059 89.3234 75.6589 89.1567 74.8467L82.0615 76.2768Z" fill="#FFF2E3"/>
<path d="M145.874 63.4196L152.962 61.9894C151.872 56.5882 150.247 51.4369 148.151 46.5771L141.514 49.4513C143.416 53.8598 144.888 58.5321 145.874 63.4196Z" fill="#FF9300"/>
<path d="M138.786 64.8496L145.874 63.4194C144.888 58.525 143.416 53.8527 141.514 49.4512L134.877 52.3254C136.585 56.2756 137.904 60.4689 138.786 64.8565V64.8496Z" fill="#FF9E19"/>
<path d="M131.692 66.2728L138.78 64.8427C137.898 60.455 136.572 56.2687 134.871 52.3115L128.234 55.1857C129.741 58.6847 130.914 62.3851 131.692 66.2728Z" fill="#FFA832"/>
<path d="M124.604 67.7033L131.692 66.2732C130.908 62.3923 129.741 58.685 128.235 55.186L121.598 58.0602C122.91 61.101 123.923 64.3223 124.604 67.7033Z" fill="#FFB34C"/>
<path d="M117.513 69.1333L124.601 67.7032C123.921 64.3291 122.9 61.1009 121.595 58.0601L114.958 60.9342C116.076 63.5168 116.937 66.2591 117.52 69.1333H117.513Z" fill="#FFBE65"/>
<path d="M110.42 70.5633L117.508 69.1331C116.932 66.259 116.064 63.5236 114.947 60.9341L108.31 63.8083C109.226 65.9396 109.941 68.1959 110.42 70.5633Z" fill="#FFC87E"/>
<path d="M103.332 71.9864L110.42 70.5563C109.941 68.1889 109.233 65.9326 108.31 63.8013L101.673 66.6755C102.395 68.3486 102.957 70.1259 103.332 71.9864Z" fill="#FFD397"/>
<path d="M96.2441 73.4164L103.332 71.9863C102.957 70.1257 102.395 68.3484 101.673 66.6753L95.0361 69.5495C95.5638 70.7714 95.9734 72.0627 96.2441 73.4164Z" fill="#FFDEB1"/>
<path d="M89.1532 74.8469L96.2415 73.4168C95.9707 72.063 95.5611 70.7717 95.0335 69.5498L88.3965 72.424C88.7228 73.1877 88.9796 73.9999 89.1532 74.8469Z" fill="#FFE8CA"/>
<path d="M81.7539 75.298C81.8858 75.6104 81.9899 75.9367 82.0594 76.2769L89.1476 74.8467C88.9741 73.9998 88.7172 73.1875 88.3909 72.4238L81.7539 75.298Z" fill="#FFF3E3"/>
<path d="M141.502 49.4516L148.139 46.5774C145.952 41.5233 143.293 36.8232 140.224 32.498L134.33 36.6844C137.107 40.5999 139.516 44.8626 141.502 49.4446V49.4516Z" fill="#FFB200"/>
<path d="M134.865 52.3259L141.502 49.4517C139.524 44.8696 137.108 40.607 134.331 36.6914L128.437 40.8777C130.929 44.3906 133.088 48.209 134.865 52.3189V52.3259Z" fill="#FFBA19"/>
<path d="M128.222 55.1928L134.859 52.3186C133.082 48.2087 130.916 44.3903 128.43 40.8774L122.536 45.0638C124.737 48.167 126.653 51.555 128.222 55.1859V55.1928Z" fill="#FFC132"/>
<path d="M121.583 58.0671L128.22 55.1929C126.651 51.5551 124.735 48.1741 122.534 45.0708L116.64 49.2641C118.556 51.9647 120.222 54.9083 121.59 58.0671H121.583Z" fill="#FFC94C"/>
<path d="M114.946 60.9414L121.583 58.0672C120.216 54.9084 118.55 51.9648 116.633 49.2642L110.739 53.4505C112.371 55.7484 113.787 58.2477 114.946 60.9345V60.9414Z" fill="#FFD065"/>
<path d="M108.31 63.8084L114.947 60.9342C113.788 58.2474 112.371 55.7482 110.74 53.4502L104.846 57.6365C106.186 59.5318 107.352 61.5868 108.31 63.8014V63.8084Z" fill="#FFD87E"/>
<path d="M101.673 66.6827L108.31 63.8085C107.352 61.5938 106.185 59.5319 104.845 57.6436L98.9512 61.8299C100.006 63.3156 100.923 64.9401 101.68 66.6827H101.673Z" fill="#FFDF97"/>
<path d="M95.0285 69.5497L101.666 66.6755C100.916 64.933 99.9924 63.3154 98.9371 61.8228L93.043 66.016C93.8136 67.099 94.4801 68.2793 95.0285 69.5497Z" fill="#FFE7B1"/>
<path d="M88.3911 72.424L95.0281 69.5498C94.4797 68.2794 93.8132 67.0991 93.0426 66.0161L87.1484 70.2024C87.6275 70.8828 88.051 71.6187 88.3911 72.4171V72.424Z" fill="#FFEECA"/>
<path d="M81.2549 74.4027C81.4493 74.6804 81.6159 74.979 81.7547 75.2983L88.3917 72.4241C88.0446 71.6327 87.6281 70.8898 87.149 70.2095L81.2549 74.3958V74.4027Z" fill="#FFF6E3"/>
<path d="M134.314 36.6981L140.208 32.5118C137.022 28.02 133.44 23.9726 129.545 20.3833L124.65 25.7082C128.177 28.9642 131.426 32.6298 134.314 36.6981Z" fill="#FFD000"/>
<path d="M128.42 40.8916L134.314 36.7053C131.426 32.637 128.177 28.9714 124.65 25.7153L119.756 31.0402C122.922 33.956 125.831 37.2468 128.427 40.8916H128.42Z" fill="#FFD519"/>
<path d="M122.527 45.0777L128.421 40.8914C125.832 37.2397 122.916 33.9559 119.75 31.04L114.855 36.3649C117.653 38.9475 120.229 41.8564 122.527 45.0847V45.0777Z" fill="#FFD932"/>
<path d="M116.627 49.264L122.521 45.0777C120.23 41.8494 117.654 38.9405 114.85 36.3579L109.955 41.6828C112.392 43.9252 114.627 46.4592 116.627 49.264Z" fill="#FFDE4C"/>
<path d="M110.733 53.4574L116.627 49.2711C114.634 46.4664 112.392 43.9324 109.955 41.6899L105.061 47.0148C107.129 48.924 109.039 51.0762 110.733 53.4644V53.4574Z" fill="#FFE365"/>
<path d="M104.838 57.6437L110.732 53.4574C109.038 51.0692 107.129 48.917 105.06 47.0078L100.166 52.3327C101.874 53.9086 103.443 55.679 104.838 57.6437Z" fill="#FFE77E"/>
<path d="M98.9353 61.8367L104.829 57.6503C103.434 55.6856 101.865 53.9084 100.157 52.3394L95.2627 57.6642C96.6026 58.9 97.8383 60.2954 98.9353 61.8436V61.8367Z" fill="#FFEC97"/>
<path d="M93.041 66.0234L98.9352 61.8371C97.8383 60.2889 96.6025 58.8935 95.2626 57.6577L90.3682 62.9826C91.3471 63.8851 92.2426 64.8987 93.041 66.0234Z" fill="#FFF1B1"/>
<path d="M87.1468 70.2095L93.0409 66.0232C92.2425 64.8985 91.34 63.8849 90.3681 62.9824L85.4736 68.3073C86.0846 68.8696 86.6469 69.5083 87.1537 70.2165L87.1468 70.2095Z" fill="#FFF5CA"/>
<path d="M80.5732 73.632C80.8232 73.8611 81.0453 74.118 81.2536 74.4026L87.1478 70.2163C86.6479 69.5082 86.0856 68.8764 85.4677 68.3071L80.5732 73.632Z" fill="#FFFAE3"/>
<path d="M124.64 25.7219L129.535 20.397C125.48 16.6689 121.134 13.4545 116.58 10.7539L112.894 16.9813C117.024 19.432 120.961 22.3409 124.633 25.7219H124.64Z" fill="#FFDF00"/>
<path d="M119.745 31.0469L124.639 25.722C120.967 22.341 117.03 19.4321 112.899 16.9814L109.213 23.2088C112.913 25.4027 116.447 28.013 119.738 31.0469H119.745Z" fill="#FFE219"/>
<path d="M114.852 36.3646L119.746 31.0397C116.449 28.0128 112.922 25.3955 109.222 23.2017L105.535 29.4291C108.812 31.373 111.936 33.6848 114.852 36.3646Z" fill="#FFE532"/>
<path d="M109.956 41.6896L114.851 36.3647C111.935 33.6849 108.811 31.3731 105.534 29.4292L101.848 35.6566C104.694 37.3436 107.416 39.3569 109.95 41.6896H109.956Z" fill="#FFE84C"/>
<path d="M105.055 47.0141L109.949 41.6893C107.415 39.3566 104.694 37.3502 101.848 35.6562L98.1611 41.8836C100.584 43.3207 102.896 45.0286 105.048 47.0141H105.055Z" fill="#FFEB65"/>
<path d="M100.159 52.3392L105.054 47.0143C102.895 45.0287 100.59 43.3209 98.1669 41.8838L94.4805 48.1112C96.473 49.2914 98.3821 50.7007 100.159 52.3392Z" fill="#FFEF7E"/>
<path d="M95.2649 57.6573L100.159 52.3325C98.3821 50.701 96.4798 49.2917 94.4804 48.1045L90.7939 54.3319C92.3629 55.2622 93.8625 56.366 95.258 57.6504L95.2649 57.6573Z" fill="#FFF297"/>
<path d="M90.3634 62.9822L95.2579 57.6574C93.8625 56.373 92.3629 55.2692 90.7939 54.3389L87.1074 60.5663C88.2529 61.2466 89.3429 62.052 90.3565 62.9822H90.3634Z" fill="#FFF5B1"/>
<path d="M85.4708 68.3073L90.3652 62.9824C89.3516 62.0452 88.2617 61.2398 87.1161 60.5664L83.4297 66.7938C84.1448 67.2173 84.8321 67.7241 85.4638 68.3073H85.4708Z" fill="#FFF8CA"/>
<path d="M79.749 73.0213C80.0406 73.1949 80.3183 73.3962 80.5752 73.6323L85.4696 68.3074C84.8309 67.7242 84.1505 67.2174 83.4355 66.7939L79.749 73.0213Z" fill="#FFFBE3"/>
<path d="M112.891 16.9954L116.57 10.768C111.828 7.96324 106.913 5.72082 101.894 4.02686L99.5889 10.886C104.136 12.4203 108.593 14.4545 112.891 16.9954Z" fill="#FFED00"/>
<path d="M109.209 23.2157L112.889 16.9883C108.592 14.4473 104.134 12.4201 99.5871 10.8789L97.2822 17.7381C101.357 19.1127 105.356 20.9385 109.209 23.2157Z" fill="#FFEF19"/>
<path d="M105.523 29.4433L109.203 23.2159C105.35 20.9388 101.351 19.1198 97.2757 17.7383L94.9639 24.5974C98.574 25.8193 102.108 27.43 105.516 29.4433H105.523Z" fill="#FFF132"/>
<path d="M101.844 35.6704L105.524 29.443C102.115 27.4297 98.5811 25.819 94.971 24.5972L92.6592 31.4563C95.7972 32.5185 98.8727 33.914 101.837 35.6704H101.844Z" fill="#FFF24C"/>
<path d="M98.157 41.8912L101.836 35.6638C98.872 33.9073 95.7965 32.5119 92.6585 31.4497L90.3467 38.3089C93.0126 39.2114 95.6299 40.3986 98.15 41.8912H98.157Z" fill="#FFF465"/>
<path d="M94.4776 48.1188L98.1571 41.8914C95.637 40.3988 93.0196 39.2116 90.3537 38.3091L88.0488 45.1682C90.2496 45.9111 92.4018 46.89 94.4776 48.1188Z" fill="#FFF67E"/>
<path d="M90.7915 54.3459L94.471 48.1185C92.3952 46.8897 90.2361 45.9108 88.0423 45.168L85.7305 52.0271C87.4591 52.6103 89.1531 53.3809 90.7846 54.3459H90.7915Z" fill="#FFF897"/>
<path d="M87.1132 60.5662L90.7927 54.3388C89.1612 53.3738 87.4673 52.6032 85.7386 52.02L83.4268 58.8792C84.6833 59.3027 85.9191 59.865 87.1063 60.5662H87.1132Z" fill="#FFF9B1"/>
<path d="M83.4328 66.7938L87.1123 60.5664C85.9252 59.8652 84.6894 59.3029 83.4328 58.8794L81.1279 65.7386C81.9194 66.0024 82.69 66.3564 83.4328 66.8008V66.7938Z" fill="#FFFBCA"/>
<path d="M78.8165 72.5906C79.1359 72.7017 79.4483 72.8405 79.7468 73.021L83.4263 66.7936C82.6835 66.3493 81.9059 66.0022 81.1214 65.7314L78.8096 72.5906H78.8165Z" fill="#FFFDE3"/>
<path d="M99.5902 10.8997L101.895 4.0475C96.6744 2.29105 91.3981 1.12472 86.1427 0.506836L85.3096 7.6923C90.079 8.24769 94.8624 9.30989 99.5902 10.8997Z" fill="#DCED00"/>
<path d="M97.2766 17.752L99.5815 10.8998C94.8537 9.30998 90.0704 8.24778 85.3009 7.69238L84.4678 14.8778C88.7443 15.3777 93.0278 16.3288 97.2697 17.752H97.2766Z" fill="#DFEF19"/>
<path d="M94.9737 24.6112L97.2786 17.7589C93.0367 16.3288 88.7463 15.3846 84.4766 14.8848L83.6436 22.0702C87.4272 22.5145 91.2178 23.3546 94.9737 24.6181V24.6112Z" fill="#E3F132"/>
<path d="M92.6591 31.4631L94.964 24.6109C91.2081 23.3473 87.4175 22.5073 83.6339 22.063L82.8008 29.2484C86.0915 29.6303 89.3892 30.3662 92.6522 31.4631H92.6591Z" fill="#E6F24C"/>
<path d="M90.3561 38.3154L92.661 31.4632C89.3981 30.3663 86.0934 29.6304 82.8097 29.2485L81.9766 36.434C84.7744 36.7603 87.5791 37.3851 90.3561 38.3154Z" fill="#EAF465"/>
<path d="M88.0445 45.175L90.3494 38.3228C87.5724 37.3856 84.7676 36.7677 81.9698 36.4414L81.1367 43.6269C83.4416 43.8976 85.7535 44.4044 88.0375 45.175H88.0445Z" fill="#EDF67E"/>
<path d="M85.7386 52.0269L88.0435 45.1746C85.7594 44.404 83.4476 43.8903 81.1427 43.6265L80.3096 50.8119C82.1216 51.0271 83.9405 51.4229 85.7386 52.0338V52.0269Z" fill="#F1F897"/>
<path d="M83.4338 58.8788L85.7387 52.0266C83.9406 51.4226 82.1216 51.0199 80.3097 50.8047L79.4766 57.9901C80.7956 58.1429 82.1216 58.4345 83.4268 58.8788H83.4338Z" fill="#F4F9B1"/>
<path d="M81.122 65.7384L83.4269 58.8862C82.1148 58.4419 80.7957 58.1503 79.4767 57.9976L78.6436 65.183C79.4697 65.2802 80.3028 65.4607 81.122 65.7384Z" fill="#F8FBCA"/>
<path d="M77.8107 72.3686C78.1439 72.4102 78.4771 72.4796 78.8104 72.5907L81.1153 65.7385C80.2961 65.4608 79.463 65.2803 78.6368 65.1831L77.8037 72.3686H77.8107Z" fill="#FBFDE3"/>
<path d="M85.3024 7.70608L86.1355 0.520617C80.6648 -0.111148 75.2636 -0.159745 69.9873 0.333171L70.6677 7.53252C75.4441 7.0882 80.3455 7.12985 85.3024 7.69913V7.70608Z" fill="#BADF00"/>
<path d="M84.4774 14.8914L85.3105 7.70598C80.3536 7.12975 75.4522 7.0881 70.6758 7.53936L71.3561 14.7387C75.6396 14.336 80.0342 14.3777 84.4774 14.8914Z" fill="#C1E219"/>
<path d="M83.6427 22.0771L84.4758 14.8917C80.0326 14.3779 75.638 14.3363 71.3545 14.7389L72.0349 21.9383C75.8254 21.5842 79.7132 21.6189 83.6427 22.0702V22.0771Z" fill="#C8E532"/>
<path d="M82.8089 29.2553L83.642 22.0698C79.7056 21.6116 75.8248 21.5838 72.0342 21.9379L72.7145 29.1372C76.0122 28.8318 79.3932 28.8595 82.8158 29.2553H82.8089Z" fill="#CEE84C"/>
<path d="M81.9762 36.4409L82.8093 29.2555C79.3867 28.8597 76.0057 28.832 72.708 29.1374L73.3884 36.3368C76.1931 36.073 79.0673 36.1007 81.9762 36.434V36.4409Z" fill="#D5EB65"/>
<path d="M81.1454 43.6263L81.9785 36.4408C79.0696 36.1007 76.1954 36.0798 73.3906 36.3436L74.071 43.543C76.3828 43.3278 78.7502 43.3486 81.1454 43.6263Z" fill="#DCEF7E"/>
<path d="M80.3106 50.812L81.1437 43.6265C78.7486 43.3488 76.3812 43.328 74.0693 43.5432L74.7497 50.7425C76.5686 50.5759 78.4292 50.5898 80.3106 50.805V50.812Z" fill="#E3F297"/>
<path d="M79.4769 57.9975L80.3099 50.812C78.4285 50.5968 76.561 50.576 74.749 50.7495L75.4294 57.9489C76.7554 57.8239 78.1092 57.8378 79.4769 57.9975Z" fill="#E9F5B1"/>
<path d="M78.646 65.183L79.4791 57.9976C78.1045 57.8379 76.7507 57.824 75.4316 57.949L76.112 65.1483C76.9382 65.0719 77.7921 65.0789 78.6529 65.1761L78.646 65.183Z" fill="#F0F8CA"/>
<path d="M76.7849 72.3542C77.1181 72.3195 77.4652 72.3265 77.8123 72.3681L78.6454 65.1827C77.7846 65.0855 76.9376 65.0785 76.1045 65.1549L76.7849 72.3542Z" fill="#F7FBE3"/>
<path d="M70.6753 7.54651L69.995 0.347168C64.5104 0.867854 59.2133 1.94394 54.1592 3.51988L56.3183 10.4207C60.9003 8.99055 65.6976 8.01166 70.6684 7.54651H70.6753Z" fill="#70C700"/>
<path d="M71.3488 14.7526L70.6685 7.55322C65.6976 8.02531 60.9004 8.99726 56.3184 10.4274L58.4775 17.3282C62.5874 16.0439 66.8917 15.1691 71.3488 14.7456V14.7526Z" fill="#7ECD19"/>
<path d="M72.0283 21.9523L71.3479 14.7529C66.8908 15.1764 62.5865 16.0512 58.4766 17.3355L60.6357 24.2363C64.2735 23.1047 68.078 22.3272 72.0213 21.9523H72.0283Z" fill="#8CD232"/>
<path d="M72.7106 29.1515L72.0302 21.9521C68.0869 22.327 64.2824 23.0977 60.6445 24.2362L62.8036 31.137C65.9625 30.1512 69.274 29.4778 72.7036 29.1515H72.7106Z" fill="#9AD84C"/>
<path d="M73.3899 36.3507L72.7095 29.1514C69.28 29.4777 65.9684 30.1511 62.8096 31.1369L64.9687 38.0377C67.6554 37.1977 70.4741 36.6215 73.3899 36.3507Z" fill="#A8DD65"/>
<path d="M74.0703 43.5504L73.39 36.3511C70.4741 36.6288 67.6555 37.1981 64.9688 38.0381L67.1279 44.9389C69.3425 44.2447 71.6613 43.7726 74.0634 43.5504H74.0703Z" fill="#B7E37E"/>
<path d="M74.7497 50.7565L74.0693 43.5571C71.6672 43.7862 69.3484 44.2583 67.1338 44.9456L69.2929 51.8464C71.0355 51.3049 72.8613 50.93 74.7497 50.7495V50.7565Z" fill="#C5E897"/>
<path d="M75.4291 57.9557L74.7488 50.7563C72.8604 50.9369 71.0346 51.3048 69.292 51.8533L71.4511 58.7541C72.7216 58.3584 74.0476 58.0876 75.4222 57.9557H75.4291Z" fill="#D3EEB1"/>
<path d="M76.1114 65.1554L75.4311 57.9561C74.0564 58.088 72.7304 58.3587 71.46 58.7544L73.6191 65.6553C74.4105 65.4053 75.2436 65.2387 76.1114 65.1554Z" fill="#E1F3CA"/>
<path d="M75.7852 72.5555C76.1045 72.4583 76.4447 72.3888 76.7919 72.3541L76.1115 65.1548C75.2506 65.2381 74.4175 65.4047 73.6191 65.6546L75.7783 72.5555H75.7852Z" fill="#EFF9E3"/>
<path d="M56.3251 10.4413L54.166 3.54053C48.9106 5.18589 43.9537 7.345 39.3369 9.93455L42.8845 16.2383C47.0708 13.8848 51.5626 11.934 56.3251 10.4413Z" fill="#3BBE00"/>
<path d="M58.4845 17.3422L56.3254 10.4414C51.5629 11.934 47.0711 13.8849 42.8848 16.2384L46.4324 22.5421C50.1813 20.4316 54.2149 18.6821 58.4845 17.3422Z" fill="#4EC419"/>
<path d="M60.6497 24.2431L58.4906 17.3423C54.221 18.6822 50.1944 20.4317 46.4385 22.5422L49.9861 28.846C53.3046 26.9784 56.8661 25.4303 60.6497 24.2431Z" fill="#62CB32"/>
<path d="M62.8091 31.144L60.65 24.2432C56.8733 25.4303 53.3048 26.9785 49.9863 28.846L53.5339 35.1498C56.422 33.5253 59.5183 32.1784 62.8091 31.1509V31.144Z" fill="#75D14C"/>
<path d="M64.9743 38.0517L62.8152 31.1509C59.5314 32.1784 56.4281 33.5321 53.54 35.1497L57.0876 41.4535C59.5453 40.072 62.1765 38.9265 64.9743 38.0517Z" fill="#88D865"/>
<path d="M67.1336 44.9526L64.9745 38.0518C62.1767 38.9265 59.5455 40.072 57.0879 41.4536L60.6355 47.7573C62.6558 46.6188 64.8287 45.6746 67.1336 44.9526Z" fill="#9CDE7E"/>
<path d="M69.293 51.8535L67.1339 44.9526C64.829 45.6747 62.6629 46.6188 60.6357 47.7574L64.1833 54.0612C65.7732 53.1656 67.481 52.4227 69.293 51.8604V51.8535Z" fill="#AFE597"/>
<path d="M71.4582 58.7543L69.2991 51.8535C67.4871 52.4228 65.7793 53.1656 64.1895 54.0543L67.7371 60.358C68.8965 59.7055 70.1392 59.1639 71.4582 58.7543Z" fill="#C2EBB1"/>
<path d="M73.6176 65.6552L71.4585 58.7544C70.1394 59.164 68.8967 59.7055 67.7373 60.3581L71.2849 66.6619C72.0139 66.2523 72.7914 65.9121 73.6176 65.6552Z" fill="#D6F2CA"/>
<path d="M74.8415 72.9652C75.1331 72.7986 75.4525 72.6597 75.7857 72.5556L73.6266 65.6548C72.8005 65.9117 72.0229 66.2518 71.2939 66.6614L74.8415 72.9652Z" fill="#E9F8E3"/>
<path d="M42.8904 16.2525L39.3428 9.94873C34.5456 12.6494 30.1441 15.7943 26.166 19.2864L30.9494 24.7154C34.5525 21.5427 38.5375 18.7032 42.8904 16.2525Z" fill="#00B600"/>
<path d="M46.4467 22.5494L42.8991 16.2456C38.5461 18.6963 34.5612 21.5427 30.958 24.7085L35.7414 30.1375C38.9766 27.298 42.545 24.7432 46.4467 22.5494Z" fill="#19BD19"/>
<path d="M49.9931 28.8531L46.4455 22.5493C42.5439 24.7431 38.9685 27.298 35.7402 30.1374L40.5236 35.5665C43.3839 33.0533 46.5427 30.797 49.9931 28.8531Z" fill="#32C432"/>
<path d="M53.5406 35.1568L49.993 28.853C46.5426 30.7969 43.3768 33.0532 40.5234 35.5664L45.3068 40.9954C47.7922 38.8085 50.5414 36.8438 53.5475 35.1568H53.5406Z" fill="#4CCC4C"/>
<path d="M57.0881 41.461L53.5405 35.1572C50.5414 36.8442 47.7852 38.809 45.2998 40.9958L50.0832 46.4249C52.2006 44.5643 54.5333 42.8981 57.0881 41.461Z" fill="#65D365"/>
<path d="M60.6414 47.7574L57.0938 41.4536C54.539 42.8907 52.2063 44.5638 50.0889 46.4175L54.8722 51.8465C56.6148 50.3122 58.5448 48.9376 60.6414 47.7574Z" fill="#7EDA7E"/>
<path d="M64.1918 54.0611L60.6442 47.7573C58.5406 48.9445 56.6176 50.3191 54.875 51.8464L59.6584 57.2755C61.026 56.0675 62.5464 54.9914 64.1987 54.0611H64.1918Z" fill="#97E197"/>
<path d="M67.7364 60.3648L64.1888 54.061C62.5365 54.9913 61.023 56.0744 59.6484 57.2754L64.4318 62.7044C65.4315 61.8297 66.5354 61.0382 67.7364 60.3579V60.3648Z" fill="#B1E9B1"/>
<path d="M71.2917 66.6617L67.7441 60.3579C66.543 61.0383 65.4392 61.8228 64.4395 62.7045L69.2228 68.1335C69.8476 67.585 70.5419 67.0921 71.2917 66.6617Z" fill="#CAF0CA"/>
<path d="M73.9991 73.5629C74.249 73.3408 74.5337 73.1394 74.8391 72.9659L71.2915 66.6621C70.5348 67.0856 69.8475 67.5785 69.2227 68.1339L74.006 73.5629H73.9991Z" fill="#E3F7E3"/>
<path d="M30.964 24.7293L26.1806 19.3003C22.0498 22.9451 18.3981 26.9301 15.2393 31.1719L21.0432 35.4832C23.9104 31.6301 27.215 28.02 30.964 24.7224V24.7293Z" fill="#00BD4F"/>
<path d="M35.7471 30.1512L30.9638 24.7222C27.2218 28.0198 23.9102 31.6369 21.043 35.483L26.8469 39.7943C29.4156 36.3439 32.38 33.1017 35.7402 30.1442L35.7471 30.1512Z" fill="#19C460"/>
<path d="M40.5224 35.5804L35.739 30.1514C32.3789 33.1089 29.4144 36.351 26.8457 39.8014L32.6496 44.1127C34.9267 41.058 37.551 38.1908 40.5224 35.5734V35.5804Z" fill="#32CA72"/>
<path d="M45.3085 41.0023L40.5251 35.5732C37.5537 38.1906 34.9295 41.0578 32.6523 44.1125L38.4563 48.4238C40.4349 45.7648 42.7189 43.2724 45.3015 40.9953L45.3085 41.0023Z" fill="#4CD183"/>
<path d="M50.0906 46.4315L45.3072 41.0024C42.7246 43.2796 40.4405 45.7719 38.4619 48.4309L44.2658 52.7422C45.9459 50.4859 47.8898 48.3615 50.0836 46.4245L50.0906 46.4315Z" fill="#65D794"/>
<path d="M54.8746 51.8533L50.0912 46.4243C47.8974 48.3613 45.9535 50.4787 44.2734 52.742L50.0773 57.0532C51.4658 55.1927 53.0626 53.4432 54.8746 51.8533Z" fill="#7EDEA6"/>
<path d="M59.6578 57.2825L54.8744 51.8535C53.0624 53.4503 51.4656 55.1928 50.0771 57.0534L55.8811 61.3647C56.971 59.8998 58.2276 58.5252 59.6508 57.2756L59.6578 57.2825Z" fill="#97E4B7"/>
<path d="M64.4398 62.7117L59.6565 57.2827C58.2333 58.5393 56.9767 59.907 55.8867 61.3718L61.6906 65.6831C62.4821 64.6209 63.3985 63.6142 64.4329 62.7048L64.4398 62.7117Z" fill="#B1EBC8"/>
<path d="M69.218 68.1336L64.4347 62.7046C63.4002 63.621 62.4838 64.6207 61.6924 65.6829L67.4963 69.9942C67.9961 69.3277 68.5654 68.7029 69.218 68.1267V68.1336Z" fill="#CAF1DA"/>
<path d="M73.3069 74.3195C73.5083 74.0488 73.7374 73.7988 74.0012 73.5628L69.2178 68.1338C68.5652 68.7031 67.996 69.3348 67.4961 70.0013L73.3 74.3126L73.3069 74.3195Z" fill="#E3F8EB"/>
<path d="M21.0582 35.4968L15.2543 31.1855C11.9705 35.6079 9.22821 40.2663 7.02051 45.0774L13.595 48.0905C15.6014 43.7306 18.0799 39.5096 21.0582 35.5038V35.4968Z" fill="#00C6A0"/>
<path d="M26.8608 39.8083L21.0569 35.4971C18.0786 39.5029 15.5932 43.7239 13.5938 48.0838L20.1683 51.0968C21.9664 47.1882 24.1949 43.3976 26.8608 39.8083Z" fill="#19CCA9"/>
<path d="M32.6664 44.1262L26.8625 39.8149C24.1966 43.4111 21.968 47.1948 20.1699 51.1034L26.7444 54.1164C28.3343 50.6591 30.3059 47.3059 32.6664 44.1262Z" fill="#32D1B3"/>
<path d="M38.469 48.4377L32.6651 44.1265C30.3047 47.3061 28.333 50.6524 26.7432 54.1167L33.3177 57.1297C34.6992 54.1167 36.414 51.2078 38.469 48.4447V48.4377Z" fill="#4CD7BC"/>
<path d="M44.2804 52.7488L38.4765 48.4375C36.4215 51.2006 34.7067 54.1164 33.3252 57.1225L39.8997 60.1356C41.073 57.5738 42.5309 55.1023 44.2804 52.7488Z" fill="#65DDC5"/>
<path d="M50.083 57.0603L44.2791 52.749C42.5296 55.1025 41.0717 57.574 39.8984 60.1358L46.473 63.1488C47.438 61.0383 48.639 58.9972 50.083 57.0603Z" fill="#7EE2CF"/>
<path d="M55.8896 61.3787L50.0857 57.0674C48.6486 59.0043 47.4475 61.0454 46.4756 63.1559L53.0501 66.169C53.8138 64.5097 54.758 62.906 55.8896 61.3856V61.3787Z" fill="#97E8D8"/>
<path d="M61.701 65.6897L55.8971 61.3784C54.7655 62.8988 53.8213 64.5025 53.0576 66.1618L59.6321 69.1748C60.1875 67.9668 60.8748 66.8005 61.701 65.6897Z" fill="#B1EEE1"/>
<path d="M67.5036 70.0007L61.6997 65.6895C60.8736 66.8002 60.1863 67.9666 59.6309 69.1746L66.2054 72.1876C66.5525 71.4309 66.9829 70.7019 67.4967 70.0007H67.5036Z" fill="#CAF3EB"/>
<path d="M72.7874 75.2008C72.9263 74.8953 73.0998 74.5968 73.3081 74.3191L67.5042 70.0078C66.9904 70.7021 66.56 71.438 66.2129 72.1947L72.7874 75.2077V75.2008Z" fill="#E3F9F4"/>
<path d="M13.6001 48.0907L7.02555 45.0776C4.73454 50.0832 3.01974 55.2067 1.86035 60.3788L8.92085 61.9548C9.9761 57.2686 11.5243 52.6241 13.607 48.0907H13.6001Z" fill="#00AFCF"/>
<path d="M20.1748 51.1039L13.6002 48.0908C11.5244 52.6312 9.96932 57.2757 8.91406 61.9549L15.9746 63.5309C16.9187 59.3307 18.3072 55.1652 20.1748 51.0969V51.1039Z" fill="#19B7D4"/>
<path d="M26.7571 54.1165L20.1826 51.1035C18.322 55.1718 16.9266 59.3373 15.9824 63.5375L23.0429 65.1134C23.876 61.3992 25.1118 57.7128 26.7571 54.1096V54.1165Z" fill="#32BFD9"/>
<path d="M33.3298 57.1297L26.7552 54.1167C25.1029 57.7198 23.8741 61.3994 23.041 65.1205L30.1015 66.6965C30.8305 63.4682 31.8996 60.2608 33.3367 57.1297H33.3298Z" fill="#4CC7DD"/>
<path d="M39.9044 60.1424L33.3299 57.1294C31.8928 60.2605 30.8237 63.4679 30.0947 66.6961L37.1552 68.2721C37.7731 65.5228 38.6826 62.8014 39.9044 60.1355V60.1424Z" fill="#65CFE2"/>
<path d="M46.481 63.1561L39.9064 60.1431C38.6846 62.809 37.7751 65.5304 37.1572 68.2796L44.2177 69.8556C44.7245 67.5923 45.4743 65.343 46.481 63.1492V63.1561Z" fill="#7ED6E7"/>
<path d="M53.0546 66.162L46.48 63.1489C45.4734 65.3427 44.7236 67.5852 44.2168 69.8554L51.2773 71.4313C51.68 69.654 52.2701 67.8837 53.0546 66.162Z" fill="#97DEEC"/>
<path d="M59.637 69.1747L53.0624 66.1616C52.271 67.8834 51.6809 69.6537 51.2852 71.431L58.3457 73.0069C58.6372 71.7087 59.0677 70.4243 59.6439 69.1677L59.637 69.1747Z" fill="#B1E6F0"/>
<path d="M66.2116 72.1878L59.6371 69.1748C59.0609 70.4314 58.6305 71.7157 58.3389 73.014L65.3994 74.5899C65.5799 73.7777 65.8506 72.9723 66.2116 72.1878Z" fill="#CAEEF5"/>
<path d="M72.458 76.173C72.5343 75.8467 72.6385 75.5204 72.7843 75.201L66.2097 72.188C65.8487 72.9725 65.578 73.7778 65.3975 74.5901L72.458 76.166V76.173Z" fill="#E3F6FA"/>
<path d="M8.93496 61.9617L1.87447 60.3857C0.67342 65.7592 0.0624823 71.1327 0 76.4229L7.23406 76.4992C7.2896 71.702 7.845 66.8353 8.93496 61.9617Z" fill="#009BCC"/>
<path d="M15.9899 63.5447L8.92942 61.9688C7.83945 66.8424 7.28406 71.709 7.22852 76.5063L14.4626 76.5827C14.5112 72.2783 15.011 67.9184 15.983 63.5447H15.9899Z" fill="#19A5D1"/>
<path d="M23.0496 65.1204L15.9892 63.5444C15.0103 67.9112 14.5173 72.2781 14.4688 76.5824L21.7028 76.6588C21.7445 72.8543 22.1888 68.9873 23.0496 65.1273V65.1204Z" fill="#32AFD6"/>
<path d="M30.1105 66.6965L23.05 65.1206C22.1822 68.9876 21.7448 72.8476 21.7031 76.6521L28.9372 76.7284C28.9788 73.4169 29.3537 70.0567 30.1105 66.6965Z" fill="#4CB9DB"/>
<path d="M37.1625 68.2796L30.102 66.7036C29.3522 70.0638 28.9704 73.4239 28.9287 76.7355L36.1628 76.8119C36.1975 73.9932 36.5168 71.1399 37.1625 68.2796Z" fill="#65C3E0"/>
<path d="M44.2233 69.8552L37.1628 68.2793C36.5241 71.1396 36.1978 73.993 36.1631 76.8116L43.3971 76.888C43.4249 74.5692 43.6887 72.2157 44.2164 69.8622L44.2233 69.8552Z" fill="#7ECCE5"/>
<path d="M51.284 71.4382L44.2235 69.8623C43.6959 72.2158 43.4321 74.5693 43.4043 76.8881L50.6384 76.9645C50.6592 75.1386 50.8675 73.2919 51.284 71.4382Z" fill="#97D6EA"/>
<path d="M58.339 73.0144L51.2785 71.4385C50.8619 73.2921 50.6536 75.1388 50.6328 76.9647L57.8669 77.0411C57.8808 75.715 58.0335 74.3682 58.339 73.0144Z" fill="#B1E0EF"/>
<path d="M65.3998 74.5969L58.3393 73.021C58.0407 74.3678 57.888 75.7147 57.8672 77.0476L65.1012 77.124C65.1082 76.2909 65.2054 75.4509 65.3928 74.6039L65.3998 74.5969Z" fill="#CAEAF4"/>
<path d="M72.3415 77.1937C72.3415 76.8604 72.3831 76.5133 72.4595 76.1731L65.399 74.5972C65.2116 75.4441 65.1144 76.2842 65.1074 77.1173L72.3415 77.1937Z" fill="#E3F4F9"/>
<path d="M7.24692 76.4992L0.0128578 76.4229C-0.042682 81.9282 0.471061 87.3087 1.51243 92.5016L8.6007 91.0715C7.65652 86.3645 7.18443 81.4909 7.23997 76.4992H7.24692Z" fill="#0087C3"/>
<path d="M14.4816 76.5754L7.24756 76.499C7.19202 81.4907 7.66411 86.3643 8.60828 91.0713L15.6965 89.6411C14.8496 85.4201 14.4261 81.0463 14.4747 76.5754H14.4816Z" fill="#1993C9"/>
<path d="M21.7095 76.6521L14.4754 76.5757C14.4268 81.0536 14.8503 85.4204 15.6973 89.6414L22.7856 88.2113C22.0358 84.4762 21.6609 80.6093 21.7026 76.6521H21.7095Z" fill="#329FCF"/>
<path d="M28.9432 76.7282L21.7092 76.6519C21.6675 80.6091 22.0424 84.483 22.7922 88.2111L29.8805 86.7809C29.2279 83.5318 28.9016 80.1717 28.9432 76.7282Z" fill="#4CABD5"/>
<path d="M36.177 76.8117L28.9429 76.7354C28.9082 80.1788 29.2345 83.5459 29.8802 86.7881L36.9684 85.3579C36.413 82.5948 36.1353 79.7345 36.1701 76.8048L36.177 76.8117Z" fill="#65B7DB"/>
<path d="M43.4108 76.8879L36.1767 76.8115C36.149 79.7412 36.4197 82.6015 36.9751 85.3647L44.0634 83.9345C43.6052 81.6574 43.383 79.3039 43.4039 76.8879H43.4108Z" fill="#7EC2E0"/>
<path d="M50.6367 76.9641L43.4026 76.8877C43.3749 79.3037 43.604 81.6572 44.0622 83.9343L51.1504 82.5042C50.7894 80.713 50.6159 78.8594 50.6298 76.9641H50.6367Z" fill="#97CEE6"/>
<path d="M57.8704 77.0407L50.6364 76.9644C50.6156 78.8597 50.7961 80.7133 51.1571 82.5044L58.2453 81.0743C57.9815 79.7691 57.8566 78.4223 57.8704 77.0407Z" fill="#B1DAEC"/>
<path d="M65.1052 77.1169L57.8711 77.0405C57.8572 78.4221 57.9891 79.7689 58.246 81.0741L65.3343 79.644C65.1677 78.8247 65.0913 77.9847 65.0982 77.1169H65.1052Z" fill="#CAE6F2"/>
<path d="M72.4293 78.2141C72.3599 77.8809 72.3322 77.5407 72.3322 77.1936L65.0981 77.1172C65.0911 77.985 65.1675 78.832 65.3341 79.6442L72.4224 78.2141H72.4293Z" fill="#E3F2F8"/>
<path d="M8.62245 91.0713L1.53418 92.5014C2.62415 97.9027 4.24869 103.054 6.34531 107.914L12.9823 105.04C11.0801 100.631 9.60828 95.9588 8.62245 91.0713Z" fill="#0074BF"/>
<path d="M15.7123 89.6412L8.62402 91.0714C9.60985 95.9658 11.0817 100.638 12.9839 105.04L19.6209 102.165C17.9131 98.2152 16.594 94.0219 15.7123 89.6343V89.6412Z" fill="#1982C5"/>
<path d="M22.8051 88.2109L15.7168 89.6411C16.5985 94.0287 17.9245 98.215 19.6254 102.172L26.2624 99.2981C24.7559 95.7991 23.5826 92.0987 22.8051 88.2109Z" fill="#3290CC"/>
<path d="M29.8939 86.7876L22.8057 88.2177C23.5902 92.0986 24.7565 95.8059 26.263 99.3049L32.9 96.4307C31.5879 93.3899 30.5673 90.1686 29.887 86.7876H29.8939Z" fill="#4C9DD2"/>
<path d="M36.9838 85.3579L29.8955 86.7881C30.5759 90.1621 31.5964 93.3904 32.9085 96.4312L39.5455 93.557C38.4278 90.9744 37.5669 88.2321 36.9838 85.3579Z" fill="#65ABD8"/>
<path d="M44.0707 83.9272L36.9824 85.3574C37.5586 88.2316 38.4265 90.9669 39.5442 93.5565L46.1812 90.6823C45.2648 88.5509 44.5497 86.2946 44.0707 83.9272Z" fill="#7EB9DF"/>
<path d="M51.1664 82.4976L44.0781 83.9277C44.5572 86.2951 45.2653 88.5514 46.1886 90.6827L52.8256 87.8086C52.1036 86.1354 51.5413 84.3581 51.1664 82.4976Z" fill="#97C7E5"/>
<path d="M58.2553 81.0742L51.167 82.5044C51.5419 84.3649 52.1042 86.1422 52.8262 87.8154L59.4633 84.9412C58.9356 83.7193 58.526 82.428 58.2553 81.0742Z" fill="#B1D4EB"/>
<path d="M65.3422 79.644L58.2539 81.0742C58.5247 82.428 58.9343 83.7193 59.4619 84.9411L66.0989 82.067C65.7657 81.3033 65.5157 80.491 65.3422 79.644Z" fill="#CAE2F2"/>
<path d="M72.7433 79.1928C72.6114 78.8803 72.5073 78.554 72.4379 78.2139L65.3496 79.644C65.5232 80.491 65.7731 81.3033 66.1063 82.0669L72.7433 79.1928Z" fill="#E3F0F8"/>
<path d="M12.9954 105.04L6.3584 107.914C8.54528 112.968 11.2042 117.668 14.2728 121.993L20.167 117.807C17.39 113.891 14.981 109.629 12.9954 105.046V105.04Z" fill="#0040BA"/>
<path d="M19.6321 102.166L12.9951 105.04C14.9737 109.622 17.3897 113.884 20.1667 117.8L26.0609 113.614C23.5685 110.101 21.4094 106.282 19.6321 102.172V102.166Z" fill="#1953C1"/>
<path d="M26.2776 99.291L19.6406 102.165C21.4179 106.275 23.5839 110.094 26.0694 113.606L31.9635 109.42C29.7628 106.317 27.8466 102.929 26.2776 99.298V99.291Z" fill="#3266C8"/>
<path d="M32.9143 96.4243L26.2773 99.2985C27.8463 102.936 29.7625 106.317 31.9632 109.421L37.8574 105.234C35.9413 102.534 34.2751 99.5901 32.9074 96.4313L32.9143 96.4243Z" fill="#4C79CE"/>
<path d="M39.5511 93.5498L32.9141 96.424C34.2817 99.5828 35.9479 102.526 37.864 105.227L43.7582 101.034C42.1267 98.7358 40.7105 96.2365 39.5511 93.5498Z" fill="#658CD5"/>
<path d="M46.1878 90.6826L39.5508 93.5568C40.7171 96.2435 42.1264 98.7428 43.7579 101.041L49.6521 96.8475C48.3122 94.9522 47.1458 92.8973 46.1878 90.6826Z" fill="#7E9EDC"/>
<path d="M52.8245 87.8086L46.1875 90.6828C47.1456 92.8974 48.3119 94.9593 49.6518 96.8477L55.546 92.6614C54.4907 91.1757 53.5743 89.5512 52.8176 87.8086H52.8245Z" fill="#97B1E3"/>
<path d="M59.4612 84.9341L52.8242 87.8083C53.5809 89.5508 54.4974 91.1684 55.5526 92.6611L61.4468 88.4747C60.6762 87.3917 60.0097 86.2115 59.4612 84.941V84.9341Z" fill="#B1C4E9"/>
<path d="M66.1067 82.0669L59.4697 84.9411C60.0182 86.2116 60.6847 87.3918 61.4553 88.4748L67.3494 84.2885C66.8704 83.6081 66.4469 82.8722 66.1067 82.0738V82.0669Z" fill="#CAD7F0"/>
<path d="M73.2433 80.0885C73.0489 79.8108 72.8823 79.5122 72.7434 79.1929L66.1064 82.0671C66.4536 82.8585 66.8701 83.6013 67.3491 84.2817L73.2433 80.0954V80.0885Z" fill="#E3EAF7"/>
<path d="M20.1822 117.786L14.2881 121.972C17.4747 126.464 21.057 130.512 24.9517 134.101L29.8462 128.776C26.3194 125.52 23.0703 121.854 20.1822 117.786Z" fill="#0229BA"/>
<path d="M26.0758 113.6L20.1816 117.786C23.0697 121.854 26.3188 125.52 29.8456 128.776L34.74 123.451C31.5742 120.535 28.6653 117.244 26.0689 113.6H26.0758Z" fill="#1B3EC1"/>
<path d="M31.9703 109.413L26.0762 113.6C28.6657 117.251 31.5816 120.535 34.7473 123.451L39.6418 118.126C36.8439 115.543 34.2683 112.635 31.9703 109.406V109.413Z" fill="#3453C8"/>
<path d="M37.8727 105.22L31.9785 109.407C34.2695 112.635 36.8452 115.544 39.6499 118.126L44.5444 112.801C42.1076 110.559 39.8721 108.025 37.8727 105.22Z" fill="#4D68CE"/>
<path d="M43.7672 101.034L37.873 105.22C39.8655 108.025 42.108 110.559 44.5448 112.801L49.4392 107.476C47.3703 105.567 45.4612 103.415 43.7672 101.027V101.034Z" fill="#667DD5"/>
<path d="M49.6608 96.8403L43.7666 101.027C45.4606 103.415 47.3697 105.567 49.4386 107.476L54.333 102.151C52.6252 100.575 51.0562 98.8051 49.6608 96.8403Z" fill="#7F93DC"/>
<path d="M55.5543 92.6544L49.6602 96.8407C51.0556 98.8054 52.6246 100.583 54.3324 102.152L59.2269 96.8268C57.887 95.5911 56.6512 94.1956 55.5543 92.6475V92.6544Z" fill="#98A8E3"/>
<path d="M61.4547 88.4678L55.5605 92.6541C56.6575 94.2023 57.8932 95.5977 59.2331 96.8335L64.1276 91.5086C63.1487 90.6061 62.2531 89.5925 61.4547 88.4678Z" fill="#B1BDE9"/>
<path d="M67.3483 84.2745L61.4541 88.4608C62.2525 89.5855 63.155 90.5991 64.127 91.5016L69.0214 86.1768C68.4105 85.6144 67.8481 84.9757 67.3413 84.2676L67.3483 84.2745Z" fill="#CAD2F0"/>
<path d="M73.9232 80.859C73.6732 80.6299 73.4511 80.373 73.2428 80.0884L67.3486 84.2747C67.8485 84.9828 68.4108 85.6146 69.0287 86.1839L73.9232 80.859Z" fill="#E3E7F7"/>
<path d="M29.8593 128.769L24.9648 134.094C29.0192 137.822 33.3652 141.036 37.9195 143.737L41.606 137.51C37.4752 135.059 33.5388 132.15 29.8662 128.769H29.8593Z" fill="#4D22B3"/>
<path d="M34.7538 123.444L29.8594 128.769C33.5319 132.15 37.4683 135.059 41.5991 137.509L45.2856 131.282C41.5852 129.088 38.0515 126.478 34.7608 123.444H34.7538Z" fill="#5F38BB"/>
<path d="M39.6483 118.119L34.7539 123.444C38.0516 126.471 41.5784 129.088 45.2787 131.282L48.9651 125.055C45.6883 123.111 42.5642 120.799 39.6483 118.119Z" fill="#704EC2"/>
<path d="M44.5429 112.794L39.6484 118.119C42.5643 120.799 45.6884 123.111 48.9652 125.055L52.6517 118.827C49.8053 117.14 47.0838 115.127 44.5498 112.794H44.5429Z" fill="#8263CA"/>
<path d="M49.4433 107.477L44.5488 112.801C47.0828 115.134 49.8043 117.14 52.6507 118.834L56.3372 112.607C53.9142 111.17 51.6024 109.462 49.4502 107.477H49.4433Z" fill="#9379D1"/>
<path d="M54.3378 102.151L49.4434 107.476C51.5955 109.462 53.9074 111.17 56.3303 112.607L60.0167 106.379C58.0243 105.199 56.1151 103.79 54.3378 102.151Z" fill="#A58FD9"/>
<path d="M59.2323 96.8267L54.3379 102.152C56.1152 103.783 58.0174 105.192 60.0168 106.379L63.7033 100.152C62.1343 99.2218 60.6347 98.118 59.2393 96.8336L59.2323 96.8267Z" fill="#B6A5E0"/>
<path d="M64.1357 91.5015L59.2412 96.8263C60.6366 98.1107 62.1362 99.2145 63.7052 100.145L67.3917 93.9174C66.2462 93.2371 65.1562 92.4318 64.1426 91.5015H64.1357Z" fill="#C8BAE8"/>
<path d="M69.0302 86.1836L64.1357 91.5085C65.1493 92.4457 66.2393 93.251 67.3848 93.9244L71.0713 87.6971C70.3562 87.2736 69.6689 86.7668 69.0371 86.1836H69.0302Z" fill="#D9D0EF"/>
<path d="M74.7509 81.4698C74.4593 81.2963 74.1816 81.0949 73.9247 80.8589L69.0303 86.1838C69.669 86.7669 70.3493 87.2737 71.0644 87.6972L74.7509 81.4698Z" fill="#EBE6F7"/>
<path d="M41.6063 137.496L37.9268 143.723C42.6685 146.528 47.5837 148.77 52.6031 150.464L54.915 143.605C50.3677 142.071 45.9106 140.037 41.6132 137.496H41.6063Z" fill="#7524AF"/>
<path d="M45.2869 131.268L41.6074 137.495C45.9048 140.036 50.3619 142.064 54.9092 143.605L57.2141 136.746C53.1389 135.371 49.14 133.545 45.2869 131.268Z" fill="#833AB7"/>
<path d="M48.9735 125.048L45.2939 131.275C49.147 133.552 53.1459 135.371 57.2211 136.753L59.533 129.894C55.9229 128.672 52.3892 127.061 48.9804 125.048H48.9735Z" fill="#904FBF"/>
<path d="M52.6512 118.82L48.9717 125.048C52.3804 127.061 55.9142 128.672 59.5242 129.894L61.8361 123.034C58.6981 121.972 55.6226 120.577 52.6581 118.82H52.6512Z" fill="#9E65C7"/>
<path d="M56.3377 112.593L52.6582 118.82C55.6226 120.577 58.6982 121.972 61.8362 123.034L64.1411 116.175C61.4751 115.273 58.8578 114.085 56.3377 112.593Z" fill="#AC7BCF"/>
<path d="M60.0184 106.372L56.3389 112.599C58.859 114.092 61.4763 115.279 64.1422 116.182L66.4541 109.323C64.2533 108.58 62.1011 107.601 60.0253 106.372H60.0184Z" fill="#B990D6"/>
<path d="M63.6961 100.145L60.0166 106.372C62.0924 107.601 64.2515 108.58 66.4453 109.323L68.7572 102.464C67.0285 101.881 65.3345 101.11 63.7031 100.145H63.6961Z" fill="#C7A6DE"/>
<path d="M67.3826 93.9175L63.7031 100.145C65.3346 101.11 67.0286 101.88 68.7572 102.464L71.0691 95.6045C69.8125 95.181 68.5767 94.6187 67.3896 93.9175H67.3826Z" fill="#D5BCE6"/>
<path d="M71.0633 87.6969L67.3838 93.9243C68.571 94.6255 69.8067 95.1878 71.0633 95.6113L73.3751 88.7521C72.5837 88.4883 71.8131 88.1343 71.0702 87.6899L71.0633 87.6969Z" fill="#E2D1EE"/>
<path d="M75.6811 81.9002C75.3617 81.7891 75.0493 81.6502 74.7508 81.4697L71.0713 87.6971C71.8141 88.1345 72.5917 88.4886 73.3762 88.7593L75.688 81.9002H75.6811Z" fill="#F0E7F6"/>
<path d="M54.9094 143.591L52.6045 150.444C57.8252 152.2 63.1015 153.366 68.357 153.984L69.1901 146.799C64.4206 146.243 59.6372 145.181 54.9094 143.591Z" fill="#A92BBC"/>
<path d="M57.2219 136.732L54.917 143.584C59.6448 145.174 64.4282 146.236 69.1977 146.792L70.0308 139.606C65.7542 139.106 61.4707 138.155 57.2288 136.732H57.2219Z" fill="#B140C3"/>
<path d="M59.5266 129.88L57.2217 136.732C61.4635 138.162 65.754 139.107 70.0236 139.606L70.8567 132.421C67.073 131.977 63.2825 131.137 59.5266 129.873V129.88Z" fill="#BA55C9"/>
<path d="M61.8391 123.028L59.5342 129.88C63.2901 131.144 67.0806 131.984 70.8643 132.428L71.6974 125.242C68.4067 124.861 65.109 124.125 61.846 123.028H61.8391Z" fill="#C26AD0"/>
<path d="M64.1428 116.168L61.8379 123.021C65.1009 124.118 68.4055 124.853 71.6893 125.235L72.5224 118.05C69.7245 117.724 66.9198 117.099 64.1428 116.168Z" fill="#CB7FD7"/>
<path d="M66.4465 109.316L64.1416 116.169C66.9186 117.106 69.7234 117.724 72.5212 118.05L73.3543 110.865C71.0494 110.594 68.7375 110.087 66.4534 109.316H66.4465Z" fill="#D393DD"/>
<path d="M68.759 102.464L66.4541 109.316C68.7382 110.087 71.05 110.601 73.3549 110.864L74.188 103.679C72.376 103.471 70.5571 103.068 68.759 102.457V102.464Z" fill="#DCA8E4"/>
<path d="M71.0637 95.6045L68.7588 102.457C70.5569 103.061 72.3758 103.463 74.1878 103.679L75.0209 96.4931C73.7018 96.3404 72.3758 96.0488 71.0706 95.6045H71.0637Z" fill="#E4BDEB"/>
<path d="M73.3762 88.7524L71.0713 95.6047C72.3834 96.049 73.7025 96.3406 75.0216 96.4933L75.8547 89.3078C75.0285 89.2106 74.1954 89.0301 73.3762 88.7524Z" fill="#EDD2F1"/>
<path d="M76.6884 82.1225C76.3552 82.0809 76.0219 82.0115 75.6887 81.9004L73.3838 88.7526C74.203 89.0303 75.0361 89.2108 75.8623 89.308L76.6954 82.1225H76.6884Z" fill="#F5E7F8"/>
<path d="M69.1895 146.785L68.3564 153.97C73.8271 154.602 79.2284 154.65 84.5046 154.158L83.8243 146.958C79.0479 147.403 74.1465 147.361 69.1895 146.792V146.785Z" fill="#C82DB3"/>
<path d="M70.0225 139.599L69.1895 146.785C74.1464 147.361 79.0478 147.402 83.8242 146.951L83.1438 139.752C78.8603 140.155 74.4657 140.113 70.0225 139.599Z" fill="#CD42BB"/>
<path d="M70.8565 132.414L70.0234 139.6C74.4666 140.113 78.8612 140.155 83.1447 139.752L82.4643 132.553C78.6738 132.907 74.786 132.872 70.8496 132.421L70.8565 132.414Z" fill="#D357C2"/>
<path d="M71.6895 125.229L70.8564 132.414C74.7928 132.872 78.6737 132.9 82.4712 132.546L81.7908 125.347C78.4932 125.652 75.1122 125.624 71.6895 125.229Z" fill="#D86BCA"/>
<path d="M72.5225 118.043L71.6895 125.228C75.1121 125.624 78.4931 125.652 81.7907 125.346L81.1104 118.147C78.3056 118.411 75.4314 118.383 72.5225 118.05V118.043Z" fill="#DE80D1"/>
<path d="M73.3565 110.857L72.5234 118.043C75.4323 118.383 78.3065 118.404 81.1113 118.14L80.4309 110.941C78.1191 111.156 75.7517 111.135 73.3565 110.857Z" fill="#E395D9"/>
<path d="M74.1866 103.679L73.3535 110.864C75.7487 111.142 78.116 111.163 80.4279 110.947L79.7475 103.748C77.9286 103.915 76.068 103.901 74.1866 103.686V103.679Z" fill="#E9AAE0"/>
<path d="M75.0196 96.4937L74.1865 103.679C76.0679 103.894 77.9355 103.915 79.7474 103.742L79.0671 96.5422C77.7411 96.6672 76.3873 96.6533 75.0196 96.4937Z" fill="#EEBEE8"/>
<path d="M75.8536 89.3081L75.0205 96.4936C76.3951 96.6532 77.7489 96.6671 79.068 96.5422L78.3876 89.3428C77.5615 89.4192 76.7075 89.4122 75.8467 89.315L75.8536 89.3081Z" fill="#F4D3EF"/>
<path d="M77.7082 82.1364C77.375 82.1712 77.0279 82.1642 76.6808 82.1226L75.8477 89.308C76.7085 89.4052 77.5555 89.4121 78.3886 89.3358L77.7082 82.1364Z" fill="#F9E8F7"/>
<path d="M83.8242 146.938L84.5046 154.137C89.9891 153.616 95.2793 152.54 100.34 150.964L98.1813 144.063C93.5992 145.494 88.802 146.473 83.8312 146.938H83.8242Z" fill="#D2278D"/>
<path d="M83.1416 139.738L83.822 146.938C88.7928 146.466 93.59 145.494 98.1721 144.063L96.0129 137.163C91.903 138.447 87.5987 139.322 83.1416 139.745V139.738Z" fill="#D63C98"/>
<path d="M82.4688 132.538L83.1491 139.738C87.6062 139.314 91.9105 138.44 96.0205 137.155L93.8613 130.254C90.2235 131.386 86.419 132.164 82.4757 132.538H82.4688Z" fill="#DB52A3"/>
<path d="M81.7891 125.34L82.4694 132.539C86.4128 132.164 90.2172 131.393 93.8551 130.255L91.696 123.354C88.5371 124.34 85.2256 125.013 81.796 125.34H81.7891Z" fill="#DF67AF"/>
<path d="M81.1104 118.133L81.7907 125.333C85.2203 125.006 88.5319 124.333 91.6907 123.347L89.5316 116.446C86.8448 117.286 84.0262 117.863 81.1104 118.133Z" fill="#E47CBA"/>
<path d="M80.4277 110.934L81.1081 118.133C84.0239 117.856 86.8426 117.286 89.5293 116.446L87.3702 109.545C85.1556 110.24 82.8368 110.712 80.4347 110.934H80.4277Z" fill="#E892C5"/>
<path d="M79.748 103.734L80.4284 110.934C82.8305 110.705 85.1493 110.233 87.3639 109.545L85.2048 102.645C83.4623 103.186 81.6364 103.561 79.748 103.741V103.734Z" fill="#EDA7D0"/>
<path d="M79.0684 96.5352L79.7487 103.735C81.6371 103.554 83.4629 103.186 85.2055 102.638L83.0464 95.7368C81.7759 96.1325 80.4499 96.4033 79.0753 96.5352H79.0684Z" fill="#F1BCDC"/>
<path d="M78.3867 89.3358L79.0671 96.5351C80.4417 96.4032 81.7677 96.1325 83.0382 95.7368L80.8791 88.8359C80.0876 89.0859 79.2545 89.2525 78.3867 89.3358Z" fill="#F6D2E7"/>
<path d="M78.7137 81.9282C78.3943 82.0254 78.0542 82.0948 77.707 82.1296L78.3874 89.3289C79.2483 89.2456 80.0814 89.079 80.8797 88.829L78.7206 81.9282H78.7137Z" fill="#FAE7F2"/>
<path d="M98.1729 144.049L100.332 150.95C105.587 149.305 110.544 147.146 115.161 144.556L111.613 138.252C107.427 140.606 102.935 142.557 98.1729 144.049Z" fill="#E5276F"/>
<path d="M96.0078 137.149L98.1669 144.049C102.929 142.557 107.421 140.606 111.608 138.252L108.06 131.949C104.311 134.059 100.277 135.809 96.0078 137.149Z" fill="#E83C7D"/>
<path d="M93.8457 130.248L96.0048 137.149C100.274 135.809 104.301 134.059 108.057 131.949L104.509 125.645C101.191 127.513 97.6294 129.061 93.8457 130.248Z" fill="#EA528B"/>
<path d="M91.6875 123.34L93.8466 130.241C97.6233 129.053 101.192 127.505 104.51 125.638L100.963 119.334C98.0746 120.959 94.9782 122.305 91.6875 123.333V123.34Z" fill="#ED679A"/>
<path d="M89.5225 116.439L91.6816 123.34C94.9654 122.312 98.0686 120.958 100.957 119.341L97.4091 113.037C94.9515 114.419 92.3203 115.564 89.5225 116.439Z" fill="#EF7CA8"/>
<path d="M87.3633 109.539L89.5224 116.439C92.3202 115.565 94.9514 114.419 97.409 113.038L93.8614 106.734C91.8412 107.872 89.6682 108.817 87.3633 109.539Z" fill="#F292B6"/>
<path d="M85.2051 102.637L87.3642 109.538C89.6691 108.816 91.8351 107.872 93.8623 106.733L90.3147 100.43C88.7249 101.325 87.0171 102.068 85.2051 102.63V102.637Z" fill="#F4A7C4"/>
<path d="M83.0371 95.7365L85.1962 102.637C87.0082 102.068 88.7161 101.325 90.3059 100.437L86.7583 94.1328C85.5989 94.7854 84.3562 95.3269 83.0371 95.7365Z" fill="#F7BCD3"/>
<path d="M80.8779 88.8289L83.037 95.7297C84.3561 95.3201 85.5988 94.7786 86.7582 94.126L83.2106 87.8223C82.4816 88.2319 81.7041 88.5721 80.8779 88.8289Z" fill="#F9D2E1"/>
<path d="M79.6571 81.5254C79.3655 81.692 79.0461 81.8309 78.7129 81.935L80.872 88.8358C81.6982 88.5789 82.4757 88.2388 83.2047 87.8292L79.6571 81.5254Z" fill="#FCE7EF"/>
<path d="M111.606 138.238L115.154 144.542C119.951 141.841 124.353 138.696 128.331 135.204L123.548 129.775C119.944 132.948 115.959 135.788 111.606 138.238Z" fill="#F22540"/>
<path d="M108.053 131.935L111.6 138.239C115.946 135.788 119.938 132.941 123.541 129.776L118.758 124.347C115.523 127.186 111.954 129.741 108.053 131.935Z" fill="#F33B53"/>
<path d="M104.505 125.638L108.052 131.941C111.954 129.748 115.53 127.193 118.758 124.353L113.974 118.924C111.114 121.437 107.955 123.694 104.505 125.638Z" fill="#F55066"/>
<path d="M100.958 119.334L104.506 125.638C107.956 123.694 111.122 121.437 113.975 118.924L109.192 113.495C106.706 115.682 103.957 117.647 100.951 119.334H100.958Z" fill="#F66679"/>
<path d="M97.4092 113.03L100.957 119.334C103.956 117.64 106.712 115.682 109.197 113.495L104.414 108.066C102.297 109.927 99.964 111.593 97.4092 113.03Z" fill="#F77B8C"/>
<path d="M93.8555 106.726L97.4031 113.03C99.9579 111.593 102.291 109.92 104.408 108.066L99.6247 102.637C97.8821 104.171 95.9521 105.546 93.8555 106.726Z" fill="#F9919E"/>
<path d="M90.3087 100.43L93.8563 106.733C95.9599 105.546 97.8829 104.172 99.6255 102.644L94.8421 97.2153C93.4745 98.4233 91.9541 99.4994 90.3018 100.43H90.3087Z" fill="#FAA6B1"/>
<path d="M86.7598 94.1262L90.3074 100.43C91.9597 99.4997 93.4731 98.4167 94.8477 97.2156L90.0644 91.7866C89.0647 92.6614 87.9608 93.4528 86.7598 94.1332V94.1262Z" fill="#FBBCC4"/>
<path d="M83.2061 87.8219L86.7537 94.1257C87.9547 93.4453 89.0586 92.6608 90.0583 91.7791L85.2749 86.3501C84.6501 86.8986 83.9558 87.3915 83.2061 87.8219Z" fill="#FDD1D7"/>
<path d="M80.4982 80.9282C80.2483 81.1504 79.9637 81.3517 79.6582 81.5253L83.2058 87.829C83.9625 87.4056 84.6498 86.9126 85.2747 86.3572L80.4913 80.9282H80.4982Z" fill="#FEE7EA"/>
</g>
<defs>
<clipPath id="clip0_476_499">
<rect width="154.498" height="154.491" fill="white"/>
</clipPath>
</defs>
</svg>
