<svg width="17" height="11" viewBox="0 0 17 11" fill="none" xmlns="http://www.w3.org/2000/svg">
<path d="M14.5365 3.15584C13.4456 2.94503 12.3405 3.05681 11.3767 3.49744C11.4938 3.93204 11.5558 4.38287 11.5558 4.84368C11.5558 6.45128 10.815 7.94292 9.50684 9.0162C10.9048 9.10016 12.268 8.65558 13.268 7.65582C14.4435 6.48027 14.8549 4.8017 14.5365 3.15607V3.15584Z" fill="#01AAC1"/>
<path d="M14.9176 5.9668C14.6657 6.74625 14.2413 7.45473 13.6523 8.04332C12.6657 9.02963 11.3116 9.57601 9.83896 9.57601C9.77356 9.57601 9.7077 9.57393 9.6416 9.57091C10.717 10.2407 11.9837 10.5099 13.242 10.2268C14.8642 9.86196 16.1093 8.66345 16.7204 7.10269C16.187 6.60107 15.5741 6.21378 14.9178 5.9668H14.9176Z" fill="#01AAC1"/>
<path d="M7.60194 9.57601C6.12931 9.57601 4.77496 9.0294 3.78841 8.04309C3.19959 7.45427 2.77496 6.74601 2.52311 5.9668C1.8668 6.21378 1.25386 6.60107 0.720703 7.10269C1.33179 8.66322 2.57668 9.86196 4.19912 10.2268C5.45747 10.5099 6.72416 10.2409 7.7993 9.57091C7.7332 9.57369 7.66757 9.57578 7.60217 9.57578L7.60194 9.57601Z" fill="#01AAC1"/>
<path d="M5.89704 4.84339C5.89704 4.38444 5.95803 3.93523 6.07445 3.50225C5.10785 3.05768 3.99886 2.94428 2.90354 3.15578C2.58536 4.80141 2.99654 6.47975 4.17256 7.6553C5.17533 8.65785 6.54337 9.10265 7.94527 9.01499C6.63776 7.94194 5.89727 6.45076 5.89727 4.84339H5.89704Z" fill="#01AAC1"/>
<path d="M6.44141 4.84348C6.44141 6.50605 7.33774 7.98355 8.72642 8.92232C10.1151 7.98355 11.0114 6.50605 11.0114 4.84348C11.0114 3.18092 10.1151 1.70319 8.72642 0.764648C7.33774 1.70342 6.44141 3.18069 6.44141 4.84348Z" fill="#01AAC1"/>
</svg>
