<svg width="18" height="16" viewBox="0 0 18 16" fill="none" xmlns="http://www.w3.org/2000/svg">
<path d="M17.3173 2.15957L17.3156 2.18022V2.20095V2.22426V2.24756V2.27087V2.29418V2.31748V2.34079V2.36409V2.3874V2.4107V2.43401V2.45731V2.48061V2.50392V2.52722V2.55052V2.57383V2.59713V2.62043V2.64374V2.66704V2.69034V2.71364V2.73694V2.76024V2.78355V2.80685V2.83015V2.85345V2.87675V2.90005V2.92335V2.94665V2.96995V2.99325V3.01655V3.03984V3.06314V3.08644V3.10974V3.13304V3.15634V3.17963V3.20293V3.22623V3.24953V3.27282V3.29612V3.31942V3.34271V3.36601V3.3893V3.4126V3.43589V3.45919V3.48249V3.50578V3.52908V3.55237V3.57566V3.59896V3.62225V3.64555V3.66884V3.69213V3.71543V3.73872V3.76201V3.78531V3.8086V3.83189V3.85518V3.87848V3.90177V3.92506V3.94835V3.97164V3.99493V4.01822V4.04152V4.06481V4.0881V4.11139V4.13468V4.15797V4.18126V4.20455V4.22784V4.25113V4.27442V4.29771V4.321V4.34428V4.36757V4.39086V4.41415V4.43744V4.46073V4.48401V4.5073V4.53059V4.55388V4.57717V4.60045V4.62374V4.64703V4.67031V4.6936V4.71689V4.74017V4.76346V4.78675V4.81003V4.83332V4.8566V4.87989V4.90318V4.92646V4.94975V4.97303V4.99632V5.0196V5.04289V5.06617V5.08946V5.11274V5.13602V5.15931V5.18259V5.20588V5.22916V5.25244V5.27573V5.29901V5.3223V5.34558V5.36886V5.39214V5.41543V5.43871V5.46199V5.48528V5.50856V5.53184V5.55512V5.57841V5.60169V5.62497V5.64825V5.67153V5.69482V5.7181V5.74138V5.76466V5.78794V5.81122V5.8345V5.85778V5.88107V5.90435V5.92763V5.95091V5.97419V5.99747V6.02075V6.04403V6.06731V6.09059V6.11387V6.13715V6.16043V6.18371V6.20699V6.23027V6.25355V6.27683V6.30011V6.32339V6.34667V6.36995V6.39323V6.4165V6.43978V6.46306V6.48634V6.50962V6.5329V6.55618V6.57946V6.60274V6.62601V6.64929V6.67257V6.69585V6.71913V6.74241V6.76568V6.78896V6.81224V6.83552V6.8588V6.88207V6.90535V6.92863V6.95191V6.97518V6.99846V7.02174V7.04502V7.0683V7.09157V7.11485V7.13813V7.16141V7.18468V7.20796V7.23124V7.25451V7.27779V7.30107V7.32435V7.34762V7.3709V7.39418V7.41745V7.44073V7.46401V7.48728V7.51056V7.53384V7.55712V7.58039V7.60367V7.62695V7.65022V7.6735V7.69678V7.72005V7.74333V7.76661V7.78988V7.81316V7.83644V7.85971V7.88299V7.90627V7.92954V7.95282V7.97609V7.99937V8.02265V8.04592V8.0692V8.09248V8.11575V8.13903V8.16231V8.18558V8.20886V8.23214V8.25541V8.27869V8.30197V8.32524V8.34852V8.3718V8.39507V8.41835V8.44163V8.4649V8.48818V8.51146V8.53473V8.55801V8.58128V8.60456V8.62784V8.65111V8.67439V8.69767V8.72095V8.74422V8.7675V8.79078V8.81405V8.83733V8.86061V8.88388V8.90716V8.93044V8.95371V8.97699V9.00027V9.02355V9.04682V9.0701V9.09338V9.11665V9.13993V9.16321V9.18649V9.20976V9.23304V9.25632V9.2796V9.30287V9.32615V9.34943V9.37271V9.39598V9.41926V9.44254V9.46582V9.4891V9.51237V9.53565V9.55893V9.58221V9.60549V9.62877V9.65204V9.67532V9.6986V9.72188V9.74516V9.76844V9.79171V9.81499V9.83827V9.86155V9.88483V9.90811V9.93139V9.95467V9.97795V10.0012V10.0245V10.0478V10.0711V10.0943V10.1176V10.1409V10.1642V10.1875V10.2107V10.234V10.2573V10.2806V10.3039V10.3271V10.3504V10.3737V10.397V10.4203V10.4435V10.4668V10.4901V10.5134V10.5367V10.56V10.5832V10.6065V10.6298V10.6531V10.6764V10.6996V10.7229V10.7462V10.7695V10.7928V10.8161V10.8393V10.8626V10.8859V10.9092V10.9325V10.9558V10.979V11.0023V11.0256V11.0489V11.0722V11.0955V11.1187V11.142V11.1653V11.1886V11.2119V11.2352V11.2584V11.2817V11.305V11.3283V11.3516V11.3749V11.3982V11.4214V11.4447V11.468V11.4913V11.5146V11.5379V11.5612V11.5844V11.6077V11.631V11.6543V11.6776V11.7009V11.7242V11.7474V11.7707V11.794V11.8173V11.8406V11.8639V11.8872V11.9105V11.9338V11.957V11.9803V12.0036V12.0269V12.0502V12.0735V12.0968V12.1201V12.1434V12.1666V12.1899V12.2132V12.2365V12.2598V12.2831V12.3064V12.3297V12.353V12.3763V12.3996V12.4228V12.4461V12.4694V12.4927V12.516V12.5393V12.5626V12.5859V12.6092V12.6325V12.6558V12.6791V12.7024V12.7257V12.749V12.7722V12.7955V12.8188V12.8421V12.8654V12.8887V12.912V12.9353V12.9586V12.9819V13.0052V13.0285V13.0518V13.0751V13.0984V13.1217V13.145V13.1683V13.1916V13.2149V13.2382V13.2615V13.2848V13.3081V13.3314V13.3547V13.378V13.4013V13.4246V13.4479V13.4712V13.4945V13.5178V13.5411V13.5644V13.5877V13.611V13.6343V13.6576V13.6809V13.7042V13.7275V13.7508V13.7741V13.7974V13.8207V13.844V13.8673V13.8906V13.9139V13.9372V13.9605V13.9838V14.0071V14.0304V14.0537V14.0771V14.1004V14.1237V14.1318L17.3158 14.1398C17.3201 14.2707 17.3047 14.4015 17.2704 14.5278C17.2132 14.695 17.1156 14.8456 16.9862 14.9661C16.8542 15.0892 16.6932 15.177 16.5182 15.2215C16.3433 15.2659 16.1599 15.2655 15.9851 15.2204C15.8103 15.1753 15.6497 15.0869 15.5181 14.9633L15.5066 14.9525L15.4945 14.9425L10.9045 11.145L10.9045 11.145L10.9024 11.1432C10.8246 11.0796 10.7348 11.0123 10.6391 10.9407C10.5867 10.9015 10.5326 10.861 10.4778 10.8191L9.67412 10.2045V11.2163V11.2222V11.2281V11.2339V11.2398V11.2457V11.2516V11.2574V11.2633V11.2692V11.275V11.2809V11.2867V11.2926V11.2984V11.3043V11.3101V11.316V11.3218V11.3277V11.3335V11.3393V11.3452V11.351V11.3569V11.3627V11.3685V11.3743V11.3802V11.386V11.3918V11.3976V11.4035V11.4093V11.4151V11.4209V11.4267V11.4325V11.4383V11.4441V11.4499V11.4557V11.4615V11.4673V11.4731V11.4789V11.4847V11.4905V11.4963V11.5021V11.5079V11.5136V11.5194V11.5252V11.531V11.5368V11.5425V11.5483V11.5541V11.5599V11.5656V11.5714V11.5771V11.5829V11.5887V11.5944V11.6002V11.6059V11.6117V11.6174V11.6232V11.6289V11.6347V11.6404V11.6462V11.6519V11.6577V11.6634V11.6691V11.6749V11.6806V11.6863V11.6921V11.6978V11.7035V11.7092V11.715V11.7207V11.7264V11.7321V11.7378V11.7435V11.7493V11.755V11.7607V11.7664V11.7721V11.7778V11.7835V11.7892V11.7949V11.8006V11.8063V11.812V11.8177V11.8234V11.8291V11.8348V11.8404V11.8461V11.8518V11.8575V11.8632V11.8688V11.8745V11.8802V11.8859V11.8915V11.8972V11.9029V11.9086V11.9142V11.9199V11.9256V11.9312V11.9369V11.9425V11.9482V11.9538V11.9595V11.9652V11.9708V11.9765V11.9821V11.9878V11.9934V11.999V12.0047V12.0103V12.016V12.0216V12.0272V12.0329V12.0385V12.0441V12.0498V12.0554V12.061V12.0667V12.0723V12.0779V12.0835V12.0891V12.0948V12.1004V12.106V12.1116V12.1172V12.1228V12.1285V12.1341V12.1397V12.1453V12.1509V12.1565V12.1621V12.1677V12.1733V12.1789V12.1845V12.1901V12.1957V12.2013V12.2069V12.2125V12.218V12.2236V12.2292V12.2348V12.2404V12.246V12.2516V12.2571V12.2627V12.2683V12.2739V12.2794V12.285V12.2906V12.2962V12.3017V12.3073V12.3129V12.3184V12.324V12.3296V12.3351V12.3407V12.3463V12.3518V12.3574V12.3629V12.3685V12.374V12.3796V12.3851V12.3907V12.3962V12.4018V12.4073V12.4129V12.4184V12.424V12.4295V12.4351V12.4406V12.4461V12.4517V12.4572V12.4627V12.4683V12.4738V12.4793V12.4849V12.4904V12.4959V12.5015V12.507V12.5125V12.518V12.5236V12.5291V12.5346V12.5401V12.5456V12.5511V12.5567V12.5622V12.5677V12.5732V12.5787V12.5842V12.5897V12.5952V12.6008V12.6063V12.6118V12.6173V12.6228V12.6283V12.6338V12.6393V12.6448V12.6503V12.6558V12.6613V12.6668V12.6723V12.6778V12.6833V12.6887V12.6942V12.6997V12.7052V12.7107V12.7162V12.7217V12.7272V12.7326V12.7381V12.7436V12.7491V12.7546V12.76V12.7655V12.771V12.7765V12.7819V12.7874V12.7929V12.7984V12.8038V12.8093V12.8148V12.8203V12.8257V12.8312V12.8367V12.8421V12.8476V12.853V12.8585V12.864V12.8694V12.8749V12.8804V12.8858V12.8913V12.8967V12.9022V12.9076V12.9131V12.9185V12.924V12.9294V12.9349V12.9403V12.9458V12.9512V12.9567V12.9621V12.9676V12.973V12.9785V12.9839V12.9894V12.9948V13.0002V13.0057V13.0111V13.0166V13.022V13.0274V13.0329V13.0383V13.0438V13.0492V13.0546V13.0601V13.0655V13.0709V13.0764V13.0818V13.0872V13.0926V13.0981V13.1035V13.1089V13.1144V13.1198V13.1252V13.1306V13.1361V13.1415V13.1469V13.1523V13.1577V13.1632V13.1686V13.174V13.1794V13.1848V13.1903V13.1957V13.2011V13.2065V13.2119V13.2173V13.2227V13.2282V13.2336V13.239V13.2444V13.2498V13.2552V13.2606V13.266V13.2714V13.2768V13.2823V13.2877V13.2931V13.2985V13.3039V13.3093V13.3147V13.3201V13.3255V13.3309V13.3363V13.3417V13.3471V13.3525V13.3579V13.3633V13.3687V13.3741V13.3795V13.3849V13.3903V13.3957V13.4011V13.4065V13.4119V13.4173V13.4227V13.428V13.4334V13.4388V13.4442V13.4496V13.455V13.4604V13.4658V13.4712V13.4766V13.482V13.4873V13.4927V13.4981V13.5035V13.5089V13.5143V13.5197V13.5251V13.5304V13.5358V13.5412V13.5466V13.552V13.5574V13.5627V13.5681V13.5735V13.5789V13.5843V13.5897V13.595V13.6004V13.6058V13.6112V13.6166V13.6219V13.6273V13.6327V13.6381V13.6434V13.6488V13.6542V13.6596V13.665V13.6703V13.6757V13.6811V13.6865V13.6918V13.6972V13.7026V13.708V13.7133V13.7187V13.7241V13.7295V13.7348V13.7402V13.7456V13.751V13.7563V13.7617V13.7671V13.7724V13.7778V13.7832V13.7886V13.7939V13.7993V13.8047V13.81V13.8154V13.8208V13.8262V13.8315V13.8369V13.8423V13.8476V13.853V13.8584V13.8637V13.8691V13.8745V13.8799V13.8852V13.8906V13.896V13.9013V13.9067V13.9121V13.9174V13.9228V13.9282V13.9335V13.9389V13.9443V13.9496V13.955V13.9604V13.9657V13.9711V13.9765V13.9818V13.9872V13.9926V13.9979V14.0033V14.0087V14.014V14.0194V14.0248V14.0301V14.0355V14.0409V14.0462V14.0516H9.67402L9.67422 14.0617C9.67812 14.2547 9.64845 14.4469 9.58656 14.6297C9.52425 14.7846 9.42567 14.9223 9.29906 15.0313C9.16996 15.1424 9.01565 15.2202 8.84958 15.2579C8.68353 15.2957 8.51074 15.2922 8.34631 15.2478C8.18189 15.2034 8.03083 15.1195 7.9063 15.0033L7.88824 14.9865L7.86861 14.9715C7.41856 14.6279 6.98688 14.2618 6.54299 13.8854C6.33191 13.7063 6.11807 13.525 5.89817 13.3426L5.89809 13.3425C5.49993 13.0124 5.10173 12.6828 4.70363 12.3533C3.47417 11.3357 2.24573 10.3189 1.02267 9.28998L1.02254 9.28986C0.861832 9.15477 0.732025 8.98672 0.641906 8.79711C0.551786 8.60749 0.503453 8.40073 0.500178 8.19081C0.496904 7.9809 0.538767 7.77273 0.622932 7.58039C0.70578 7.39106 0.827713 7.22142 0.980686 7.08259L5.03701 3.75024L5.03755 3.7498C5.41564 3.43832 5.79126 3.12678 6.16624 2.81578C6.78145 2.30553 7.39493 1.79672 8.01476 1.29192L8.0148 1.29197L8.02119 1.28659C8.17634 1.15586 8.36623 1.07317 8.56762 1.04866C8.76902 1.02415 8.97319 1.05887 9.15517 1.14856C9.33714 1.23826 9.48904 1.37905 9.59226 1.55371C9.69548 1.72837 9.74557 1.92933 9.73638 2.132L9.73587 2.14332V2.15464V2.16028V2.16592V2.17156V2.17719V2.18283V2.18847V2.19411V2.19974V2.20538V2.21102V2.21666V2.22229V2.22793V2.23357V2.2392V2.24484V2.25048V2.25611V2.26175V2.26739V2.27302V2.27866V2.2843V2.28993V2.29557V2.30121V2.30684V2.31248V2.31812V2.32375V2.32939V2.33503V2.34066V2.3463V2.35193V2.35757V2.36321V2.36884V2.37448V2.38012V2.38575V2.39139V2.39703V2.40266V2.4083V2.41394V2.41957V2.42521V2.43085V2.43649V2.44212V2.44776V2.4534V2.45904V2.46467V2.47031V2.47595V2.48159V2.48722V2.49286V2.4985V2.50414V2.50978V2.51542V2.52106V2.52669V2.53233V2.53797V2.54361V2.54925V2.55489V2.56053V2.56617V2.57181V2.57745V2.58309V2.58873V2.59437V2.60001V2.60566V2.6113V2.61694V2.62258V2.62822V2.63386V2.63951V2.64515V2.65079V2.65644V2.66208V2.66772V2.67337V2.67901V2.68465V2.6903V2.69594V2.70159V2.70723V2.71288V2.71853V2.72417V2.72982V2.73546V2.74111V2.74676V2.75241V2.75805V2.7637V2.76935V2.775V2.78065V2.7863V2.79195V2.7976V2.80325V2.8089V2.81455V2.8202V2.82585V2.83151V2.83716V2.84281V2.84846V2.85412V2.85977V2.86543V2.87108V2.87673V2.88239V2.88805V2.8937V2.89936V2.90502V2.91067V2.91633V2.92199V2.92765V2.93331V2.93897V2.94463V2.95029V2.95595V2.96161V2.96727V2.97293V2.97859V2.98426V2.98992V2.99558V3.00125V3.00691V3.01258V3.01824V3.02391V3.02958V3.03524V3.04091V3.04658V3.05225V3.05792V3.06359V3.06926V3.07493V3.0806V3.08627V3.09194V3.09762V3.10329V3.10896V3.11464V3.12031V3.12599V3.13166V3.13734V3.14302V3.1487V3.15437V3.16005V3.16573V3.17141V3.17709V3.18278V3.18846V3.19414V3.19982V3.20551V3.21119V3.21688V3.22256V3.22825V3.23393V3.23962V3.24531V3.251V3.25669V3.26238V3.26807V3.27376V3.27945V3.28514V3.29084V3.29653V3.30222V3.30792V3.31362V3.31931V3.32501V3.33071V3.33641V3.34211V3.34781V3.35351V3.35921V3.36491V3.37061V3.37632V3.38202V3.38773V3.39343V3.39914V3.40485V3.41055V3.41626V3.42197V3.42768V3.43339V3.43911V3.44482V3.45053V3.45625V3.46196V3.46768V3.47339V3.47911V3.48483V3.49055V3.49627V3.50199V3.50771V3.51343V3.51915V3.52488V3.5306V3.53633V3.54205V3.54778V3.55351V3.55924V3.56497V3.5707V3.57643V3.58216V3.5879V3.59363V3.59936V3.6051V3.61084V3.61657V3.62231V3.62805V3.63379V3.63953V3.64528V3.65102V3.65676V3.66251V3.66825V3.674V3.67975V3.68549V3.69124V3.69699V3.70275V3.7085V3.71425V3.72001V3.72576V3.73152V3.73727V3.74303V3.74879V3.75455V3.76031V3.76607V3.77184V3.7776V3.78337V3.78913V3.7949V3.80067V3.80644V3.81221V3.81798V3.82375V3.82952V3.8353V3.84107V3.84685V3.85263V3.8584V3.86418V3.86996V3.87574V3.88153V3.88731V3.8931V3.89888V3.90467V3.91046V3.91625V3.92204V3.92783V3.93362V3.93941V3.94521V3.951V3.9568V3.9626V3.9684V3.9742V3.98V3.9858V3.9916V3.99741V4.00321V4.00902V4.01483V4.02064V4.02645V4.03226V4.03807V4.04389V4.0497V4.05552V4.06134V4.06716V4.07298V4.0788V4.08462V4.09044V4.09627V4.10209V4.10792V4.11375V4.11958V4.12541V4.13124V4.13708V4.14291V4.14875V4.15458V4.16042V4.16626V4.1721V4.17795V4.18379V4.18963V4.19548V4.20133V4.20718V4.21303V4.21888V4.22473V4.23058V4.23644V4.24229V4.24815V4.25401V4.25987V4.26573V4.2716V4.27746V4.28333V4.28919V4.29506V4.30093V4.3068V4.31267V4.31855V4.32442V4.3303V4.33618V4.34206V4.34794V4.35382V4.3597V4.36559V4.37147V4.37736V4.38325V4.38914V4.39503V4.40093V4.40682V4.41272V4.41861V4.42451V4.43041V4.43631V4.44222V4.44812V4.45403V4.45994V4.46585V4.47176V4.47767V4.48358V4.4895V4.49541V4.50133V4.50725V4.51317V4.51909V4.52502V4.53094V4.53687V4.5428V4.54873V4.55466V4.56059V4.56653V4.57246V4.5784V4.58434V4.59028V4.59622V4.60216V4.60811V4.61406V4.62001V4.62595V4.63191V4.63786V4.64381V4.64977V4.65573V4.66169V4.66765V4.67361V4.67957V4.68554V4.69151V4.69748V4.70345V4.70942V4.71539V4.72137V4.72735V4.73332V4.73931V4.74529V4.75127V4.75726V4.76324V4.76923V4.77522V4.78121V4.78721V4.7932V4.7992V4.8052V4.8112V4.8172V4.8232V4.82921V4.83522V4.84123V4.84724V4.85325V4.85926V4.86528V4.87129V4.87731V4.88333V4.88936V4.89538V4.90141V4.90744V4.91347V4.9195V4.92553V4.93156V4.9376V4.94364V4.94968V4.95572V4.96176V4.96781V4.97386V4.97991V4.98596V4.99201V4.99806V5.00412V5.01018V5.01624V5.0223V5.02836V5.03443V5.0405V5.04657V5.05264V5.05871V5.06478V5.07086V5.07694V5.08302V5.0891V5.09519V5.10127V5.10736V5.11345V6.14622L10.546 5.50565L10.7673 5.3307L10.7673 5.33081L10.7764 5.32331L15.5774 1.34051L15.5858 1.33351L15.5939 1.32616C15.7481 1.18638 15.9416 1.09751 16.1481 1.07162C16.3546 1.04573 16.5641 1.08408 16.748 1.18146L16.7559 1.18563L16.7639 1.18953C16.9433 1.27644 17.0922 1.41563 17.191 1.58878C17.2897 1.76192 17.3338 1.96091 17.3173 2.15957Z" stroke="#232323"/>
</svg>
