<svg width="12" height="13" viewBox="0 0 12 13" fill="none" xmlns="http://www.w3.org/2000/svg">
<path d="M11.5735 4.72363C11.5747 4.78584 11.5633 4.84766 11.54 4.90535C11.5167 4.96304 11.482 5.01541 11.4379 5.0593C11.3938 5.10318 11.3412 5.13768 11.2834 5.1607C11.2256 5.18373 11.1637 5.1948 11.1015 5.19325C10.8331 5.19325 10.6346 5.00854 10.6319 4.72677C10.6245 4.10061 10.6288 3.47445 10.628 2.84829V2.55947C10.5399 2.64165 10.4808 2.69331 10.4257 2.74849C9.34867 3.81818 8.27272 4.88957 7.19782 5.96265C7.04402 6.11606 6.87182 6.18102 6.66754 6.11919C6.58532 6.09543 6.51164 6.04859 6.45525 5.98421C6.39885 5.91984 6.36211 5.84064 6.34937 5.75601C6.31024 5.56464 6.39594 5.41867 6.52822 5.28639C7.39649 4.42256 8.26411 3.55767 9.13108 2.69175C9.39211 2.43189 9.65823 2.17673 9.92161 1.91922L9.88639 1.8707C9.189 1.8707 8.49201 1.8707 7.79462 1.8707C7.53516 1.8707 7.35279 1.72942 7.30779 1.50752C7.24673 1.20501 7.44632 0.933021 7.75784 0.931064C8.87971 0.92402 10.0008 0.92402 11.1211 0.931064C11.182 0.931243 11.2422 0.943633 11.2982 0.967499C11.3542 0.991365 11.4048 1.02622 11.4471 1.07001C11.4894 1.1138 11.5225 1.16563 11.5444 1.22242C11.5663 1.27922 11.5766 1.33984 11.5747 1.40068C11.5781 2.50742 11.5777 3.61507 11.5735 4.72363Z" fill="white"/>
<path d="M1.94942 11.1956C1.90442 11.2406 1.86254 11.2888 1.79875 11.358C1.88016 11.3635 1.93455 11.3706 1.98895 11.371C2.62763 11.371 3.26631 11.371 3.90656 11.371C4.23099 11.371 4.43293 11.5568 4.43019 11.8445C4.42745 12.1321 4.22199 12.3141 3.89795 12.3141C2.82252 12.3141 1.7471 12.3141 0.671668 12.3141C0.340586 12.3141 0.151956 12.1239 0.151565 11.7913C0.149999 10.7216 0.149999 9.65267 0.151565 8.58454C0.151565 8.26129 0.33589 8.05348 0.618835 8.05035C0.917044 8.04683 1.09746 8.24603 1.09863 8.58846C1.10137 9.20757 1.09863 9.82669 1.09863 10.4458V10.6337L1.17025 10.6728C1.6974 10.1327 2.22141 9.58914 2.75326 9.05299C3.33832 8.46127 3.93317 7.87425 4.52529 7.28722C4.75814 7.05554 5.05009 7.0395 5.24967 7.24261C5.44926 7.44572 5.43087 7.72162 5.18745 7.96465L1.94942 11.1956Z" fill="white"/>
</svg>
