<svg width="16" height="12" viewBox="0 0 16 12" class="fill-coal-600 dark:fill-lightGray" xmlns="http://www.w3.org/2000/svg">
<path d="M12.5919 9.70184L3.29085 0.401084L3.28886 0.398812C3.2385 0.348867 3.17881 0.30933 3.11316 0.282457C3.04753 0.255584 2.97725 0.241901 2.90633 0.242192C2.8354 0.242481 2.76524 0.256739 2.69981 0.284147C2.6344 0.311556 2.57502 0.351581 2.52509 0.401936C2.47514 0.452292 2.43561 0.511991 2.40873 0.577626C2.38186 0.643261 2.36817 0.713548 2.36846 0.78447C2.36905 0.927705 2.42652 1.06484 2.5282 1.16571L3.34254 1.98004C2.35498 2.6564 1.50493 3.51425 0.837625 4.50797C0.728654 4.66886 0.67041 4.8587 0.67041 5.05303C0.670409 5.24734 0.728654 5.4372 0.837625 5.59809C2.54099 8.1192 5.24132 9.59619 7.94164 9.57771C8.81633 9.58088 9.68518 9.43528 10.511 9.14712L11.8293 10.4653C11.9308 10.5636 12.0669 10.6181 12.2082 10.6172C12.3495 10.6162 12.4849 10.5598 12.5851 10.4602C12.6853 10.3605 12.7424 10.2255 12.7442 10.0842C12.7459 9.94288 12.6922 9.80651 12.5944 9.7044L12.5919 9.70184ZM7.94164 8.11181C7.43004 8.11162 6.92665 7.98321 6.47745 7.73834C6.02826 7.49345 5.64761 7.13989 5.37027 6.70998C5.09293 6.28006 4.92777 5.7875 4.88986 5.27729C4.85196 4.7671 4.94252 4.25553 5.15326 3.78935L6.00396 4.64004C5.93543 4.96292 5.94867 5.29782 6.04247 5.6143C6.13628 5.93076 6.30766 6.21879 6.54106 6.45219C6.77447 6.6856 7.06249 6.85699 7.37897 6.95078C7.69543 7.04458 8.03033 7.05781 8.35322 6.98931L9.20391 7.83998C8.80742 8.01976 8.37699 8.11245 7.94164 8.11181Z" />
<path d="M15.0454 4.50661C13.3421 1.98408 10.6418 0.507099 7.94145 0.525562C7.06678 0.522394 6.19793 0.668002 5.37207 0.95616L6.67863 2.26273C7.2456 2.00615 7.87728 1.92846 8.48952 2.04C9.10176 2.15155 9.66545 2.44702 10.1055 2.88707C10.5455 3.32711 10.841 3.89082 10.9526 4.50305C11.0641 5.11528 10.9864 5.74698 10.7298 6.31393L12.5403 8.12437C13.528 7.44813 14.3782 6.59025 15.0454 5.59646C15.1544 5.43559 15.2126 5.24579 15.2126 5.05153C15.2126 4.85728 15.1544 4.66747 15.0454 4.50661Z" />
<path d="M7.94283 3.07031C7.8045 3.07033 7.66657 3.0848 7.53125 3.11348L9.88052 5.46246C9.94178 5.17385 9.9378 4.8752 9.86885 4.58833C9.79992 4.30147 9.66777 4.03361 9.48206 3.80436C9.29636 3.5751 9.06178 3.39021 8.79548 3.26321C8.52917 3.13622 8.23787 3.07031 7.94283 3.07031Z" />
</svg>
