<svg width="18" height="10" viewBox="0 0 18 10" fill="none" xmlns="http://www.w3.org/2000/svg">
<path d="M14.807 2.49602C13.6844 2.28053 12.5471 2.39479 11.5552 2.84521C11.6757 3.28947 11.7395 3.75032 11.7395 4.22137C11.7395 5.86469 10.9772 7.38948 9.63086 8.48661C11.0695 8.57243 12.4724 8.11798 13.5015 7.096C14.7113 5.89432 15.1347 4.17846 14.807 2.49626V2.49602Z" fill="#01AAC1"/>
<path d="M15.2011 5.37109C14.9419 6.16786 14.5052 6.89209 13.899 7.49376C12.8837 8.50199 11.4901 9.06051 9.97459 9.06051C9.90729 9.06051 9.8395 9.05838 9.77148 9.0553C10.8782 9.73994 12.1818 10.0152 13.4768 9.72571C15.1462 9.35281 16.4276 8.12767 17.0565 6.53223C16.5076 6.01946 15.8768 5.62357 15.2014 5.37109H15.2011Z" fill="#01AAC1"/>
<path d="M7.67152 9.06051C6.156 9.06051 4.76219 8.50175 3.74691 7.49352C3.14094 6.89162 2.70394 6.16763 2.44475 5.37109C1.76933 5.62357 1.13854 6.01946 0.589844 6.53223C1.21873 8.12743 2.49988 9.35281 4.16958 9.72571C5.46458 10.0152 6.76817 9.74017 7.87463 9.0553C7.80661 9.05814 7.73907 9.06028 7.67176 9.06028L7.67152 9.06051Z" fill="#01AAC1"/>
<path d="M5.91792 4.22302C5.91792 3.75388 5.98069 3.29468 6.1005 2.85209C5.10574 2.39764 3.96445 2.28171 2.83723 2.49791C2.50978 4.18012 2.93293 5.89575 4.14321 7.09742C5.17519 8.12225 6.58308 8.57693 8.02581 8.48732C6.68022 7.39043 5.91816 5.86611 5.91816 4.22302H5.91792Z" fill="#01AAC1"/>
<path d="M6.47852 4.22221C6.47852 5.92172 7.40096 7.43205 8.83009 8.39168C10.2592 7.43205 11.1817 5.92172 11.1817 4.22221C11.1817 2.5227 10.2592 1.01213 8.83009 0.0527344C7.40096 1.01237 6.47852 2.52246 6.47852 4.22221Z" fill="#01AAC1"/>
</svg>
