<svg width="18" height="18" viewBox="0 0 18 18" fill="none" xmlns="http://www.w3.org/2000/svg">
<path d="M17.2118 17.212V10.9081C17.2118 7.81 16.5449 5.44336 12.9304 5.44336C11.1877 5.44336 10.0258 6.39002 9.55252 7.29364H9.50949V5.72305H6.08862V17.212H9.6601V11.5106C9.6601 10.0045 9.93979 8.56302 11.7901 8.56302C13.6188 8.56302 13.6404 10.2627 13.6404 11.5966V17.1905H17.2118V17.212Z" fill="white"/>
<path d="M0.279541 5.72314H3.85101V17.2121H0.279541V5.72314Z" fill="white"/>
<path d="M2.06543 0C0.925141 0 0 0.925141 0 2.06543C0 3.20572 0.925141 4.15237 2.06543 4.15237C3.20572 4.15237 4.13086 3.20572 4.13086 2.06543C4.13086 0.925141 3.20572 0 2.06543 0Z" fill="white"/>
</svg>
