<svg width="18" height="14" viewBox="0 0 18 14" fill="none" xmlns="http://www.w3.org/2000/svg">
<path d="M10.7931 11.6358C10.7849 11.6106 10.7699 11.5882 10.7497 11.571C10.7295 11.5539 10.705 11.5427 10.6788 11.5387L9.7656 11.4058L9.35603 10.5783C9.34303 10.5557 9.3243 10.5369 9.30172 10.5239C9.27914 10.5108 9.25351 10.5039 9.22742 10.5039C9.20133 10.5039 9.1757 10.5108 9.15312 10.5239C9.13054 10.5369 9.1118 10.5557 9.0988 10.5783L8.69153 11.4058L7.77836 11.5387C7.75203 11.5425 7.7273 11.5537 7.70696 11.5709C7.68662 11.588 7.67148 11.6105 7.66325 11.6359C7.65502 11.6612 7.65403 11.6883 7.66038 11.7141C7.66673 11.74 7.68017 11.7635 7.69919 11.7822L8.35999 12.4264L8.20393 13.3358C8.19945 13.3621 8.2024 13.3891 8.21244 13.4138C8.22248 13.4384 8.23923 13.4598 8.26078 13.4755C8.28233 13.4911 8.30783 13.5005 8.3344 13.5024C8.36097 13.5043 8.38755 13.4988 8.41115 13.4865L9.22799 13.0572L10.0448 13.4859C10.0653 13.4966 10.088 13.5022 10.1111 13.5022C10.1319 13.5022 10.1525 13.4976 10.1714 13.4889C10.1902 13.4801 10.207 13.4673 10.2204 13.4514C10.2338 13.4356 10.2436 13.4169 10.249 13.3969C10.2545 13.3768 10.2555 13.3558 10.252 13.3353L10.096 12.4258L10.7568 11.7816C10.7758 11.7631 10.7892 11.7396 10.7956 11.7139C10.802 11.6881 10.8012 11.6611 10.7931 11.6358Z" fill="black"/>
<path d="M7.35558 11.6358C7.34741 11.6106 7.33239 11.5882 7.3122 11.571C7.29201 11.5539 7.26745 11.5427 7.24126 11.5387L6.3281 11.4058L5.91968 10.5783C5.90668 10.5557 5.88794 10.5369 5.86536 10.5239C5.84278 10.5108 5.81715 10.5039 5.79106 10.5039C5.76497 10.5039 5.73934 10.5108 5.71676 10.5239C5.69418 10.5369 5.67545 10.5557 5.66245 10.5783L5.25403 11.4058L4.34086 11.5387C4.31453 11.5425 4.2898 11.5537 4.26946 11.5709C4.24912 11.588 4.23398 11.6105 4.22575 11.6359C4.21752 11.6612 4.21653 11.6883 4.22288 11.7141C4.22923 11.74 4.24267 11.7635 4.26169 11.7822L4.92249 12.4264L4.76643 13.3358C4.76195 13.3621 4.7649 13.3891 4.77494 13.4138C4.78498 13.4384 4.80173 13.4598 4.82328 13.4755C4.84483 13.4911 4.87032 13.5005 4.8969 13.5024C4.92347 13.5043 4.95005 13.4988 4.97365 13.4865L5.79049 13.0572L6.60733 13.4859C6.6278 13.4966 6.65055 13.5022 6.67364 13.5022C6.69444 13.5022 6.71499 13.4976 6.73386 13.4889C6.75273 13.4801 6.76945 13.4673 6.78287 13.4514C6.79629 13.4356 6.80608 13.4169 6.81155 13.3969C6.81702 13.3768 6.81804 13.3558 6.81455 13.3353L6.65849 12.4258L7.31929 11.7816C7.33827 11.7631 7.35172 11.7396 7.35813 11.7139C7.36454 11.6881 7.36366 11.6611 7.35558 11.6358Z" fill="black"/>
<path d="M14.2345 11.6358C14.2263 11.6106 14.2113 11.5882 14.1911 11.571C14.1709 11.5539 14.1464 11.5427 14.1202 11.5387L13.207 11.4058L12.7986 10.5783C12.7856 10.5557 12.7668 10.5369 12.7443 10.5239C12.7217 10.5108 12.6961 10.5039 12.67 10.5039C12.6439 10.5039 12.6182 10.5108 12.5957 10.5239C12.5731 10.5369 12.5544 10.5557 12.5414 10.5783L12.1329 11.4058L11.2198 11.5387C11.1934 11.5425 11.1687 11.5537 11.1484 11.5709C11.128 11.588 11.1129 11.6105 11.1047 11.6359C11.0964 11.6612 11.0954 11.6883 11.1018 11.7141C11.1081 11.74 11.1216 11.7635 11.1406 11.7822L11.8014 12.4264L11.6453 13.3358C11.6409 13.3621 11.6438 13.3891 11.6538 13.4138C11.6639 13.4384 11.6806 13.4598 11.7022 13.4755C11.7237 13.4911 11.7492 13.5005 11.7758 13.5024C11.8024 13.5043 11.829 13.4988 11.8526 13.4865L12.6694 13.0572L13.486 13.4859C13.5065 13.4966 13.5294 13.5021 13.5525 13.5022C13.5733 13.5022 13.5939 13.4976 13.6128 13.4889C13.6316 13.4801 13.6484 13.4673 13.6618 13.4514C13.6752 13.4356 13.685 13.4169 13.6905 13.3969C13.6959 13.3768 13.6969 13.3558 13.6935 13.3353L13.5374 12.4258L14.1982 11.7816C14.2172 11.7631 14.2306 11.7396 14.237 11.7139C14.2434 11.6881 14.2426 11.6611 14.2345 11.6358Z" fill="black"/>
<path d="M9.23144 0.603516C4.59468 0.603516 0.835938 4.35897 0.835938 9.00231C0.835938 9.147 0.954323 9.26539 1.09902 9.26539H5.92322C6.06792 9.26539 6.1863 9.147 6.1863 9.00231C6.1863 7.38437 7.43593 6.09857 8.97165 5.96703V7.85791C8.44878 7.97959 8.05745 8.44326 8.05745 9.00231C8.05745 9.65014 8.58361 10.1763 9.23144 10.1763C9.87927 10.1763 10.4054 9.65014 10.4054 9.00231C10.4054 8.44326 10.0141 7.97959 9.49123 7.85791V5.96375C11.027 6.09529 12.2766 7.38437 12.2766 8.99902C12.2766 9.14371 12.395 9.2621 12.5397 9.2621H17.3639C17.5086 9.2621 17.6269 9.14371 17.6269 8.99902C17.6335 4.38198 13.9044 0.610093 9.23144 0.603516ZM11.5696 6.29588C10.9875 5.79275 10.264 5.49678 9.49781 5.44088V2.9219C9.49781 2.7772 9.37942 2.65882 9.23473 2.65882C9.09004 2.65882 8.97165 2.7772 8.97165 2.9219V5.44088C8.20214 5.49678 7.48197 5.79275 6.8999 6.29588L3.85806 3.25075C5.31814 1.88274 7.21889 1.12967 9.23473 1.12967C11.2539 1.13296 13.1513 1.88602 14.6114 3.25403L11.5696 6.29588Z" fill="black"/>
</svg>
