<svg width="10" height="10" viewBox="0 0 10 10" fill="none" xmlns="http://www.w3.org/2000/svg">
<path d="M4.78099 0C4.62628 0 4.50085 0.125427 4.50085 0.280137V0.877763C4.50085 1.03247 4.62628 1.1579 4.78099 1.1579C4.9357 1.1579 5.06113 1.03247 5.06113 0.877763V0.280137C5.06113 0.125427 4.9357 0 4.78099 0Z" fill="white"/>
<path d="M4.78099 8.40411C4.62628 8.40411 4.50085 8.52954 4.50085 8.68425V9.28188C4.50085 9.43659 4.62628 9.56201 4.78099 9.56201C4.9357 9.56201 5.06113 9.43659 5.06113 9.28188V8.68425C5.06113 8.52954 4.9357 8.40411 4.78099 8.40411Z" fill="white"/>
<path d="M2.23224 1.83618L1.80964 1.41358C1.70024 1.3042 1.52286 1.3042 1.41347 1.41358C1.30407 1.52298 1.30407 1.70037 1.41347 1.80975L1.83607 2.23235C1.89075 2.28705 1.96245 2.31441 2.03414 2.31441C2.10584 2.31441 2.17754 2.28705 2.23224 2.23235C2.34164 2.12294 2.34164 1.94556 2.23224 1.83618Z" fill="white"/>
<path d="M8.1485 7.75238L7.7259 7.32978C7.6165 7.2204 7.43912 7.2204 7.32973 7.32978C7.22033 7.43918 7.22033 7.61657 7.32973 7.72595L7.75233 8.14855C7.80701 8.20325 7.87871 8.23061 7.9504 8.23061C8.0221 8.23061 8.0938 8.20325 8.1485 8.14855C8.2579 8.03914 8.2579 7.86176 8.1485 7.75238Z" fill="white"/>
<path d="M0.877763 4.50079H0.280137C0.125427 4.50079 0 4.62622 0 4.78093C0 4.93564 0.125427 5.06107 0.280137 5.06107H0.877763C1.03247 5.06107 1.1579 4.93564 1.1579 4.78093C1.1579 4.62622 1.03247 4.50079 0.877763 4.50079Z" fill="white"/>
<path d="M9.28194 4.50079H8.68431C8.5296 4.50079 8.40417 4.62622 8.40417 4.78093C8.40417 4.93564 8.5296 5.06107 8.68431 5.06107H9.28194C9.43665 5.06107 9.56207 4.93564 9.56207 4.78093C9.56207 4.62622 9.43665 4.50079 9.28194 4.50079Z" fill="white"/>
<path d="M2.23224 7.32978C2.12284 7.2204 1.94545 7.2204 1.83607 7.32978L1.41347 7.75238C1.30407 7.86178 1.30407 8.03916 1.41347 8.14855C1.46816 8.20325 1.53985 8.23061 1.61155 8.23061C1.68324 8.23061 1.75494 8.20325 1.80962 8.14856L2.23224 7.72595C2.34164 7.61655 2.34164 7.43916 2.23224 7.32978Z" fill="white"/>
<path d="M8.1485 1.41358C8.0391 1.3042 7.86171 1.3042 7.75233 1.41358L7.32973 1.83616C7.22033 1.94556 7.22033 2.12294 7.32973 2.23233C7.38442 2.28703 7.45611 2.31439 7.52781 2.31439C7.59951 2.31439 7.6712 2.28703 7.7259 2.23235L8.1485 1.80975C8.2579 1.70035 8.2579 1.52297 8.1485 1.41358Z" fill="white"/>
<path d="M4.78098 1.81158C3.14361 1.81158 1.81152 3.14367 1.81152 4.78104C1.81152 6.4184 3.14361 7.75049 4.78098 7.75049C6.41834 7.75049 7.75043 6.4184 7.75043 4.78104C7.75043 3.14367 6.41834 1.81158 4.78098 1.81158ZM5.06111 7.17384V2.38824C6.25803 2.52748 7.19016 3.54737 7.19016 4.78104C7.19016 6.0147 6.25803 7.03459 5.06111 7.17384Z" fill="white"/>
</svg>
