<svg width="27" height="27" viewBox="0 0 27 27" fill="none" xmlns="http://www.w3.org/2000/svg">
<path d="M13.56 0.463379C6.41792 0.463379 0.626953 6.25592 0.626953 13.3999C0.626953 20.544 6.41792 26.3376 13.56 26.3376C20.7021 26.3376 26.4941 20.544 26.4941 13.3999C26.4941 6.25592 20.7021 0.463379 13.56 0.463379ZM16.2524 20.5133C15.5867 20.7761 15.0567 20.9755 14.6593 21.1135C14.2629 21.2515 13.802 21.3205 13.2775 21.3205C12.4717 21.3205 11.8443 21.1233 11.3976 20.7301C10.9508 20.337 10.7286 19.8386 10.7286 19.233C10.7286 18.9975 10.745 18.7566 10.7778 18.5113C10.8118 18.2659 10.8654 17.9899 10.9388 17.68L11.772 14.7361C11.8454 14.4535 11.9089 14.1852 11.9592 13.9355C12.0096 13.6836 12.0337 13.4525 12.0337 13.2422C12.0337 12.8677 11.956 12.6048 11.8016 12.457C11.645 12.3091 11.3505 12.2368 10.9114 12.2368C10.6968 12.2368 10.4756 12.2686 10.249 12.3354C10.0245 12.4044 9.82965 12.4668 9.66979 12.5282L9.88987 11.6213C10.4351 11.399 10.9574 11.2084 11.4556 11.0507C11.9538 10.8908 12.4246 10.812 12.868 10.812C13.6684 10.812 14.2859 11.0069 14.7206 11.3924C15.1531 11.779 15.371 12.2817 15.371 12.8994C15.371 13.0276 15.3556 13.2532 15.3261 13.5752C15.2965 13.8983 15.2407 14.1929 15.1597 14.4634L14.3308 17.3985C14.2629 17.634 14.2027 17.9034 14.148 18.2046C14.0943 18.5058 14.068 18.7358 14.068 18.8902C14.068 19.2801 14.1545 19.5462 14.3297 19.6875C14.5027 19.8288 14.806 19.9 15.2352 19.9C15.4378 19.9 15.6644 19.8638 15.9206 19.7937C16.1746 19.7236 16.3586 19.6612 16.4746 19.6076L16.2524 20.5133ZM16.1057 8.59966C15.7192 8.95888 15.2538 9.1385 14.7097 9.1385C14.1666 9.1385 13.698 8.95888 13.3082 8.59966C12.9206 8.24043 12.7246 7.80344 12.7246 7.29308C12.7246 6.78381 12.9217 6.34572 13.3082 5.98321C13.698 5.6196 14.1666 5.43889 14.7097 5.43889C15.2538 5.43889 15.7203 5.6196 16.1057 5.98321C16.4922 6.34572 16.686 6.78381 16.686 7.29308C16.686 7.80454 16.4922 8.24043 16.1057 8.59966Z" fill="white"/>
</svg>
