<svg width="22" height="18" viewBox="0 0 22 18" fill="none" xmlns="http://www.w3.org/2000/svg">
<path d="M21.7845 4.95732C21.7425 4.88546 20.876 3.83951 20.7759 3.72899C20.6818 3.61217 19.7788 2.59943 19.714 2.5469C19.6559 2.50053 19.5852 2.47272 19.5111 2.4671C19.437 2.46148 19.3629 2.4783 19.2984 2.51538C19.1853 2.58164 19.0789 2.65876 18.9807 2.74567C18.8816 2.83188 18.791 2.92743 18.7101 3.031C18.6647 3.09059 18.6379 3.16224 18.6331 3.23699C18.6282 3.31174 18.6455 3.38626 18.6828 3.45123C18.7021 3.484 18.8929 3.71765 19.103 3.97357L19.1871 4.06938L18.1458 4.76653C17.1902 3.90171 15.9467 3.33104 14.5205 3.17724L14.7537 2.0006H15.0958C15.5546 1.99178 15.9719 1.98127 16.0245 1.97329C16.1255 1.959 16.2211 1.91888 16.3021 1.85683C16.383 1.79477 16.4466 1.71287 16.4867 1.61904C16.5418 1.46697 16.5807 1.30948 16.6027 1.14923C16.6259 0.9936 16.6312 0.835834 16.6187 0.678992C16.6068 0.586898 16.5641 0.501544 16.4975 0.436889C16.4308 0.372233 16.3442 0.332103 16.2518 0.323061C16.1409 0.305411 14.2708 0.275995 14.0607 0.281038C13.8544 0.275155 11.9739 0.304571 11.8583 0.323061C11.7574 0.337508 11.6618 0.377682 11.5809 0.439721C11.4999 0.50176 11.4363 0.583578 11.3961 0.677311C11.3408 0.829486 11.3019 0.987122 11.2801 1.14754C11.257 1.30304 11.2515 1.46063 11.2637 1.61736C11.2757 1.70844 11.3179 1.79287 11.3836 1.85711C11.4493 1.92134 11.5346 1.96166 11.6259 1.97161C11.676 1.97959 12.0903 1.9901 12.5467 1.99892H13.1207L12.9009 3.1079C12.896 3.13221 12.8924 3.15676 12.89 3.18144C11.7019 3.31816 10.5569 3.7073 9.53154 4.32277C9.21725 4.50977 8.85845 4.60877 8.49274 4.60937H6.32311H6.31765H6.31512H2.24271C2.03262 4.60937 1.83112 4.69274 1.68244 4.84118C1.53377 4.98961 1.45008 5.19099 1.44974 5.40107V5.40948C1.44986 5.61971 1.53345 5.8213 1.68215 5.96992C1.83085 6.11854 2.03248 6.20203 2.24271 6.20203H5.76547C5.96521 6.21657 6.15205 6.30614 6.28846 6.45277C6.42487 6.59939 6.50076 6.7922 6.50086 6.99247V7.00466C6.50086 7.21497 6.41732 7.41666 6.26861 7.56537C6.1199 7.71408 5.91821 7.79762 5.7079 7.79762H3.90092C3.69073 7.79762 3.48914 7.88113 3.34051 8.02976C3.19188 8.17839 3.10838 8.37998 3.10838 8.59017V8.59816C3.10838 8.70223 3.12888 8.80529 3.16871 8.90145C3.20854 8.99761 3.26691 9.08498 3.34051 9.15857C3.4141 9.23217 3.50147 9.29054 3.59763 9.33037C3.69379 9.3702 3.79685 9.3907 3.90092 9.3907H4.50899C4.61311 9.3907 4.7162 9.41122 4.81238 9.45107C4.90857 9.49093 4.99596 9.54934 5.06956 9.62298C5.14316 9.69662 5.20153 9.78404 5.24133 9.88025C5.28113 9.97645 5.30159 10.0796 5.30154 10.1837V10.1917C5.30098 10.4015 5.21724 10.6025 5.06867 10.7507C4.92009 10.8989 4.71882 10.9821 4.50899 10.9821H1.1123C1.00817 10.982 0.905044 11.0024 0.808814 11.0422C0.712584 11.082 0.625143 11.1403 0.551493 11.214C0.477843 11.2876 0.419429 11.375 0.379593 11.4712C0.339757 11.5674 0.319281 11.6705 0.319336 11.7746V11.7826C0.319281 11.8867 0.33974 11.9898 0.379544 12.0861C0.419349 12.1823 0.477719 12.2697 0.551319 12.3433C0.624919 12.417 0.712308 12.4754 0.808491 12.5152C0.904675 12.5551 1.00777 12.5756 1.11188 12.5756H4.59976C4.80996 12.5756 5.01154 12.6591 5.16018 12.8077C5.30881 12.9564 5.39231 13.1579 5.39231 13.3681V13.3761C5.39231 13.5863 5.30881 13.7879 5.16018 13.9365C5.01154 14.0852 4.80996 14.1687 4.59976 14.1687H3.30883C3.20471 14.1687 3.10162 14.1892 3.00543 14.229C2.90925 14.2689 2.82186 14.3273 2.74826 14.401C2.67466 14.4746 2.61629 14.562 2.57649 14.6582C2.53668 14.7544 2.51622 14.8575 2.51628 14.9616V14.9696C2.51622 15.0737 2.53669 15.1768 2.5765 15.273C2.61631 15.3692 2.67468 15.4566 2.74829 15.5302C2.82189 15.6038 2.90928 15.6621 3.00547 15.702C3.10165 15.7418 3.20473 15.7622 3.30883 15.7622H5.80329C6.3148 15.7628 6.80728 15.9562 7.18247 16.3038C8.31456 17.3502 9.86099 17.978 11.6423 17.978C15.7412 17.978 19.5312 14.6553 20.107 10.5564C20.349 8.83558 19.9855 7.25175 19.1795 5.99317L20.2301 5.28887L20.2986 5.36914C20.52 5.61539 20.7226 5.83769 20.752 5.86164C20.8102 5.90786 20.8809 5.93556 20.955 5.94118C21.0291 5.9468 21.1031 5.93007 21.1676 5.89316C21.2808 5.82687 21.3872 5.74959 21.4853 5.66246C21.5845 5.57648 21.6752 5.48106 21.7559 5.37754C21.8015 5.31808 21.8285 5.24649 21.8336 5.17174C21.8387 5.09699 21.8216 5.0224 21.7845 4.95732ZM18.5256 10.3362C18.4079 11.1552 18.137 11.9447 17.7272 12.6634C17.313 13.3958 16.7774 14.0526 16.1434 14.6057C15.5157 15.1594 14.798 15.6017 14.0212 15.9135C13.2654 16.2201 12.458 16.3794 11.6423 16.3828C10.143 16.3828 8.82388 15.8151 7.92753 14.786C7.01438 13.7354 6.62987 12.3134 6.84545 10.7821C6.96331 9.96313 7.23417 9.17367 7.64388 8.45486C8.05802 7.7213 8.59372 7.0634 9.22813 6.50921C9.85578 5.9556 10.5733 5.51319 11.3499 5.20105C12.1057 4.89442 12.9131 4.73509 13.7288 4.73165C15.2281 4.73165 16.5472 5.29938 17.4436 6.33062C18.3567 7.38286 18.7408 8.80281 18.5256 10.3341V10.3362Z" fill="#01AAC1"/>
<path d="M15.5186 9.47147H13.77L14.3394 7.12157C14.3506 7.07581 14.3512 7.02812 14.3412 6.9821C14.3312 6.93608 14.3109 6.89292 14.2818 6.85589C14.2527 6.81886 14.2156 6.78893 14.1732 6.76834C14.1309 6.74776 14.0844 6.73706 14.0373 6.73706H12.1022C12.0324 6.73706 11.9646 6.76051 11.9097 6.80365C11.8549 6.84678 11.8161 6.90709 11.7996 6.97491L10.8671 10.8288C10.856 10.8746 10.8555 10.9223 10.8656 10.9683C10.8756 11.0143 10.8959 11.0575 10.9251 11.0945C10.9542 11.1315 10.9913 11.1614 11.0337 11.182C11.0761 11.2026 11.1226 11.2133 11.1697 11.2133H12.8506L12.1606 14.0603C12.1482 14.1117 12.1476 14.1651 12.1588 14.2167C12.1701 14.2683 12.1929 14.3167 12.2255 14.3582C12.2582 14.3997 12.2998 14.4332 12.3473 14.4563C12.3948 14.4794 12.4469 14.4914 12.4997 14.4915H12.719C12.7775 14.4917 12.835 14.4772 12.8864 14.4494C12.9378 14.4216 12.9814 14.3813 13.0132 14.3322L15.8127 10.0123C15.8474 9.95948 15.8671 9.89824 15.8697 9.83511C15.8723 9.77198 15.8578 9.70933 15.8276 9.65382C15.7974 9.59832 15.7527 9.55204 15.6983 9.51993C15.6439 9.48782 15.5818 9.47107 15.5186 9.47147Z" fill="#01AAC1"/>
<path d="M1.78042 7.79541H1.78C1.34113 7.79541 0.985352 8.15119 0.985352 8.59006V8.59048C0.985352 9.02935 1.34113 9.38513 1.78 9.38513H1.78042C2.21929 9.38513 2.57507 9.02935 2.57507 8.59048V8.59006C2.57507 8.15119 2.21929 7.79541 1.78042 7.79541Z" fill="#01AAC1"/>
</svg>
