<svg width="10" height="18" viewBox="0 0 10 18" fill="none" xmlns="http://www.w3.org/2000/svg">
<path d="M2.60057 9.73722C2.53288 9.73722 1.11282 9.73765 0.457878 9.737C0.120704 9.73679 0.000408186 9.61563 0.000408186 9.2763C-2.29833e-05 8.40469 -0.000238568 7.53308 0.000408186 6.66148C0.00062377 6.32646 0.127819 6.19862 0.460681 6.1984C1.11563 6.19797 2.52792 6.19818 2.60057 6.19818C2.60057 6.13847 2.60036 4.8801 2.60057 4.30061C2.601 3.44388 2.75385 2.6238 3.18912 1.87291C3.63473 1.10436 4.28321 0.577899 5.11429 0.273494C5.64656 0.0783901 6.19911 0.000564195 6.76394 0.000133026C7.47062 -0.000298143 8.17731 0.000348604 8.88421 0.00164211C9.18797 0.00207328 9.32271 0.136382 9.32336 0.442297C9.32465 1.26216 9.32465 2.08203 9.32336 2.90168C9.32293 3.21083 9.19379 3.33501 8.88313 3.33846C8.30386 3.34471 7.72415 3.34083 7.14552 3.36411C6.56107 3.36411 6.25365 3.64955 6.25365 4.25448C6.23964 4.89433 6.24783 5.53483 6.24783 6.19797C6.30259 6.19797 7.96582 6.19775 8.74322 6.19797C9.09635 6.19797 9.21707 6.31934 9.21707 6.67441C9.21707 7.54128 9.21686 8.40836 9.21621 9.27522C9.216 9.62511 9.1026 9.73679 8.74731 9.737C7.96992 9.73743 6.31315 9.73722 6.24072 9.73722V16.7534C6.24072 17.1275 6.12301 17.2467 5.75393 17.2467C4.85408 17.2467 3.95401 17.2469 3.05416 17.2467C2.72798 17.2467 2.60079 17.1199 2.60079 16.7937C2.60057 14.5087 2.60057 9.81742 2.60057 9.73722Z" fill="#3D6AD6"/>
</svg>
