<svg width="19" height="16" viewBox="0 0 19 16" fill="none" xmlns="http://www.w3.org/2000/svg">
<path d="M17.1553 9.30849L17.1552 9.30836L17.1453 9.31673C16.0527 10.2388 14.9521 11.1503 13.8511 12.0622C13.3271 12.4961 12.8031 12.9301 12.2798 13.3653C11.9544 13.6227 11.6284 13.8893 11.3072 14.152L11.2812 14.1732C10.9488 14.4451 10.6217 14.7124 10.2992 14.9663L10.2827 14.9793L10.2674 14.9936C10.1429 15.1097 9.99185 15.1937 9.82743 15.238C9.66301 15.2824 9.49022 15.2859 9.32414 15.2481L9.21333 15.7357L9.32414 15.2481C9.15807 15.2104 9.00377 15.1326 8.87468 15.0215C8.74751 14.9121 8.64861 14.7736 8.58634 14.6179C8.52323 14.4377 8.49375 14.2475 8.4994 14.0566L8.49962 14.0492V14.0418V14.0365V14.0311V14.0257V14.0204V14.015V14.0096V14.0043V13.9989V13.9935V13.9882V13.9828V13.9774V13.9721V13.9667V13.9613V13.956V13.9506V13.9452V13.9399V13.9345V13.9291V13.9238V13.9184V13.913V13.9077V13.9023V13.8969V13.8916V13.8862V13.8808V13.8755V13.8701V13.8647V13.8594V13.854V13.8486V13.8432V13.8379V13.8325V13.8271V13.8218V13.8164V13.811V13.8057V13.8003V13.7949V13.7895V13.7842V13.7788V13.7734V13.7681V13.7627V13.7573V13.7519V13.7466V13.7412V13.7358V13.7304V13.7251V13.7197V13.7143V13.7089V13.7036V13.6982V13.6928V13.6874V13.6821V13.6767V13.6713V13.6659V13.6606V13.6552V13.6498V13.6444V13.6391V13.6337V13.6283V13.6229V13.6175V13.6122V13.6068V13.6014V13.596V13.5906V13.5853V13.5799V13.5745V13.5691V13.5637V13.5584V13.553V13.5476V13.5422V13.5368V13.5314V13.5261V13.5207V13.5153V13.5099V13.5045V13.4991V13.4937V13.4883V13.483V13.4776V13.4722V13.4668V13.4614V13.456V13.4506V13.4452V13.4398V13.4345V13.4291V13.4237V13.4183V13.4129V13.4075V13.4021V13.3967V13.3913V13.3859V13.3805V13.3751V13.3697V13.3643V13.3589V13.3535V13.3481V13.3427V13.3373V13.3319V13.3265V13.3211V13.3157V13.3103V13.3049V13.2995V13.2941V13.2887V13.2833V13.2779V13.2725V13.2671V13.2617V13.2563V13.2508V13.2454V13.24V13.2346V13.2292V13.2238V13.2184V13.213V13.2076V13.2021V13.1967V13.1913V13.1859V13.1805V13.1751V13.1696V13.1642V13.1588V13.1534V13.148V13.1425V13.1371V13.1317V13.1263V13.1209V13.1154V13.11V13.1046V13.0992V13.0937V13.0883V13.0829V13.0774V13.072V13.0666V13.0612V13.0557V13.0503V13.0449V13.0394V13.034V13.0285V13.0231V13.0177V13.0122V13.0068V13.0014V12.9959V12.9905V12.985V12.9796V12.9742V12.9687V12.9633V12.9578V12.9524V12.9469V12.9415V12.936V12.9306V12.9251V12.9197V12.9142V12.9088V12.9033V12.8979V12.8924V12.887V12.8815V12.876V12.8706V12.8651V12.8597V12.8542V12.8487V12.8433V12.8378V12.8323V12.8269V12.8214V12.8159V12.8105V12.805V12.7995V12.7941V12.7886V12.7831V12.7777V12.7722V12.7667V12.7612V12.7557V12.7503V12.7448V12.7393V12.7338V12.7283V12.7229V12.7174V12.7119V12.7064V12.7009V12.6954V12.6899V12.6845V12.679V12.6735V12.668V12.6625V12.657V12.6515V12.646V12.6405V12.635V12.6295V12.624V12.6185V12.613V12.6075V12.602V12.5965V12.591V12.5855V12.58V12.5745V12.5689V12.5634V12.5579V12.5524V12.5469V12.5414V12.5359V12.5303V12.5248V12.5193V12.5138V12.5083V12.5027V12.4972V12.4917V12.4862V12.4806V12.4751V12.4696V12.464V12.4585V12.453V12.4474V12.4419V12.4364V12.4308V12.4253V12.4197V12.4142V12.4086V12.4031V12.3976V12.392V12.3865V12.3809V12.3754V12.3698V12.3643V12.3587V12.3531V12.3476V12.342V12.3365V12.3309V12.3254V12.3198V12.3142V12.3087V12.3031V12.2975V12.292V12.2864V12.2808V12.2752V12.2697V12.2641V12.2585V12.2529V12.2474V12.2418V12.2362V12.2306V12.225V12.2194V12.2139V12.2083V12.2027V12.1971V12.1915V12.1859V12.1803V12.1747V12.1691V12.1635V12.1579V12.1523V12.1467V12.1411V12.1355V12.1299V12.1243V12.1187V12.1131V12.1075V12.1018V12.0962V12.0906V12.085V12.0794V12.0737V12.0681V12.0625V12.0569V12.0512V12.0456V12.04V12.0344V12.0287V12.0231V12.0175V12.0118V12.0062V12.0005V11.9949V11.9893V11.9836V11.978V11.9723V11.9667V11.961V11.9554V11.9497V11.9441V11.9384V11.9328V11.9271V11.9214V11.9158V11.9101V11.9044V11.8988V11.8931V11.8874V11.8818V11.8761V11.8704V11.8647V11.8591V11.8534V11.8477V11.842V11.8363V11.8307V11.825V11.8193V11.8136V11.8079V11.8022V11.7965V11.7908V11.7851V11.7794V11.7737V11.768V11.7623V11.7566V11.7509V11.7452V11.7395V11.7338V11.7281V11.7223V11.7166V11.7109V11.7052V11.6995V11.6937V11.688V11.6823V11.6765V11.6708V11.6651V11.6593V11.6536V11.6479V11.6421V11.6364V11.6307V11.6249V11.6192V11.6134V11.6077V11.6019V11.5962V11.5904V11.5846V11.5789V11.5731V11.5674V11.5616V11.5558V11.5501V11.5443V11.5385V11.5328V11.527V11.5212V11.5154V11.5097V11.5039V11.4981V11.4923V11.4865V11.4807V11.4749V11.4691V11.4633V11.4576V11.4518V11.446V11.4402V11.4343V11.4285V11.4227V11.4169V11.4111V11.4053V11.3995V11.3937V11.3879V11.382V11.3762V11.3704V11.3646V11.3587V11.3529V11.3471V11.3412V11.3354V11.3296V11.3237V11.3179V11.312V11.3062V11.3004V11.2945V11.2887V11.2828V11.2769V11.2711V11.2652V11.2594V11.2535V11.2476V11.2418V11.2359V11.23V11.2242V11.2183V11.2124V11.2065V10.1965L7.69644 10.8089L7.28477 11.1228L7.27687 11.1289L7.26921 11.1352L2.67921 14.9328L2.6648 14.9447L2.65132 14.9577C2.51931 15.0846 2.35718 15.1759 2.18017 15.223C2.00317 15.27 1.81709 15.2713 1.63945 15.2266C1.46181 15.1819 1.29846 15.0928 1.16477 14.9676C1.03468 14.8458 0.936825 14.6937 0.879831 14.525C0.847895 14.3952 0.833609 14.2616 0.837385 14.128L0.837584 14.128V14.1139V14.0906V14.0673V14.044V14.0207V13.9974V13.974V13.9507V13.9274V13.9041V13.8808V13.8575V13.8342V13.8109V13.7876V13.7643V13.741V13.7177V13.6944V13.6711V13.6478V13.6245V13.6012V13.5779V13.5546V13.5313V13.508V13.4847V13.4614V13.4381V13.4148V13.3915V13.3682V13.3449V13.3216V13.2983V13.275V13.2517V13.2284V13.2051V13.1818V13.1585V13.1352V13.1119V13.0886V13.0653V13.042V13.0187V12.9954V12.9721V12.9488V12.9255V12.9022V12.8789V12.8556V12.8323V12.8091V12.7858V12.7625V12.7392V12.7159V12.6926V12.6693V12.646V12.6227V12.5994V12.5761V12.5528V12.5295V12.5062V12.4829V12.4597V12.4364V12.4131V12.3898V12.3665V12.3432V12.3199V12.2966V12.2733V12.25V12.2267V12.2034V12.1802V12.1569V12.1336V12.1103V12.087V12.0637V12.0404V12.0171V11.9938V11.9705V11.9473V11.924V11.9007V11.8774V11.8541V11.8308V11.8075V11.7842V11.761V11.7377V11.7144V11.6911V11.6678V11.6445V11.6212V11.5979V11.5747V11.5514V11.5281V11.5048V11.4815V11.4582V11.4349V11.4117V11.3884V11.3651V11.3418V11.3185V11.2952V11.2719V11.2487V11.2254V11.2021V11.1788V11.1555V11.1322V11.109V11.0857V11.0624V11.0391V11.0158V10.9925V10.9693V10.946V10.9227V10.8994V10.8761V10.8528V10.8296V10.8063V10.783V10.7597V10.7364V10.7131V10.6899V10.6666V10.6433V10.62V10.5967V10.5735V10.5502V10.5269V10.5036V10.4803V10.4571V10.4338V10.4105V10.3872V10.3639V10.3406V10.3174V10.2941V10.2708V10.2475V10.2242V10.201V10.1777V10.1544V10.1311V10.1078V10.0846V10.0613V10.038V10.0147V9.99145V9.96817V9.94489V9.92161V9.89833V9.87505V9.85178V9.8285V9.80522V9.78194V9.75866V9.73538V9.7121V9.68882V9.66555V9.64227V9.61899V9.59571V9.57243V9.54915V9.52588V9.5026V9.47932V9.45604V9.43276V9.40949V9.38621V9.36293V9.33965V9.31638V9.2931V9.26982V9.24654V9.22327V9.19999V9.17671V9.15343V9.13016V9.10688V9.0836V9.06032V9.03705V9.01377V8.99049V8.96722V8.94394V8.92066V8.89739V8.87411V8.85083V8.82755V8.80428V8.781V8.75772V8.73445V8.71117V8.68789V8.66462V8.64134V8.61806V8.59479V8.57151V8.54823V8.52496V8.50168V8.4784V8.45513V8.43185V8.40857V8.3853V8.36202V8.33875V8.31547V8.29219V8.26892V8.24564V8.22236V8.19909V8.17581V8.15253V8.12926V8.10598V8.0827V8.05943V8.03615V8.01287V7.9896V7.96632V7.94305V7.91977V7.89649V7.87322V7.84994V7.82666V7.80339V7.78011V7.75683V7.73356V7.71028V7.687V7.66373V7.64045V7.61717V7.5939V7.57062V7.54734V7.52407V7.50079V7.47751V7.45424V7.43096V7.40768V7.38441V7.36113V7.33785V7.31457V7.2913V7.26802V7.24474V7.22147V7.19819V7.17491V7.15163V7.12836V7.10508V7.0818V7.05852V7.03525V7.01197V6.98869V6.96541V6.94214V6.91886V6.89558V6.8723V6.84902V6.82575V6.80247V6.77919V6.75591V6.73264V6.70936V6.68608V6.6628V6.63952V6.61624V6.59296V6.56969V6.54641V6.52313V6.49985V6.47657V6.45329V6.43001V6.40673V6.38346V6.36018V6.3369V6.31362V6.29034V6.26706V6.24378V6.2205V6.19722V6.17394V6.15066V6.12738V6.1041V6.08082V6.05754V6.03426V6.01098V5.9877V5.96442V5.94114V5.91786V5.89458V5.8713V5.84802V5.82473V5.80145V5.77817V5.75489V5.73161V5.70833V5.68505V5.66176V5.63848V5.6152V5.59192V5.56864V5.54535V5.52207V5.49879V5.47551V5.45222V5.42894V5.40566V5.38238V5.35909V5.33581V5.31253V5.28924V5.26596V5.24268V5.21939V5.19611V5.17283V5.14954V5.12626V5.10297V5.07969V5.0564V5.03312V5.00983V4.98655V4.96326V4.93998V4.91669V4.89341V4.87012V4.84684V4.82355V4.80027V4.77698V4.75369V4.73041V4.70712V4.68383V4.66055V4.63726V4.61397V4.59069V4.5674V4.54411V4.52082V4.49754V4.47425V4.45096V4.42767V4.40438V4.38109V4.35781V4.33452V4.31123V4.28794V4.26465V4.24136V4.21807V4.19478V4.17149V4.1482V4.12491V4.10162V4.07833V4.05504V4.03175V4.00846V3.98517V3.96188V3.93858V3.91529V3.892V3.86871V3.84542V3.82212V3.79883V3.77554V3.75225V3.72895V3.70566V3.68237V3.65907V3.63578V3.61249V3.58919V3.5659V3.5426V3.51931V3.49601V3.47272V3.44942V3.42613V3.40283V3.37954V3.35624V3.33295V3.30965V3.28635V3.26306V3.23976V3.21646V3.19316V3.16987V3.14657V3.12327V3.09997V3.07668V3.05338V3.03008V3.00678V2.98348V2.96018V2.93688V2.91358V2.89028V2.86698V2.84368V2.82038V2.79708V2.77378V2.75048V2.72718V2.70388V2.68057V2.65727V2.63397V2.61067V2.58736V2.56406V2.54076V2.51746V2.49415V2.47085V2.44754V2.42424V2.40094V2.37763V2.35433V2.33102V2.30772V2.28441V2.2611V2.2378V2.21449V2.19119V2.17381L0.836378 2.15648C0.822352 1.9549 0.870209 1.75383 0.973545 1.58018C1.07688 1.40653 1.23076 1.26857 1.41463 1.18474L1.42809 1.17861L1.44116 1.17169C1.62509 1.07432 1.83455 1.03597 2.04105 1.06185C2.24755 1.08774 2.44106 1.17661 2.59526 1.31637L2.60367 1.324L2.61242 1.33123C3.38619 1.97108 4.16957 2.62314 4.953 3.27524C5.77511 3.95954 6.59726 4.64387 7.40839 5.31416L7.4147 5.31937L7.42117 5.32437L7.64758 5.49933L8.45331 6.12192V5.10368V5.09765V5.09163V5.0856V5.07957V5.07355V5.06753V5.06151V5.05549V5.04947V5.04345V5.03744V5.03142V5.02541V5.0194V5.01339V5.00738V5.00137V4.99537V4.98936V4.98336V4.97736V4.97136V4.96536V4.95936V4.95336V4.94737V4.94137V4.93538V4.92939V4.9234V4.91741V4.91143V4.90544V4.89946V4.89347V4.88749V4.88151V4.87553V4.86956V4.86358V4.8576V4.85163V4.84566V4.83969V4.83372V4.82775V4.82178V4.81582V4.80985V4.80389V4.79793V4.79197V4.78601V4.78005V4.77409V4.76813V4.76218V4.75623V4.75028V4.74432V4.73838V4.73243V4.72648V4.72054V4.71459V4.70865V4.70271V4.69677V4.69083V4.68489V4.67895V4.67302V4.66708V4.66115V4.65522V4.64929V4.64336V4.63743V4.6315V4.62558V4.61965V4.61373V4.6078V4.60188V4.59596V4.59005V4.58413V4.57821V4.5723V4.56638V4.56047V4.55456V4.54865V4.54274V4.53683V4.53093V4.52502V4.51911V4.51321V4.50731V4.50141V4.49551V4.48961V4.48371V4.47782V4.47192V4.46603V4.46013V4.45424V4.44835V4.44246V4.43657V4.43069V4.4248V4.41892V4.41303V4.40715V4.40127V4.39539V4.38951V4.38363V4.37775V4.37188V4.366V4.36013V4.35426V4.34838V4.34251V4.33664V4.33078V4.32491V4.31904V4.31318V4.30731V4.30145V4.29559V4.28973V4.28387V4.27801V4.27215V4.26629V4.26044V4.25458V4.24873V4.24288V4.23703V4.23118V4.22533V4.21948V4.21363V4.20779V4.20194V4.1961V4.19025V4.18441V4.17857V4.17273V4.16689V4.16105V4.15522V4.14938V4.14355V4.13771V4.13188V4.12605V4.12022V4.11439V4.10856V4.10273V4.0969V4.09108V4.08525V4.07943V4.0736V4.06778V4.06196V4.05614V4.05032V4.0445V4.03869V4.03287V4.02706V4.02124V4.01543V4.00961V4.0038V3.99799V3.99218V3.98637V3.98057V3.97476V3.96895V3.96315V3.95734V3.95154V3.94574V3.93994V3.93414V3.92834V3.92254V3.91674V3.91095V3.90515V3.89935V3.89356V3.88777V3.88197V3.87618V3.87039V3.8646V3.85881V3.85303V3.84724V3.84145V3.83567V3.82988V3.8241V3.81832V3.81254V3.80676V3.80098V3.7952V3.78942V3.78364V3.77786V3.77209V3.76631V3.76054V3.75477V3.74899V3.74322V3.73745V3.73168V3.72591V3.72014V3.71438V3.70861V3.70284V3.69708V3.69131V3.68555V3.67979V3.67403V3.66826V3.6625V3.65674V3.65099V3.64523V3.63947V3.63372V3.62796V3.6222V3.61645V3.6107V3.60495V3.59919V3.59344V3.58769V3.58194V3.57619V3.57045V3.5647V3.55895V3.55321V3.54746V3.54172V3.53598V3.53023V3.52449V3.51875V3.51301V3.50727V3.50153V3.49579V3.49005V3.48432V3.47858V3.47285V3.46711V3.46138V3.45564V3.44991V3.44418V3.43845V3.43272V3.42699V3.42126V3.41553V3.4098V3.40408V3.39835V3.39262V3.3869V3.38117V3.37545V3.36973V3.36401V3.35828V3.35256V3.34684V3.34112V3.3354V3.32968V3.32397V3.31825V3.31253V3.30682V3.3011V3.29539V3.28967V3.28396V3.27825V3.27254V3.26682V3.26111V3.2554V3.24969V3.24398V3.23828V3.23257V3.22686V3.22115V3.21545V3.20974V3.20404V3.19833V3.19263V3.18693V3.18123V3.17552V3.16982V3.16412V3.15842V3.15272V3.14702V3.14132V3.13563V3.12993V3.12423V3.11854V3.11284V3.10715V3.10145V3.09576V3.09006V3.08437V3.07868V3.07299V3.0673V3.0616V3.05591V3.05023V3.04454V3.03885V3.03316V3.02747V3.02178V3.0161V3.01041V3.00473V2.99904V2.99336V2.98767V2.98199V2.97631V2.97062V2.96494V2.95926V2.95358V2.9479V2.94222V2.93654V2.93086V2.92518V2.9195V2.91382V2.90815V2.90247V2.89679V2.89112V2.88544V2.87977V2.87409V2.86842V2.86274V2.85707V2.8514V2.84572V2.84005V2.83438V2.82871V2.82304V2.81737V2.8117V2.80603V2.80036V2.79469V2.78902V2.78335V2.77769V2.77202V2.76635V2.76069V2.75502V2.74936V2.74369V2.73803V2.73236V2.7267V2.72103V2.71537V2.70971V2.70405V2.69838V2.69272V2.68706V2.6814V2.67574V2.67008V2.66442V2.65876V2.6531V2.64744V2.64178V2.63612V2.63047V2.62481V2.61915V2.61349V2.60784V2.60218V2.59653V2.59087V2.58521V2.57956V2.57391V2.56825V2.5626V2.55694V2.55129V2.54564V2.53998V2.53433V2.52868V2.52303V2.51738V2.51172V2.50607V2.50042V2.49477V2.48912V2.48347V2.47782V2.47217V2.46652V2.46087V2.45523V2.44958V2.44393V2.43828V2.43263V2.42699V2.42134V2.41569V2.41005V2.4044V2.39875V2.39311V2.38746V2.38182V2.37617V2.37053V2.36488V2.35924V2.35359V2.34795V2.3423V2.33666V2.33102V2.32537V2.31973V2.31409V2.30844V2.3028V2.29716V2.29152V2.28587V2.28023V2.27459V2.26895V2.26331V2.25767V2.25203V2.24638V2.24074V2.2351V2.22946V2.22382V2.21818V2.21254V2.2069V2.20126V2.19562V2.18999V2.18435V2.17871V2.17307V2.16743V2.16179V2.15615V2.15051V2.14488V2.13355L8.45279 2.12224C8.44361 1.91956 8.49369 1.7186 8.59691 1.54394C8.70014 1.36928 8.85203 1.22849 9.03401 1.13879C9.21598 1.0491 9.42015 1.01438 9.62155 1.0389C9.82293 1.06341 10.0128 1.14609 10.168 1.27682L10.174 1.28191L10.1802 1.2868C10.8585 1.82262 11.5028 2.36134 12.1524 2.90445C12.4841 3.18177 12.8171 3.46023 13.1568 3.74004L13.1571 3.74028L17.2106 7.07456C17.3686 7.21441 17.4945 7.38686 17.5795 7.58004L18.0371 7.37868L17.5795 7.58005C17.6655 7.77544 17.7076 7.98732 17.7028 8.20076C17.698 8.41419 17.6466 8.62398 17.552 8.81536C17.4574 9.00676 17.322 9.17508 17.1553 9.30849Z" stroke="#232323"/>
</svg>
