<svg width="14" height="14" viewBox="0 0 14 14" fill="none" xmlns="http://www.w3.org/2000/svg">
<path d="M12.6279 1.19799C12.3947 0.863253 12.0911 0.583592 11.7384 0.378619C11.3857 0.173647 10.9924 0.0483263 10.5861 0.0114493C10.1799 -0.0254277 9.77045 0.0270318 9.3866 0.165148C9.00275 0.303264 8.65377 0.523691 8.36413 0.810968C8.08383 1.09452 7.86695 1.43437 7.72785 1.80803C7.5432 2.38755 7.23172 2.91863 6.81606 3.36266L6.64551 3.19211C6.52261 3.06994 6.35635 3.00136 6.18306 3.00136C6.00976 3.00136 5.84351 3.06994 5.7206 3.19211C5.59771 3.31596 5.52875 3.48336 5.52875 3.65784C5.52875 3.83232 5.59771 3.99972 5.7206 4.12357L5.89115 4.29412L0.946517 9.23483C0.522123 9.65911 0.224294 10.1932 0.0864198 10.7773C-0.0514546 11.3613 -0.0239249 11.9722 0.165923 12.5415C0.199685 12.6368 0.25431 12.7234 0.325807 12.7949C0.397305 12.8664 0.483869 12.921 0.579178 12.9548C0.911648 13.0635 1.25924 13.1188 1.60904 13.1188C2.03193 13.1188 2.45066 13.0354 2.84126 12.8733C3.23185 12.7112 3.58661 12.4736 3.88522 12.1742L8.83052 7.22758L9.00107 7.39813C9.06037 7.46022 9.13162 7.50966 9.21053 7.54348C9.28945 7.5773 9.37439 7.5948 9.46024 7.59492C9.58984 7.59412 9.71632 7.55514 9.82388 7.48285C9.93144 7.41056 10.0153 7.30818 10.065 7.18849C10.1147 7.0688 10.128 6.93712 10.1033 6.8099C10.0786 6.68269 10.0169 6.56559 9.92597 6.47323L9.75542 6.30268L9.89973 6.15837C10.2663 5.81763 10.7096 5.57014 11.192 5.43681C11.7715 5.25104 12.274 4.87998 12.622 4.38071C12.945 3.91313 13.1184 3.35855 13.1195 2.79027C13.1206 2.22198 12.9491 1.66676 12.6279 1.19799ZM2.95179 11.2486C2.74352 11.46 2.48806 11.619 2.20641 11.7125C1.92475 11.8061 1.62493 11.8314 1.33157 11.7865C1.28833 11.4932 1.31447 11.1938 1.40788 10.9125C1.5013 10.6311 1.65938 10.3755 1.86945 10.1663L6.81475 5.21969L7.89708 6.30202L2.95179 11.2486Z" fill="white"/>
</svg>
