<svg width="26" height="26" viewBox="0 0 26 26" fill="none" xmlns="http://www.w3.org/2000/svg">
<rect x="0.753906" y="0.715332" width="25" height="25" rx="12.5" fill="#EAEAEA"/>
<path d="M14.5315 20.1712C14.1999 20.1998 13.9137 20.2481 13.6274 20.2411C12.4735 20.2299 11.3174 20.2411 10.1669 20.1642C9.61775 20.1264 9.06377 19.9636 8.55098 19.7567C7.52128 19.343 7.11969 18.4539 7.09567 17.3972C7.04555 15.1928 7.97915 13.5293 9.85321 12.4145C10.0145 12.3181 10.1278 12.3335 10.2829 12.4369C11.6696 13.3623 13.0597 13.3497 14.4498 12.4327C14.5385 12.3722 14.6468 12.3492 14.7518 12.3684C15.2324 12.5327 16.1014 13.277 16.3994 13.7663C14.6784 13.9529 13.5334 14.8538 13.127 16.5871C12.873 17.6746 13.1585 19.0613 14.5315 20.1712Z" fill="#111111"/>
<path d="M15.5703 9.414C15.5725 10.2789 15.2388 11.1096 14.6418 11.725C14.0449 12.3403 13.2332 12.6904 12.3837 12.6989C11.9602 12.7035 11.5401 12.6227 11.1473 12.4613C10.7546 12.2999 10.3971 12.0611 10.0953 11.7585C9.79359 11.456 9.55356 11.0957 9.38904 10.6984C9.22453 10.3011 9.13878 9.87454 9.13672 9.44335C9.13871 8.57873 9.47656 7.75001 10.0765 7.13811C10.6765 6.5262 11.4899 6.1808 12.3391 6.17729C13.1884 6.17281 14.0049 6.51069 14.6103 7.11714C15.2158 7.72359 15.5609 8.54933 15.5703 9.414Z" fill="#111111"/>
<path d="M16.5189 14.3114C16.1326 14.3053 15.749 14.3773 15.3903 14.5233C15.0316 14.6692 14.7049 14.8862 14.4292 15.1617C14.1535 15.4371 13.9342 15.7656 13.7841 16.1279C13.634 16.4903 13.556 16.8794 13.5547 17.2727C13.5532 18.0612 13.8591 18.818 14.4052 19.377C14.9513 19.936 15.693 20.2516 16.4674 20.2543C17.2413 20.2608 17.9861 19.9543 18.5382 19.4021C19.0902 18.8498 19.4044 18.097 19.4116 17.3091C19.4155 16.9187 19.3437 16.5314 19.2004 16.1693C19.057 15.8073 18.8449 15.4776 18.5762 15.1991C18.3075 14.9206 17.9874 14.6989 17.6344 14.5466C17.2814 14.3942 16.9023 14.3143 16.5189 14.3114ZM17.2321 18.7999L16.5058 17.9171L15.7548 18.9173L15.0128 18.0534L15.7905 17.2259L14.9057 16.527C15.2132 16.2181 15.4384 15.9923 15.6937 15.7372L16.5175 16.5403L17.23 15.6743L18.0332 16.4934L17.1621 17.2343L18.0449 18.0234L17.2321 18.7999Z" fill="#D94242"/>
</svg>
