<svg width="10" height="9" viewBox="0 0 10 9" fill="none" xmlns="http://www.w3.org/2000/svg">
<path d="M5.18968 8.93408C4.91472 8.93408 4.63977 8.82943 4.43046 8.6201L1.40806 5.59771C0.343146 4.53279 0.343146 2.80006 1.40806 1.73516C2.44639 0.696835 4.1197 0.670998 5.18971 1.65749C6.2598 0.67175 7.93237 0.697944 8.97047 1.73601C9.48632 2.25187 9.77042 2.93775 9.77042 3.66727C9.77042 4.39677 9.48626 5.08269 8.97047 5.59853L5.94892 8.6201C5.73959 8.82943 5.46464 8.93408 5.18968 8.93408ZM3.33934 1.65102C2.80101 1.65102 2.2949 1.86065 1.91423 2.24131C1.53356 2.62198 1.32391 3.12811 1.32391 3.66645C1.32391 4.20478 1.53354 4.71089 1.91421 5.09156L4.9366 8.11395C5.07615 8.2535 5.30321 8.2535 5.44275 8.11395L8.46432 5.0924C8.84497 4.71173 9.05462 4.20562 9.05462 3.66729C9.05462 3.12895 8.84499 2.62284 8.4643 2.24217C7.67849 1.45636 6.3999 1.45636 5.61407 2.24217L5.44275 2.41349C5.30297 2.55329 5.07636 2.55327 4.93659 2.41349L4.76444 2.24135C4.38379 1.86066 3.87768 1.65102 3.33934 1.65102Z" fill="white"/>
</svg>
