<svg width="25" height="26" viewBox="0 0 25 26" fill="none" xmlns="http://www.w3.org/2000/svg">
<rect y="0.0644531" width="25" height="25" rx="12.5" fill="#EAEAEA"/>
<path d="M13.9979 12.5638L16.8045 9.75714C17.1146 9.44704 17.1146 8.94428 16.8045 8.63466L16.4304 8.2605C16.1202 7.9503 15.6174 7.9503 15.3078 8.2605L12.5013 11.067L9.69464 8.25992C9.38454 7.94982 8.88178 7.94982 8.57216 8.25992L8.19742 8.63408C7.88732 8.94428 7.88732 9.44704 8.19742 9.75665L11.0045 12.5638L8.198 15.3703C7.8878 15.6805 7.8878 16.1833 8.198 16.4929L8.57216 16.867C8.88226 17.1771 9.38502 17.1771 9.69464 16.867L12.5013 14.0604L15.3078 16.867C15.618 17.1771 16.1208 17.1771 16.4304 16.867L16.8045 16.4929C17.1146 16.1827 17.1146 15.6799 16.8045 15.3703L13.9979 12.5638Z" fill="#111111"/>
</svg>
