<svg width="18" height="18" viewBox="0 0 18 18" fill="none" xmlns="http://www.w3.org/2000/svg">
<path d="M3.81452 10.4012L3.2154 12.6378L1.02562 12.6841C0.371199 11.4703 0 10.0815 0 8.60575C0 7.17867 0.347062 5.83292 0.962254 4.64795H0.962724L2.91224 5.00537L3.76625 6.94319C3.58751 7.46428 3.49009 8.02367 3.49009 8.60575C3.49015 9.23748 3.60459 9.84275 3.81452 10.4012Z" fill="#FBBB00"/>
<path d="M17.0608 6.99805C17.1597 7.51864 17.2112 8.05628 17.2112 8.60575C17.2112 9.22188 17.1464 9.82289 17.023 10.4026C16.6041 12.3754 15.5094 14.098 13.993 15.317L13.9925 15.3165L11.537 15.1912L11.1894 13.0217C12.1957 12.4316 12.982 11.5081 13.3963 10.4026H8.79443V6.99805H13.4634H17.0608Z" fill="#518EF8"/>
<path d="M13.9939 15.3162L13.9944 15.3167C12.5196 16.5021 10.6461 17.2114 8.6067 17.2114C5.32935 17.2114 2.47993 15.3796 1.02637 12.6838L3.81527 10.4009C4.54204 12.3405 6.41313 13.7213 8.6067 13.7213C9.54956 13.7213 10.4329 13.4664 11.1908 13.0214L13.9939 15.3162Z" fill="#28B446"/>
<path d="M14.0978 1.98125L11.3098 4.26372C10.5254 3.77338 9.59809 3.49012 8.60464 3.49012C6.36141 3.49012 4.45533 4.93421 3.76497 6.9434L0.961408 4.64816H0.960938C2.39322 1.88669 5.27857 0 8.60464 0C10.6928 0 12.6074 0.74381 14.0978 1.98125Z" fill="#F14336"/>
</svg>
