<svg width="17" height="17" viewBox="0 0 17 17" fill="none" xmlns="http://www.w3.org/2000/svg">
<rect width="16.791" height="16.79" rx="1" fill="#01AAC1"/>
<path d="M7.67976 12.4619C7.67849 12.4619 7.67701 12.4619 7.67574 12.4619C7.62321 12.4609 7.57364 12.4384 7.53806 12.3999L3.90631 8.45081C3.84404 8.38303 3.83832 8.28094 3.89275 8.20659C3.94719 8.13246 4.04632 8.10704 4.12977 8.14601L7.45376 9.70241C7.48171 9.71555 7.51476 9.70919 7.53615 9.68695L12.6065 4.3876C12.6752 4.3158 12.7874 4.30796 12.8654 4.36981C12.9433 4.43166 12.9613 4.54265 12.9069 4.62589L7.86319 12.3524C7.85599 12.3636 7.84752 12.3738 7.8382 12.3833L7.81596 12.4056C7.77974 12.4416 7.7306 12.4619 7.67976 12.4619Z" fill="white"/>
</svg>
