<svg width="5" height="3" viewBox="0 0 5 3" fill="none" xmlns="http://www.w3.org/2000/svg">
<path d="M0.323322 2.64519C0.321809 2.71397 0.341749 2.78152 0.380399 2.83844C0.419049 2.89536 0.4745 2.93882 0.538992 2.96278C0.603484 2.98674 0.67383 2.99001 0.740269 2.97214C0.806707 2.95427 0.865899 2.91614 0.909666 2.86306L2.64484 0.837612L4.3794 2.86306C4.40638 2.89978 4.44065 2.93053 4.48007 2.95339C4.5195 2.97625 4.56323 2.99072 4.6085 2.9959C4.65378 3.00108 4.69963 2.99686 4.7432 2.98349C4.78677 2.97013 4.82712 2.94791 4.8617 2.91824C4.89629 2.88856 4.92434 2.85206 4.94417 2.81103C4.964 2.77 4.97513 2.72531 4.97689 2.67977C4.97864 2.63424 4.97101 2.58883 4.9544 2.54639C4.9378 2.50395 4.91261 2.4654 4.88041 2.43314L2.89632 0.114192C2.86524 0.0777761 2.82667 0.0485337 2.78319 0.0284819C2.73972 0.00843018 2.69241 -0.00195341 2.64453 -0.00195341C2.59666 -0.00195341 2.54934 0.00843018 2.50587 0.0284819C2.46239 0.0485337 2.42378 0.0777761 2.39271 0.114192L0.406704 2.43314C0.354671 2.49172 0.325166 2.56686 0.323322 2.64519Z" fill="white"/>
</svg>
