<svg width="9" height="10" viewBox="0 0 9 10" fill="none" xmlns="http://www.w3.org/2000/svg">
<path d="M7.96472 0.512161C7.48085 0.0291495 6.6973 0.0291495 6.21343 0.512161L5.77505 0.952945L1.1085 5.61702L1.09858 5.62701C1.09618 5.62942 1.09618 5.63197 1.09362 5.63197C1.08866 5.63941 1.08122 5.64677 1.07634 5.65421C1.07634 5.65669 1.07379 5.65669 1.07379 5.65917C1.06883 5.66661 1.06643 5.67156 1.06139 5.679C1.05899 5.68148 1.05899 5.68388 1.05651 5.68644C1.05403 5.69388 1.05155 5.69884 1.04899 5.70627C1.04899 5.70868 1.04659 5.70868 1.04659 5.71123L0.011223 8.8247C-0.0191493 8.91333 0.00393983 9.0115 0.0706502 9.07728C0.117526 9.12354 0.18075 9.14942 0.24653 9.14918C0.273416 9.14872 0.300069 9.14453 0.325792 9.13679L3.43685 8.09894C3.43925 8.09894 3.43925 8.09894 3.44181 8.09654C3.44964 8.09421 3.45715 8.09088 3.46405 8.08654C3.46599 8.08631 3.46769 8.08546 3.46908 8.08414C3.47645 8.07918 3.48636 8.07415 3.4938 8.06919C3.50116 8.06431 3.50868 8.05687 3.51612 8.05191C3.51859 8.04935 3.521 8.04935 3.521 8.04695C3.52355 8.04447 3.52851 8.04207 3.53099 8.03703L8.63593 2.9321C9.11894 2.44823 9.11894 1.66468 8.63593 1.18089L7.96472 0.512161ZM3.35759 7.51683L1.63366 5.79298L5.94845 1.47818L7.67238 3.20204L3.35759 7.51683ZM1.39083 6.25119L2.89689 7.75717L0.635403 8.51013L1.39083 6.25119ZM8.28672 2.5853L8.02414 2.85036L6.30013 1.12635L6.56527 0.861364C6.85528 0.571588 7.32535 0.571588 7.61543 0.861364L8.28912 1.53505C8.57696 1.82638 8.57588 2.29537 8.28672 2.5853Z" fill="#111111"/>
</svg>
