<svg width="20" height="15" viewBox="0 0 20 15" fill="none" xmlns="http://www.w3.org/2000/svg">
<path d="M12.8847 8.08398L11.2199 9.75433C10.5449 10.4318 9.35709 10.4464 8.66742 9.75433L7.00262 8.08398L1.02344 14.0826C1.246 14.1855 1.4914 14.2469 1.75228 14.2469H18.1351C18.396 14.2469 18.6413 14.1856 18.8638 14.0826L12.8847 8.08398Z" fill="#111111"/>
<path d="M18.135 0.269531H1.7522C1.49132 0.269531 1.24593 0.330947 1.02344 0.433864L7.41262 6.84424C7.41304 6.84467 7.41355 6.84475 7.41398 6.84517C7.4144 6.8456 7.41448 6.84618 7.41448 6.84618L9.49195 8.93052C9.71262 9.15119 10.1747 9.15119 10.3953 8.93052L12.4724 6.84653C12.4724 6.84653 12.4729 6.8456 12.4733 6.84517C12.4733 6.84517 12.4742 6.84467 12.4747 6.84424L18.8637 0.433825C18.6412 0.33087 18.3959 0.269531 18.135 0.269531Z" fill="#111111"/>
<path d="M0.193614 1.25C0.0784682 1.48285 0.0078125 1.74133 0.0078125 2.01821V12.5001C0.0078125 12.777 0.0783906 13.0355 0.193575 13.2683L6.18312 7.25935L0.193614 1.25Z" fill="#111111"/>
<path d="M19.7004 1.24609L13.7109 7.25552L19.7004 13.2646C19.8156 13.0317 19.8862 12.7732 19.8862 12.4963V2.01438C19.8862 1.73742 19.8156 1.47895 19.7004 1.24609Z" fill="#111111"/>
</svg>
