<svg width="11" height="13" viewBox="0 0 11 13" fill="none" xmlns="http://www.w3.org/2000/svg">
<path d="M6.54136 12.2245C4.32464 12.6813 2.47212 11.8781 1.02296 10.1953C0.935473 10.0947 0.85493 9.98858 0.781854 9.87761C0.595178 9.59056 0.655707 9.24313 0.916648 9.06298C1.22693 8.84869 1.59316 8.89422 1.81035 9.19364C2.1364 9.64154 2.51179 10.0385 2.98026 10.3503C5.58102 12.0854 9.06633 10.6932 9.7113 7.68564C10.2474 5.18336 8.31606 3.08047 6.15682 2.74888C4.82923 2.54547 3.67051 2.91468 2.65116 3.74564C2.59072 3.78764 2.52713 3.8252 2.46092 3.85798L2.51433 3.93717C3.08657 3.93717 3.65881 3.93717 4.23105 3.93717C4.70817 3.93717 4.97419 4.30242 4.82567 4.74289C4.74174 4.99034 4.5576 5.12199 4.29412 5.12298C3.22628 5.12727 2.15811 5.12727 1.08959 5.12298C0.784397 5.12298 0.546347 4.91264 0.543295 4.6147C0.532443 3.55889 0.532443 2.50307 0.543295 1.44726C0.547364 1.12656 0.825599 0.916218 1.16487 0.926116C1.50414 0.936014 1.75542 1.16417 1.76254 1.50516C1.77221 1.95059 1.76508 2.39601 1.76508 2.88449C1.88716 2.7954 1.9833 2.7271 2.07689 2.65534C5.15222 0.294111 9.85525 1.66057 10.841 5.65798C11.6422 8.91006 9.46104 11.6222 6.54136 12.2245Z" fill="white"/>
</svg>
