<svg width="10" height="13" viewBox="0 0 10 13" fill="none" xmlns="http://www.w3.org/2000/svg">
<path d="M9.77898 1.61567C9.77898 0.895961 9.31888 0.449707 8.59192 0.449707C6.37173 0.449707 4.15127 0.449707 1.93053 0.449707C1.19116 0.449707 0.73603 0.895146 0.735616 1.62871C0.733961 4.88902 0.733961 8.14932 0.735616 11.4096C0.731793 11.5179 0.743355 11.6261 0.769961 11.7312C0.965251 12.3938 1.78448 12.5573 2.30994 12.0405C3.13937 11.2254 3.96853 10.4103 4.79741 9.59527C5.11062 9.28717 5.39984 9.28513 5.71015 9.58956C6.54041 10.4046 7.36929 11.2205 8.19679 12.0372C8.37802 12.2166 8.58323 12.3413 8.84555 12.3527C9.37805 12.3763 9.77608 11.9904 9.77732 11.4386C9.78035 9.79537 9.78035 8.15163 9.77732 6.50735C9.77898 4.87611 9.77953 3.24555 9.77898 1.61567ZM9.06526 11.3558C9.06526 11.4504 9.00113 11.5445 8.96678 11.6391C8.86831 11.5963 8.74667 11.5763 8.67509 11.5066C7.84055 10.6964 7.01429 9.87647 6.18389 9.06139C5.64395 8.53159 4.86692 8.53608 4.32449 9.06914C3.50003 9.87959 2.67528 10.69 1.85026 11.5005C1.80527 11.5516 1.75218 11.5953 1.69304 11.6297C1.5656 11.6908 1.47996 11.637 1.45058 11.5074C1.44256 11.4468 1.44118 11.3854 1.44644 11.3244V1.64665C1.44644 1.28231 1.58712 1.14171 1.95329 1.14171H8.57331C8.92706 1.14171 9.06981 1.28516 9.06981 1.63605C9.06953 4.87571 9.06774 8.11509 9.06443 11.3542L9.06526 11.3558Z" fill="white"/>
</svg>
