<svg width="11" height="16" viewBox="0 0 11 16" fill="none" xmlns="http://www.w3.org/2000/svg">
<path d="M9.14315 15.6289C9.37243 15.6339 9.59758 15.5675 9.78731 15.4386C9.97703 15.3098 10.1219 15.125 10.2018 14.91C10.2816 14.695 10.2926 14.4605 10.233 14.2391C10.1734 14.0176 10.0463 13.8203 9.86937 13.6744L3.11789 7.8905L9.86937 2.10864C9.99178 2.01868 10.0943 1.90447 10.1705 1.77305C10.2467 1.64164 10.2949 1.49587 10.3122 1.34495C10.3295 1.19402 10.3154 1.04119 10.2708 0.895967C10.2263 0.75074 10.1522 0.616231 10.0533 0.500949C9.95439 0.385666 9.83273 0.292151 9.69595 0.226064C9.55917 0.159977 9.41022 0.122858 9.25843 0.117001C9.10664 0.111144 8.95527 0.136606 8.81381 0.191958C8.67235 0.24731 8.54384 0.331272 8.43633 0.438591L0.70649 7.05223C0.585102 7.15582 0.487628 7.2844 0.420789 7.42931C0.353949 7.57422 0.319338 7.73194 0.319338 7.89152C0.319338 8.0511 0.353949 8.20883 0.420788 8.35374C0.487628 8.49864 0.585102 8.62735 0.70649 8.73094L8.43633 15.3509C8.63159 15.5244 8.88205 15.6227 9.14315 15.6289Z" fill="#101012"/>
</svg>
