<svg width="29" height="17" viewBox="0 0 29 17" fill="none" xmlns="http://www.w3.org/2000/svg">
<path d="M24.7554 4.59912C22.8725 4.23771 20.9652 4.42935 19.3016 5.18477C19.5038 5.92985 19.6106 6.70276 19.6106 7.49277C19.6106 10.2489 18.3322 12.8061 16.0742 14.6462C18.4871 14.7901 20.8399 14.0279 22.5659 12.3139C24.5949 10.2986 25.305 7.42081 24.7554 4.59952V4.59912Z" fill="#D8F4F8"/>
<path d="M25.4148 9.41846C24.9801 10.7548 24.2476 11.9694 23.231 12.9785C21.5282 14.6694 19.191 15.6061 16.6492 15.6061C16.5364 15.6061 16.4227 15.6025 16.3086 15.5974C18.1647 16.7456 20.351 17.2072 22.5229 16.7218C25.3228 16.0964 27.4719 14.0416 28.5266 11.3658C27.606 10.5059 26.548 9.84189 25.4152 9.41846H25.4148Z" fill="#D8F4F8"/>
<path d="M12.7871 15.6061C10.2454 15.6061 7.90776 14.669 6.20499 12.9781C5.1887 11.9686 4.45579 10.7544 4.02109 9.41846C2.88832 9.84189 1.83039 10.5059 0.910156 11.3658C1.96488 14.0412 4.11356 16.0964 6.91388 16.7218C9.08577 17.2072 11.2721 16.746 13.1277 15.5974C13.0137 15.6022 12.9004 15.6057 12.7875 15.6057L12.7871 15.6061Z" fill="#D8F4F8"/>
<path d="M9.8458 7.49228C9.8458 6.70545 9.95107 5.93532 10.152 5.19302C8.48366 4.43084 6.56955 4.23642 4.67905 4.59902C4.12988 7.42031 4.83956 10.2977 6.86936 12.313C8.60014 14.0318 10.9614 14.7944 13.381 14.6441C11.1243 12.8045 9.8462 10.248 9.8462 7.49228H9.8458Z" fill="#D8F4F8"/>
<path d="M10.7852 7.4923C10.7852 10.3426 12.3322 12.8756 14.7291 14.4851C17.1259 12.8756 18.673 10.3426 18.673 7.4923C18.673 4.64199 17.1259 2.10855 14.7291 0.499512C12.3322 2.10895 10.7852 4.64159 10.7852 7.4923Z" fill="#D8F4F8"/>
</svg>
