<svg width="16" height="15" viewBox="0 0 16 15" fill="none" xmlns="http://www.w3.org/2000/svg">
<path d="M15.3952 9.84464C15.2255 9.67482 15.0191 9.58984 14.7766 9.58984H10.5541L9.31651 10.8274C8.96463 11.1671 8.55212 11.337 8.07894 11.337C7.60584 11.337 7.19321 11.1673 6.84136 10.8274L5.61288 9.58984H1.38139C1.13877 9.58984 0.932523 9.67491 0.762607 9.84464C0.592723 10.0145 0.507812 10.2207 0.507812 10.4635V13.3754C0.507812 13.6181 0.592723 13.8243 0.762607 13.9942C0.932491 14.164 1.13874 14.2488 1.38139 14.2488H14.7766C15.0192 14.2488 15.2256 14.164 15.3953 13.9942C15.5652 13.8243 15.6501 13.6181 15.6501 13.3754V10.4635C15.6501 10.2207 15.5652 10.0145 15.3952 9.84464ZM11.983 12.9113C11.8675 13.0266 11.731 13.0842 11.5733 13.0842C11.4155 13.0842 11.2792 13.0266 11.1638 12.9113C11.0486 12.796 10.991 12.6596 10.991 12.5019C10.991 12.3442 11.0486 12.2075 11.1638 12.0924C11.2792 11.977 11.4155 11.9193 11.5733 11.9193C11.731 11.9193 11.8675 11.977 11.983 12.0924C12.0981 12.2075 12.1557 12.3442 12.1557 12.5019C12.1557 12.6595 12.0981 12.796 11.983 12.9113ZM14.3124 12.9113C14.1972 13.0266 14.0606 13.0842 13.9029 13.0842C13.7452 13.0842 13.6087 13.0266 13.4934 12.9113C13.3782 12.796 13.3206 12.6596 13.3206 12.5019C13.3206 12.3442 13.3782 12.2075 13.4934 12.0924C13.6087 11.977 13.7451 11.9193 13.9029 11.9193C14.0606 11.9193 14.1972 11.977 14.3124 12.0924C14.4277 12.2075 14.4854 12.3442 14.4854 12.5019C14.4854 12.6595 14.4278 12.796 14.3124 12.9113Z" fill="#111111"/>
<path d="M7.66921 9.99947C7.77847 10.1146 7.91495 10.1723 8.07869 10.1723C8.24255 10.1723 8.37887 10.1146 8.48816 9.99947L12.565 5.92263C12.753 5.74672 12.7955 5.53435 12.6924 5.28561C12.5894 5.04908 12.4104 4.9308 12.1555 4.93067H9.82585V0.853903C9.82585 0.696195 9.76812 0.559682 9.65306 0.444428C9.53768 0.329143 9.40123 0.271484 9.24359 0.271484H6.91379C6.75614 0.271484 6.61963 0.329143 6.50431 0.444428C6.38909 0.559682 6.33143 0.696163 6.33143 0.853903V4.93071H4.00185C3.74693 4.93071 3.56806 5.04912 3.46492 5.28565C3.36184 5.53429 3.40426 5.74676 3.59238 5.92266L7.66921 9.99947Z" fill="#111111"/>
</svg>
