<svg width="20" height="23" viewBox="0 0 20 23" fill="none" xmlns="http://www.w3.org/2000/svg">
<path d="M10.2717 0.034668C13.7663 0.034668 16.5783 2.7846 16.5783 6.17957V7.92571C18.5397 8.53794 19.9688 10.3135 19.9688 12.4342V18.0563C19.9688 20.6818 17.7921 22.8104 15.1087 22.8104H5.47063C2.786 22.8104 0.609375 20.6818 0.609375 18.0563V12.4342C0.609375 10.3135 2.03963 8.53794 3.99987 7.92571V6.17957C4.01144 2.7846 6.82335 0.034668 10.2717 0.034668ZM10.2833 12.9989C9.72784 12.9989 9.27654 13.4403 9.27654 13.9835V16.4958C9.27654 17.0503 9.72784 17.4916 10.2833 17.4916C10.8503 17.4916 11.3016 17.0503 11.3016 16.4958V13.9835C11.3016 13.4403 10.8503 12.9989 10.2833 12.9989ZM10.2948 2.01507C7.9458 2.01507 6.03648 3.87099 6.02491 6.15693V7.68014H14.5532V6.17957C14.5532 3.8823 12.6439 2.01507 10.2948 2.01507Z" fill="white"/>
</svg>
