<svg
              width="18"
              height="19"
              viewBox="0 0 18 19"
              fill="none"
              xmlns="http://www.w3.org/2000/svg"
            >
              <path
                d="M14.4182 10.1593C14.1257 10.1593 13.8885 9.92219 13.8885 9.62968C13.8885 9.33716 14.1257 9.10004 14.4182 9.10004H15.0566C14.7567 6.16035 12.3727 3.82832 9.4101 3.60938V4.16514C9.4101 4.45765 9.17298 4.69478 8.88046 4.69478C8.58795 4.69478 8.35082 4.45765 8.35082 4.16514V3.62203C5.43212 3.90804 3.10722 6.24794 2.84418 9.17322H3.41592C3.70843 9.17322 3.94556 9.41035 3.94556 9.70286C3.94556 9.99537 3.70843 10.2325 3.41592 10.2325H2.83984C3.08337 13.2049 5.45488 15.5837 8.42403 15.8388V15.1674C8.42403 14.8749 8.66116 14.6377 8.95368 14.6377C9.24619 14.6377 9.48332 14.8749 9.48332 15.1674V15.8388C12.4768 15.5816 14.8627 13.1657 15.073 10.1593H14.4182ZM11.0977 8.33214L9.32822 10.1017C9.22888 10.201 9.0942 10.2568 8.95371 10.2568C8.81326 10.2568 8.67851 10.201 8.57921 10.1017L5.49907 7.02153C5.29222 6.81472 5.29222 6.47937 5.49907 6.27252C5.70589 6.06567 6.04123 6.06567 6.24808 6.27252L8.95375 8.97815L10.3488 7.58313C10.5556 7.37628 10.8909 7.37628 11.0978 7.58313C11.3046 7.78995 11.3046 8.12533 11.0977 8.33214Z"
                fill="white"
              />
              <path
                d="M15.288 3.39512C13.5974 1.70451 11.3496 0.773438 8.95874 0.773438C6.56786 0.773438 4.32006 1.70451 2.62946 3.39512C0.938849 5.08572 0.0078125 7.33349 0.0078125 9.72437C0.0078125 12.1152 0.938849 14.363 2.62946 16.0536C4.32006 17.7442 6.56786 18.6753 8.95874 18.6753C11.3496 18.6753 13.5974 17.7442 15.288 16.0536C16.9786 14.363 17.9097 12.1152 17.9097 9.72437C17.9097 7.33349 16.9786 5.08569 15.288 3.39512ZM8.95874 16.9184C4.99191 16.9184 1.76471 13.6912 1.76471 9.72437C1.76471 9.71786 1.76492 9.71143 1.76496 9.705C1.76496 9.70335 1.76471 9.70178 1.76471 9.70014C1.76471 9.69737 1.76506 9.69472 1.76513 9.69199C1.78258 5.77271 4.94991 2.58404 8.86098 2.5316C8.86916 2.53121 8.87727 2.53037 8.88556 2.53037C8.89052 2.53037 8.89535 2.53097 8.90028 2.53111C8.91979 2.53097 8.93923 2.53037 8.95878 2.53037C12.9256 2.53037 16.1528 5.7576 16.1528 9.7244C16.1528 13.6912 12.9256 16.9184 8.95874 16.9184Z"
                fill="white"
              />
            </svg>