<svg width="13" height="14" viewBox="0 0 13 14" fill="none" xmlns="http://www.w3.org/2000/svg">
<rect y="0.710205" width="13" height="13" rx="6.5" fill="#EAEAEA"/>
<path d="M8.89312 6.33952C8.6259 6.62759 8.35355 6.90936 8.08325 7.19365L6.78807 8.55586C6.59241 8.76183 6.40685 8.76147 6.21084 8.55586C5.51686 7.82596 4.82277 7.09619 4.12856 6.36653C4.03338 6.2666 3.97997 6.153 4.00702 6.0113C4.06316 5.71891 4.38602 5.61322 4.59794 5.82009C4.74003 5.95891 4.87355 6.10708 5.01084 6.2522L6.457 7.77285C6.46899 7.78527 6.48148 7.79716 6.50305 7.81858C6.81717 7.48514 7.12462 7.16106 7.43275 6.8359C7.74716 6.50462 8.06174 6.17364 8.37649 5.84296C8.4792 5.73493 8.598 5.68254 8.74009 5.72485C9.00525 5.80335 9.08742 6.13067 8.89312 6.33952Z" fill="black"/>
</svg>
