<svg width="18" height="18" viewBox="0 0 18 18" fill="none" xmlns="http://www.w3.org/2000/svg">
<rect x="0.273438" y="0.683594" width="16.791" height="16.79" rx="8.395" fill="#01AAC1"/>
<path d="M7.9532 13.1455C7.95193 13.1455 7.95044 13.1455 7.94917 13.1455C7.89664 13.1444 7.84708 13.122 7.81149 13.0834L4.17975 9.1344C4.11748 9.06662 4.11176 8.96453 4.16619 8.89018C4.22063 8.81605 4.31976 8.79063 4.40321 8.82961L7.72719 10.386C7.75515 10.3991 7.7882 10.3928 7.80959 10.3705L12.88 5.0712C12.9486 4.99939 13.0609 4.99155 13.1388 5.0534C13.2168 5.11525 13.2348 5.22624 13.1803 5.30948L8.13663 13.036C8.12943 13.0472 8.12095 13.0574 8.11163 13.0669L8.08939 13.0892C8.05317 13.1252 8.00403 13.1455 7.9532 13.1455Z" fill="white"/>
</svg>
