<svg width="11" height="10" viewBox="0 0 11 10" fill="none" xmlns="http://www.w3.org/2000/svg">
<path d="M0.34799 9.89526C0.381158 9.92846 0.420544 9.95481 0.463899 9.97278C0.507253 9.99075 0.553725 10 0.600657 10C0.647588 10 0.69406 9.99075 0.737414 9.97278C0.780769 9.95481 0.820156 9.92846 0.853323 9.89526L5.2424 5.50618L9.63326 9.89526C9.70027 9.96227 9.79116 9.99992 9.88592 9.99992C9.98069 9.99992 10.0716 9.96227 10.1386 9.89526C10.2056 9.82825 10.2432 9.73736 10.2432 9.64259C10.2432 9.54782 10.2056 9.45694 10.1386 9.38993L5.74773 5.00085L10.1368 0.609991C10.2038 0.542979 10.2415 0.452093 10.2415 0.357324C10.2415 0.262556 10.2038 0.171669 10.1368 0.104658C10.0698 0.0376465 9.97891 0 9.88414 0C9.78937 0 9.69848 0.0376465 9.63147 0.104658L5.2424 4.49552L0.851537 0.106444C0.783219 0.0479369 0.695339 0.0173648 0.605459 0.0208364C0.515579 0.0243081 0.430319 0.0615678 0.366717 0.12517C0.303114 0.188772 0.265855 0.274032 0.262383 0.363912C0.258911 0.453792 0.289484 0.541672 0.34799 0.609991L4.73706 5.00085L0.34799 9.39171C0.281475 9.45862 0.244141 9.54914 0.244141 9.64349C0.244141 9.73783 0.281475 9.82835 0.34799 9.89526Z" fill="black"/>
</svg>
