<svg width="5" height="3" viewBox="0 0 5 3" fill="none" xmlns="http://www.w3.org/2000/svg">
<path d="M4.97746 0.350902C4.97897 0.282119 4.95903 0.214573 4.92038 0.157656C4.88173 0.100738 4.82628 0.0572771 4.76179 0.0333149C4.6973 0.00935273 4.62695 0.00608012 4.56051 0.0239519C4.49407 0.0418237 4.43488 0.0799519 4.39112 0.133036L2.65594 2.15848L0.921385 0.133036C0.894397 0.0963149 0.860133 0.0655622 0.820709 0.0427033C0.781285 0.0198445 0.737553 0.00537206 0.692277 0.000192116C0.647 -0.00498782 0.601152 -0.000763535 0.557584 0.0126004C0.514015 0.0259643 0.473663 0.0481799 0.439078 0.0778561C0.404493 0.107532 0.376439 0.14403 0.356612 0.185063C0.336786 0.226096 0.325651 0.270781 0.323893 0.316319C0.322136 0.361857 0.329775 0.407267 0.346381 0.449705C0.362986 0.492144 0.388175 0.530697 0.42037 0.56295L2.40446 2.8819C2.43554 2.91832 2.47411 2.94756 2.51759 2.96761C2.56106 2.98766 2.60838 2.99805 2.65625 2.99805C2.70412 2.99805 2.75144 2.98766 2.79491 2.96761C2.83839 2.94756 2.877 2.91832 2.90807 2.8819L4.89408 0.56295C4.94611 0.50437 4.97562 0.429233 4.97746 0.350902Z" fill="white"/>
</svg>
