<svg width="6" height="7" viewBox="0 0 6 7" fill="none" xmlns="http://www.w3.org/2000/svg">
<path d="M2.93881 6.09474C2.85524 6.09523 2.77342 6.07081 2.70378 6.02462C2.63414 5.97842 2.57983 5.91253 2.54779 5.83535C2.51574 5.75817 2.50741 5.67319 2.52384 5.59125C2.54028 5.50932 2.58075 5.43413 2.64009 5.37528L4.86998 3.14959L2.64009 0.923898C2.57116 0.843411 2.53514 0.739878 2.53923 0.633989C2.54332 0.5281 2.58722 0.427654 2.66215 0.352723C2.73708 0.277792 2.83752 0.233896 2.94341 0.229806C3.0493 0.225716 3.15284 0.261733 3.23332 0.330661L5.75774 2.85508C5.8361 2.93391 5.88008 3.04054 5.88008 3.15169C5.88008 3.26285 5.8361 3.36948 5.75774 3.44831L3.23332 5.97273C3.15496 6.05045 3.04918 6.09428 2.93881 6.09474Z" fill="#111111"/>
<path d="M0.414149 6.09466C0.330581 6.09514 0.248761 6.07073 0.179121 6.02454C0.109481 5.97834 0.055176 5.91245 0.0231299 5.83527C-0.00891619 5.75809 -0.0172516 5.67311 -0.000813592 5.59117C0.0156244 5.50924 0.056091 5.43405 0.115427 5.3752L2.34533 3.14951L0.115427 0.923816C0.0362009 0.84459 -0.00830784 0.737137 -0.00830784 0.625094C-0.00830784 0.513051 0.0362009 0.405598 0.115427 0.326372C0.194653 0.247146 0.302107 0.202637 0.414149 0.202637C0.526192 0.202637 0.633646 0.247146 0.712872 0.326372L3.23729 2.85079C3.31565 2.92962 3.35963 3.03625 3.35963 3.1474C3.35963 3.25856 3.31565 3.36519 3.23729 3.44402L0.712872 5.96844C0.673905 6.00819 0.627438 6.03982 0.57616 6.06149C0.524883 6.08315 0.469816 6.09443 0.414149 6.09466Z" fill="#111111"/>
</svg>
