<svg width="20" height="24" viewBox="0 0 20 24" fill="none" xmlns="http://www.w3.org/2000/svg">
<path d="M10.6719 0.214355C10.9724 0.276735 11.2787 0.327772 11.5792 0.395822C13.6377 0.877843 15.3957 2.83995 15.6736 4.94383C15.855 6.32752 15.6565 7.63181 14.874 8.8C13.8362 10.3538 12.4015 11.2555 10.5018 11.3859C8.01226 11.556 5.95942 10.0873 5.0294 8.09682C4.15609 6.22544 4.50768 3.73594 5.88002 2.18781C6.71931 1.24078 7.73439 0.58296 8.98764 0.327772C9.20313 0.282405 9.41862 0.24838 9.62845 0.214355C9.98004 0.214355 10.326 0.214355 10.6719 0.214355Z" fill="white"/>
<path d="M10.2823 23.4427C8.44498 23.4427 6.60763 23.4427 4.77028 23.4427C3.82892 23.4427 2.9386 23.2556 2.15602 22.6998C1.27137 22.0647 0.749655 21.197 0.658922 20.1196C0.494468 18.1972 0.71563 16.3145 1.4415 14.5168C1.87248 13.445 2.51328 12.5263 3.57373 11.9593C4.23722 11.6077 4.94607 11.4319 5.68328 11.4489C5.91578 11.4546 6.1653 11.568 6.38079 11.6871C6.73238 11.8799 7.05562 12.118 7.39587 12.3279C9.3353 13.5187 11.2691 13.5131 13.2028 12.3165C13.475 12.1521 13.7472 11.9876 14.0024 11.8005C14.4674 11.4546 14.9778 11.4035 15.5278 11.4829C17.0363 11.7041 18.1024 12.5263 18.8169 13.842C19.4577 15.0158 19.7469 16.2918 19.8774 17.6074C19.9454 18.2766 19.9738 18.9514 19.9681 19.6206C19.9454 21.6904 18.5561 23.1932 16.4976 23.403C16.248 23.4314 15.9985 23.4427 15.749 23.4427C13.9287 23.4427 12.1083 23.4427 10.2823 23.4427Z" fill="white"/>
</svg>
