<svg width="10" height="10" viewBox="0 0 10 10" fill="none" xmlns="http://www.w3.org/2000/svg">
<path d="M4.02909 5.41622L3.63963 4.83203L3.25016 5.41622L2.57422 5.60626L3.00929 6.15735L2.98114 6.85885L3.63963 6.6151L4.29812 6.85885L4.26996 6.15735L4.70504 5.60626L4.02909 5.41622Z" fill="#01AAC1"/>
<path d="M7.20389 5.95221L6.50891 5.18581L6.72867 4.17122L5.74224 3.85033L5.42134 2.8639L4.40676 3.08366L3.64036 2.38867L2.87342 3.08339L1.85937 2.8639L1.53847 3.85033L0.552041 4.17122L0.771804 5.18581L0.152344 5.95221L0.771804 6.71861L0.552041 7.7332L1.53847 8.05409L1.85937 9.04052L2.87395 8.82076L3.64036 9.44022L4.40676 8.82076L5.42134 9.04052L5.74224 8.05409L6.72867 7.7332L6.50917 6.71915L7.20389 5.95221ZM4.81186 6.33281L4.86452 7.63753L3.64036 7.18421L2.41619 7.63754L2.46885 6.33283L1.65943 5.30835L2.91618 4.95565L3.64036 3.86935L4.36453 4.95562L5.62128 5.30832L4.81186 6.33281Z" fill="#01AAC1"/>
<path d="M9.2635 3.81711L8.64404 3.05071L8.8638 2.03613L7.87737 1.71523L7.55648 0.728799L6.54189 0.948562L5.77549 0.329102L5.00909 0.948562L3.9945 0.728799L3.67773 1.70254L4.56175 2.50406L5.7794 2.2405L6.16547 3.42713L7.35211 3.8132L7.08855 5.03085L7.89006 5.91487L8.8638 5.5981L8.64404 4.58352L9.2635 3.81711Z" fill="#01AAC1"/>
</svg>
