<svg width="26" height="25" viewBox="0 0 26 25" fill="none" xmlns="http://www.w3.org/2000/svg">
<rect x="0.152344" width="25" height="25" rx="12.5" fill="#EAEAEA"/>
<path d="M16.4842 9.49367C16.4523 9.4578 16.4165 9.42491 16.3826 9.39004C16.2122 9.21964 16.0408 9.04825 15.8704 8.87785C15.6781 8.68553 15.4858 8.49321 15.2934 8.30089C15.2426 8.25007 15.1918 8.19925 15.141 8.14843C15.0264 8.03384 14.8749 7.9601 14.7095 7.96508C14.5481 7.97006 14.4106 8.04081 14.299 8.15242C14.2422 8.20922 14.1844 8.26701 14.1276 8.32381C13.9293 8.52211 13.731 8.72041 13.5327 8.91871C13.4599 8.99145 13.3872 9.06419 13.3145 9.13693L15.1719 10.9944C15.2177 11.0402 15.2636 11.086 15.3094 11.1319C15.3104 11.1329 15.3114 11.1339 15.3124 11.1349L15.4529 11.2754C15.4569 11.2724 15.4599 11.2684 15.4628 11.2654C15.6841 11.0452 15.9043 10.824 16.1255 10.6027C16.2331 10.4951 16.3407 10.3895 16.4474 10.2809C16.4523 10.2759 16.4563 10.2719 16.4613 10.2669C16.4633 10.2649 16.4663 10.2619 16.4683 10.26C16.6676 10.0457 16.6785 9.71588 16.4842 9.49367Z" fill="#111111"/>
<path d="M15.0286 11.699C14.8801 11.8475 14.7317 11.996 14.5822 12.1454C14.2544 12.4733 13.9265 12.8011 13.5987 13.129C13.2758 13.4518 12.953 13.7747 12.6291 14.0985C12.3501 14.3775 12.0701 14.6575 11.7911 14.9366C11.5938 15.1339 11.3965 15.3312 11.1992 15.5285C11.1244 15.6032 11.0527 15.6809 10.976 15.7517C10.9102 15.8125 10.8454 15.8105 10.7677 15.8095C10.7009 15.8095 10.6342 15.8095 10.5674 15.8095C10.3542 15.8095 10.1409 15.8095 9.92768 15.8085C9.61179 15.8085 9.29591 15.8085 8.98003 15.8075C8.87241 15.8075 8.78074 15.7158 8.78074 15.6082C8.78074 15.5693 8.78074 15.5295 8.78074 15.4906C8.78074 14.9794 8.77974 14.4692 8.77974 13.958C8.77974 13.8932 8.77874 13.8285 8.77974 13.7637C8.78074 13.6989 8.80664 13.6431 8.85049 13.5983C8.91127 13.5355 8.97405 13.4757 9.03484 13.4139C9.32581 13.123 9.61678 12.832 9.90775 12.541C10.3133 12.1355 10.7189 11.7299 11.1244 11.3243L12.2903 10.1585C12.4906 9.95818 12.6899 9.75789 12.8902 9.55859C12.937 9.60543 12.9839 9.65226 13.0307 9.6991C13.0775 9.74593 13.1244 9.79276 13.1712 9.8406C13.4034 10.0728 13.6355 10.305 13.8687 10.5381C14.1617 10.8311 14.4546 11.1241 14.7476 11.417L14.7994 11.4688L14.8881 11.5575C14.9349 11.6044 14.9818 11.6522 15.0286 11.699Z" fill="#111111"/>
<path d="M14.5222 16.4373C14.3388 16.4373 14.1545 16.4373 13.9711 16.4373C13.5297 16.4373 13.0883 16.4373 12.6478 16.4373C12.1137 16.4373 11.5806 16.4373 11.0465 16.4373C10.5851 16.4373 10.1238 16.4373 9.6624 16.4373C9.4382 16.4373 9.21399 16.4333 8.98979 16.4373C8.9868 16.4373 8.98381 16.4373 8.98082 16.4373C8.82437 16.4373 8.6749 16.5748 8.68188 16.7363C8.68885 16.8987 8.81341 17.0352 8.98082 17.0352H9.53187H10.8552H12.4565H13.8406C14.0648 17.0352 14.289 17.0392 14.5132 17.0352H14.5222C14.6786 17.0352 14.8281 16.8977 14.8211 16.7363C14.8142 16.5748 14.6896 16.4373 14.5222 16.4373Z" fill="#111111"/>
</svg>
