<svg width="28" height="28" viewBox="0 0 28 28" fill="none" xmlns="http://www.w3.org/2000/svg">
<path fill-rule="evenodd" clip-rule="evenodd" d="M3.21372 14.5111C3.21372 16.5357 4.86082 18.1828 6.8854 18.1828C8.90998 18.1828 10.5571 16.5357 10.5571 14.5111C10.5571 12.4859 8.90998 10.8388 6.8854 10.8388C4.86082 10.8388 3.21372 12.4859 3.21372 14.5111ZM16.6095 21.7917C16.6095 21.3636 16.2613 21.016 15.8338 21.016C15.4057 21.016 15.0575 21.3636 15.0575 21.7917C15.0575 22.2192 15.4057 22.5674 15.8338 22.5674C16.2613 22.5674 16.6095 22.2192 16.6095 21.7917ZM16.6095 17.9206C16.6095 17.4931 16.2613 17.1449 15.8338 17.1449C15.4057 17.1449 15.0575 17.4931 15.0575 17.9206C15.0575 18.3487 15.4057 18.6969 15.8338 18.6969C16.2613 18.6969 16.6095 18.3487 16.6095 17.9206ZM16.6095 14.0501C16.6095 13.622 16.2613 13.2738 15.8338 13.2738C15.4057 13.2738 15.0575 13.622 15.0575 14.0501C15.0575 14.4776 15.4057 14.8258 15.8338 14.8258C16.2613 14.8258 16.6095 14.4776 16.6095 14.0501ZM16.6095 10.179C16.6095 9.75153 16.2613 9.40333 15.8338 9.40333C15.4057 9.40333 15.0575 9.75153 15.0575 10.179C15.0575 10.6071 15.4057 10.9553 15.8338 10.9553C16.2613 10.9553 16.6095 10.6071 16.6095 10.179ZM25.7945 6.62196V25.4359H14.5026V23.2247C14.5026 22.9076 14.4715 22.5972 14.4136 22.2966C14.6215 22.8802 15.1795 23.2991 15.8338 23.2991C16.665 23.2991 17.3413 22.6229 17.3413 21.7917C17.3413 20.9605 16.665 20.2842 15.8338 20.2842C15.0026 20.2842 14.3257 20.9605 14.3257 21.7917C14.3257 21.8472 14.3294 21.9027 14.3355 21.9569C14.0324 20.8276 13.3348 19.8586 12.3999 19.2067V6.62196H25.7945ZM18.0615 9.82714C17.8596 9.82714 17.6956 9.99118 17.6956 10.193C17.6956 10.3955 17.8596 10.5589 18.0615 10.5589H23.9931C24.195 10.5589 24.359 10.3955 24.359 10.193C24.359 9.99118 24.195 9.82714 23.9931 9.82714H18.0615ZM18.0615 13.6982C17.8596 13.6982 17.6956 13.8617 17.6956 14.0641C17.6956 14.266 17.8596 14.43 18.0615 14.43H23.9931C24.195 14.43 24.359 14.266 24.359 14.0641C24.359 13.8617 24.195 13.6982 23.9931 13.6982H18.0615ZM18.0615 17.5687C17.8596 17.5687 17.6956 17.7328 17.6956 17.9346C17.6956 18.1371 17.8596 18.3005 18.0615 18.3005H23.9931C24.195 18.3005 24.359 18.1371 24.359 17.9346C24.359 17.7328 24.195 17.5687 23.9931 17.5687H18.0615ZM17.6956 21.8057C17.6956 22.0076 17.8596 22.1716 18.0615 22.1716H23.9931C24.195 22.1716 24.359 22.0076 24.359 21.8057C24.359 21.6033 24.195 21.4398 23.9931 21.4398H18.0615C17.8596 21.4398 17.6956 21.6033 17.6956 21.8057ZM17.3413 14.0501C17.3413 14.8813 16.665 15.5576 15.8338 15.5576C15.0026 15.5576 14.3257 14.8813 14.3257 14.0501C14.3257 13.2189 15.0026 12.542 15.8338 12.542C16.665 12.542 17.3413 13.2189 17.3413 14.0501ZM15.8338 16.4131C16.665 16.4131 17.3413 17.0894 17.3413 17.9206C17.3413 18.7524 16.665 19.4287 15.8338 19.4287C15.0026 19.4287 14.3257 18.7524 14.3257 17.9206C14.3257 17.0894 15.0026 16.4131 15.8338 16.4131ZM15.8338 8.67155C16.665 8.67155 17.3413 9.34783 17.3413 10.179C17.3413 11.0102 16.665 11.6871 15.8338 11.6871C15.0026 11.6871 14.3257 11.0102 14.3257 10.179C14.3257 9.34783 15.0026 8.67155 15.8338 8.67155ZM15.6972 4.59494H22.4966C23.1284 4.59494 23.6419 4.14246 23.6419 3.58631V2.89905C23.6419 2.3429 23.1284 1.89042 22.4966 1.89042H21.1746C20.9727 1.89042 20.8087 1.72638 20.8087 1.52453C20.8087 0.684211 20.0409 0 19.0969 0C18.1535 0 17.3852 0.684211 17.3852 1.52453C17.3852 1.72638 17.2217 1.89042 17.0193 1.89042H15.6972C15.0661 1.89042 14.552 2.3429 14.552 2.89905V3.58631C14.552 4.14246 15.0661 4.59494 15.6972 4.59494ZM10.265 11.6913V5.38953C10.265 4.40773 11.0638 3.60888 12.0456 3.60888H13.8208C13.8342 4.55836 14.6703 5.32672 15.6972 5.32672H22.4966C23.5236 5.32672 24.3602 4.55836 24.373 3.60888H26.1482C27.1306 3.60888 27.9295 4.40773 27.9295 5.38953V25.6103C27.9295 26.5927 27.1306 27.3916 26.1482 27.3916H14.5026V26.1677H26.1604C26.3622 26.1677 26.5263 26.0037 26.5263 25.8018V6.25608C26.5263 6.05362 26.3622 5.89019 26.1604 5.89019H12.0341C11.8322 5.89019 11.6682 6.05362 11.6682 6.25608V18.7847C11.2315 18.5804 10.7602 18.4395 10.265 18.3731V17.3303C10.9041 16.5656 11.2889 15.5826 11.2889 14.5111C11.2889 13.4391 10.9041 12.456 10.265 11.6913ZM9.60456 19.0585H4.16625C1.86847 19.0585 0 20.9276 0 23.2247V27.3916H13.7708V23.2247C13.7708 20.9276 11.9017 19.0585 9.60456 19.0585Z" fill="white"/>
</svg>
