<svg width="26" height="25" viewBox="0 0 26 25" fill="none" xmlns="http://www.w3.org/2000/svg">
<rect x="0.152344" width="25" height="25" rx="12.5" fill="#EAEAEA"/>
<path d="M14.546 13.0312L13.4724 14.1085C13.037 14.5454 12.271 14.5548 11.8262 14.1085L10.7526 13.0312L6.89648 16.8998C7.04002 16.9662 7.19828 17.0058 7.36653 17.0058H17.9321C18.1003 17.0058 18.2585 16.9663 18.402 16.8999L14.546 13.0312Z" fill="#111111"/>
<path d="M17.932 7.99219H7.36648C7.19823 7.99219 7.03997 8.0318 6.89648 8.09817L11.017 12.2323C11.0172 12.2326 11.0176 12.2326 11.0178 12.2329C11.0181 12.2332 11.0182 12.2336 11.0182 12.2336L12.358 13.5778C12.5003 13.7201 12.7983 13.7201 12.9406 13.5778L14.2801 12.2338C14.2801 12.2338 14.2804 12.2332 14.2807 12.2329C14.2807 12.2329 14.2813 12.2326 14.2816 12.2323L18.4019 8.09814C18.2585 8.03175 18.1003 7.99219 17.932 7.99219Z" fill="#111111"/>
<path d="M6.36592 8.62109C6.29166 8.77126 6.24609 8.93796 6.24609 9.11652V15.8765C6.24609 16.055 6.29161 16.2217 6.36589 16.3719L10.2286 12.4966L6.36592 8.62109Z" fill="#111111"/>
<path d="M18.9408 8.625L15.0781 12.5006L18.9408 16.3759C19.0151 16.2257 19.0607 16.059 19.0607 15.8804V9.12048C19.0607 8.94187 19.0151 8.77517 18.9408 8.625Z" fill="#111111"/>
</svg>
