<svg width="15" height="17" viewBox="0 0 15 17" fill="none" xmlns="http://www.w3.org/2000/svg">
<path d="M12.9414 9.44557L12.9334 9.45024L12.9255 9.45522C9.72921 11.4821 6.52605 13.4986 3.31602 15.5049L3.30991 15.5087L3.30391 15.5127C3.09506 15.6517 2.85165 15.73 2.60089 15.7386C2.35014 15.7472 2.10193 15.686 1.88401 15.5616C1.66609 15.4372 1.48705 15.2547 1.36694 15.0344C1.24682 14.8142 1.19034 14.5648 1.20382 14.3142L1.20455 14.3008V14.2874V14.2759V14.2643V14.2528V14.2413V14.2298V14.2183V14.2068V14.1952V14.1837V14.1722V14.1607V14.1492V14.1377V14.1261V14.1146V14.1031V14.0916V14.0801V14.0686V14.0571V14.0456V14.034V14.0225V14.011V13.9995V13.988V13.9765V13.965V13.9535V13.9419V13.9304V13.9189V13.9074V13.8959V13.8844V13.8729V13.8614V13.8499V13.8384V13.8268V13.8153V13.8038V13.7923V13.7808V13.7693V13.7578V13.7463V13.7348V13.7233V13.7118V13.7003V13.6888V13.6773V13.6657V13.6542V13.6427V13.6312V13.6197V13.6082V13.5967V13.5852V13.5737V13.5622V13.5507V13.5392V13.5277V13.5162V13.5047V13.4932V13.4817V13.4702V13.4587V13.4472V13.4357V13.4242V13.4127V13.4012V13.3897V13.3782V13.3667V13.3552V13.3437V13.3322V13.3207V13.3092V13.2977V13.2862V13.2747V13.2632V13.2517V13.2402V13.2287V13.2172V13.2057V13.1942V13.1827V13.1712V13.1597V13.1482V13.1367V13.1252V13.1137V13.1022V13.0907V13.0792V13.0677V13.0562V13.0447V13.0332V13.0217V13.0102V12.9987V12.9872V12.9757V12.9642V12.9527V12.9412V12.9297V12.9182V12.9068V12.8953V12.8838V12.8723V12.8608V12.8493V12.8378V12.8263V12.8148V12.8033V12.7918V12.7803V12.7688V12.7573V12.7458V12.7344V12.7229V12.7114V12.6999V12.6884V12.6769V12.6654V12.6539V12.6424V12.6309V12.6194V12.608V12.5965V12.585V12.5735V12.562V12.5505V12.539V12.5275V12.516V12.5045V12.4931V12.4816V12.4701V12.4586V12.4471V12.4356V12.4241V12.4126V12.4011V12.3897V12.3782V12.3667V12.3552V12.3437V12.3322V12.3207V12.3092V12.2978V12.2863V12.2748V12.2633V12.2518V12.2403V12.2288V12.2173V12.2059V12.1944V12.1829V12.1714V12.1599V12.1484V12.1369V12.1255V12.114V12.1025V12.091V12.0795V12.068V12.0565V12.0451V12.0336V12.0221V12.0106V11.9991V11.9876V11.9762V11.9647V11.9532V11.9417V11.9302V11.9187V11.9072V11.8958V11.8843V11.8728V11.8613V11.8498V11.8383V11.8269V11.8154V11.8039V11.7924V11.7809V11.7695V11.758V11.7465V11.735V11.7235V11.712V11.7006V11.6891V11.6776V11.6661V11.6546V11.6431V11.6317V11.6202V11.6087V11.5972V11.5857V11.5743V11.5628V11.5513V11.5398V11.5283V11.5169V11.5054V11.4939V11.4824V11.4709V11.4594V11.448V11.4365V11.425V11.4135V11.402V11.3906V11.3791V11.3676V11.3561V11.3446V11.3332V11.3217V11.3102V11.2987V11.2872V11.2758V11.2643V11.2528V11.2413V11.2299V11.2184V11.2069V11.1954V11.1839V11.1725V11.161V11.1495V11.138V11.1265V11.1151V11.1036V11.0921V11.0806V11.0691V11.0577V11.0462V11.0347V11.0232V11.0118V11.0003V10.9888V10.9773V10.9658V10.9544V10.9429V10.9314V10.9199V10.9084V10.897V10.8855V10.874V10.8625V10.8511V10.8396V10.8281V10.8166V10.8051V10.7937V10.7822V10.7707V10.7592V10.7478V10.7363V10.7248V10.7133V10.7018V10.6904V10.6789V10.6674V10.6559V10.6445V10.633V10.6215V10.61V10.5985V10.5871V10.5756V10.5641V10.5526V10.5412V10.5297V10.5182V10.5067V10.4952V10.4838V10.4723V10.4608V10.4493V10.4379V10.4264V10.4149V10.4034V10.3919V10.3805V10.369V10.3575V10.346V10.3346V10.3231V10.3116V10.3001V10.2887V10.2772V10.2657V10.2542V10.2427V10.2313V10.2198V10.2083V10.1968V10.1854V10.1739V10.1624V10.1509V10.1394V10.128V10.1165V10.105V10.0935V10.0821V10.0706V10.0591V10.0476V10.0361V10.0247V10.0132V10.0017V9.99024V9.97876V9.96728V9.9558V9.94432V9.93285V9.92137V9.90989V9.89841V9.88693V9.87546V9.86398V9.8525V9.84102V9.82954V9.81807V9.80659V9.79511V9.78363V9.77215V9.76067V9.7492V9.73772V9.72624V9.71476V9.70328V9.6918V9.68032V9.66885V9.65737V9.64589V9.63441V9.62293V9.61145V9.59997V9.58849V9.57701V9.56554V9.55406V9.54258V9.5311V9.51962V9.50814V9.49666V9.48518V9.4737V9.46222V9.45074V9.43926V9.42778V9.4163V9.40482V9.39334V9.38186V9.37038V9.3589V9.34742V9.33594V9.32446V9.31298V9.3015V9.29002V9.27854V9.26706V9.25558V9.2441V9.23262V9.22114V9.20966V9.19818V9.1867V9.17521V9.16373V9.15225V9.14077V9.12929V9.11781V9.10633V9.09484V9.08336V9.07188V9.0604V9.04892V9.03743V9.02595V9.01447V9.00299V8.99151V8.98002V8.96854V8.95706V8.94558V8.93409V8.92261V8.91113V8.89964V8.88816V8.87668V8.86519V8.85371V8.84223V8.83074V8.81926V8.80778V8.79629V8.78481V8.77332V8.76184V8.75036V8.73887V8.72739V8.7159V8.70442V8.69293V8.68145V8.66996V8.65848V8.64699V8.63551V8.62402V8.61254V8.60105V8.58957V8.57808V8.5666V8.55511V8.54362V8.53214V8.52065V8.50916V8.49768V8.48619V8.47471V8.46322V8.45173V8.44024V8.42876V8.41727V8.40578V8.3943V8.38281V8.37132V8.35984V8.34836V8.33688V8.3254V8.31392V8.30244V8.29096V8.27948V8.26801V8.25653V8.24506V8.23359V8.22212V8.21065V8.19918V8.18771V8.17624V8.16477V8.15331V8.14184V8.13038V8.11892V8.10746V8.096V8.08454V8.07308V8.06162V8.05016V8.03871V8.02725V8.0158V8.00435V7.99289V7.98144V7.96999V7.95854V7.9471V7.93565V7.9242V7.91276V7.90131V7.88987V7.87843V7.86699V7.85554V7.8441V7.83267V7.82123V7.80979V7.79835V7.78692V7.77548V7.76405V7.75262V7.74119V7.72976V7.71833V7.7069V7.69547V7.68404V7.67261V7.66119V7.64976V7.63834V7.62692V7.61549V7.60407V7.59265V7.58123V7.56981V7.55839V7.54698V7.53556V7.52414V7.51273V7.50131V7.4899V7.47849V7.46708V7.45567V7.44426V7.43285V7.42144V7.41003V7.39862V7.38722V7.37581V7.36441V7.353V7.3416V7.3302V7.31879V7.30739V7.29599V7.28459V7.2732V7.2618V7.2504V7.239V7.22761V7.21621V7.20482V7.19343V7.18203V7.17064V7.15925V7.14786V7.13647V7.12508V7.11369V7.1023V7.09091V7.07953V7.06814V7.05676V7.04537V7.03399V7.02261V7.01122V6.99984V6.98846V6.97708V6.9657V6.95432V6.94294V6.93156V6.92019V6.90881V6.89744V6.88606V6.87469V6.86331V6.85194V6.84056V6.82919V6.81782V6.80645V6.79508V6.78371V6.77234V6.76097V6.7496V6.73824V6.72687V6.7155V6.70414V6.69277V6.68141V6.67005V6.65868V6.64732V6.63596V6.6246V6.61323V6.60187V6.59051V6.57915V6.5678V6.55644V6.54508V6.53372V6.52237V6.51101V6.49965V6.4883V6.47694V6.46559V6.45424V6.44288V6.43153V6.42018V6.40883V6.39748V6.38613V6.37478V6.36343V6.35208V6.34073V6.32938V6.31803V6.30669V6.29534V6.28399V6.27265V6.2613V6.24996V6.23861V6.22727V6.21593V6.20458V6.19324V6.1819V6.17056V6.15921V6.14787V6.13653V6.12519V6.11385V6.10251V6.09118V6.07984V6.0685V6.05716V6.04582V6.03449V6.02315V6.01181V6.00048V5.98914V5.97781V5.96647V5.95514V5.94381V5.93247V5.92114V5.90981V5.89847V5.88714V5.87581V5.86448V5.85315V5.84182V5.83049V5.81916V5.80783V5.7965V5.78517V5.77384V5.76251V5.75118V5.73986V5.72853V5.7172V5.70587V5.69455V5.68322V5.6719V5.66057V5.64924V5.63792V5.6266V5.61527V5.60395V5.59262V5.5813V5.56997V5.55865V5.54733V5.53601V5.52468V5.51336V5.50204V5.49072V5.4794V5.46807V5.45675V5.44543V5.43411V5.42279V5.41147V5.40015V5.38883V5.37751V5.36619V5.35487V5.34355V5.33224V5.32092V5.3096V5.29828V5.28696V5.27564V5.26433V5.25301V5.24169V5.23038V5.21906V5.20774V5.19642V5.18511V5.17379V5.16248V5.15116V5.13984V5.12853V5.11721V5.1059V5.09458V5.08327V5.07195V5.06064V5.04932V5.03801V5.02669V5.01538V5.00406V4.99275V4.98143V4.97012V4.9588V4.94749V4.93618V4.92486V4.91355V4.90224V4.89092V4.87961V4.86829V4.85698V4.84567V4.83435V4.82304V4.81173V4.80041V4.7891V4.77779V4.76647V4.75516V4.74385V4.73253V4.72122V4.70991V4.6986V4.68728V4.67597V4.66466V4.65334V4.64203V4.63072V4.6194V4.60809V4.59678V4.58546V4.57415V4.56284V4.55153V4.54021V4.5289V4.51759V4.50627V4.49496V4.48365V4.47233V4.46102V4.44971V4.43839V4.42708V4.41576V4.40445V4.39314V4.38182V4.37051V4.35919V4.34788V4.33657V4.32525V4.31394V4.30262V4.29131V4.27999V4.26868V4.25736V4.24605V4.23473V4.22342V4.2121V4.20079V4.18947V4.17815V4.16684V4.15552V4.14421V4.13289V4.12157V4.11026V4.09894V4.08762V4.0763V4.06499V4.05367V4.04235V4.03103V4.01972V4.0084V3.99708V3.98576V3.97444V3.96312V3.9518V3.94048V3.92916V3.91784V3.90652V3.8952V3.88388V3.87256V3.86124V3.84992V3.8386V3.82728V3.81595V3.80463V3.79331V3.78199V3.77066V3.75934V3.74802V3.73669V3.72537V3.71405V3.70272V3.6914V3.68007V3.66875V3.65742V3.64609V3.63477V3.62344V3.61211V3.60079V3.58946V3.57813V3.5668V3.55548V3.54415V3.53282V3.52149V3.51016V3.49883V3.4875V3.47617V3.46484V3.45351V3.44218V3.43084V3.41951V3.40818V3.39685V3.38551V3.37418V3.36284V3.35151V3.34018V3.32884V3.3175V3.30617V3.29483V3.2835V3.27216V3.26082V3.24948V3.23814V3.22681V3.21547V3.20413V3.19279V3.18145V3.17011V3.15876V3.14742V3.13608V3.12474V3.1134V3.10205V3.09071V3.07936V3.06802V3.05667V3.04533V3.03398V3.02264V3.01129V2.99994V2.98859V2.97724V2.9659V2.95455V2.9432V2.93185V2.92049V2.90914V2.89779V2.88644V2.87509V2.86373V2.85238V2.84102V2.82967V2.81831V2.80696V2.7956V2.78424V2.77289V2.76153V2.75017V2.73881V2.72745V2.71609V2.70473V2.69337V2.68201V2.67064V2.65928V2.64792V2.63655V2.62519V2.61382V2.60246V2.59109V2.57228L1.20313 2.55352C1.18144 2.26571 1.25031 1.97833 1.40009 1.73164C1.54988 1.48493 1.77308 1.29125 2.03843 1.17772L2.04536 1.17476L2.0522 1.17158C2.25804 1.07608 2.48502 1.03518 2.71127 1.05283C2.93751 1.07049 3.15539 1.1461 3.34394 1.27239L3.35733 1.28136L3.37127 1.28945C5.83316 2.71783 8.3088 4.14154 10.7755 5.56007L11.1893 5.79808L11.1914 5.79925C11.7529 6.11865 12.3099 6.43551 12.8612 6.76219L12.8721 6.76863L12.8832 6.77451C13.1245 6.90147 13.3273 7.0907 13.4708 7.32253C13.6142 7.55436 13.693 7.82035 13.6989 8.0929C13.7048 8.36545 13.6377 8.63463 13.5045 8.87248C13.3713 9.11034 13.1769 9.30822 12.9414 9.44557Z" stroke="#232323"/>
</svg>
