<svg width="29" height="17" viewBox="0 0 29 17" fill="none" xmlns="http://www.w3.org/2000/svg">
<path d="M24.7124 4.59912C22.8295 4.23771 20.9222 4.42935 19.2587 5.18477C19.4608 5.92985 19.5677 6.70276 19.5677 7.49277C19.5677 10.2489 18.2892 12.8061 16.0312 14.6462C18.4441 14.7901 20.7969 14.0279 22.5229 12.3139C24.5519 10.2986 25.262 7.42081 24.7124 4.59952V4.59912Z" fill="#01AAC1"/>
<path d="M25.3719 9.41846C24.9372 10.7548 24.2047 11.9694 23.188 12.9785C21.4852 14.6694 19.148 15.6061 16.6063 15.6061C16.4934 15.6061 16.3797 15.6025 16.2656 15.5974C18.1217 16.7456 20.308 17.2072 22.4799 16.7218C25.2798 16.0964 27.4289 14.0416 28.4836 11.3658C27.563 10.5059 26.5051 9.84189 25.3723 9.41846H25.3719Z" fill="#01AAC1"/>
<path d="M12.7441 15.6061C10.2024 15.6061 7.86479 14.669 6.16203 12.9781C5.14573 11.9686 4.41282 10.7544 3.97813 9.41846C2.84535 9.84189 1.78742 10.5059 0.867188 11.3658C1.92191 14.0412 4.07059 16.0964 6.87091 16.7218C9.0428 17.2072 11.2291 16.746 13.0848 15.5974C12.9707 15.6022 12.8574 15.6057 12.7445 15.6057L12.7441 15.6061Z" fill="#01AAC1"/>
<path d="M9.80283 7.49228C9.80283 6.70545 9.9081 5.93532 10.109 5.19302C8.4407 4.43084 6.52658 4.23642 4.63608 4.59902C4.08691 7.42031 4.79659 10.2977 6.82639 12.313C8.55718 14.0318 10.9184 14.7944 13.3381 14.6441C11.0813 12.8045 9.80323 10.248 9.80323 7.49228H9.80283Z" fill="#01AAC1"/>
<path d="M10.7422 7.4923C10.7422 10.3426 12.2893 12.8756 14.6861 14.4851C17.0829 12.8756 18.63 10.3426 18.63 7.4923C18.63 4.64199 17.0829 2.10855 14.6861 0.499512C12.2893 2.10895 10.7422 4.64159 10.7422 7.4923Z" fill="#01AAC1"/>
</svg>
