<svg width="46" height="45" viewBox="0 0 46 45" fill="none" xmlns="http://www.w3.org/2000/svg">
<rect x="0.645508" y="0.131836" width="44.6797" height="44.6797" rx="22.3398" fill="#01AAC1"/>
<path d="M33.2771 13.6079H12.6943C12.3405 13.6079 12.0537 13.8864 12.0537 14.23V30.7133C12.0537 31.0569 12.3405 31.3354 12.6943 31.3354H33.2771C33.6309 31.3354 33.9177 31.0569 33.9177 30.7133V14.23C33.9177 13.8864 33.6309 13.6079 33.2771 13.6079ZM20.2759 24.5601V20.3833C20.2759 20.0845 20.4514 19.8122 20.7338 19.6726C21.0207 19.5308 21.3698 19.5498 21.6354 19.7186L25.3005 21.7964C25.3192 21.807 25.3372 21.8185 25.3547 21.8308C25.5714 21.984 25.6957 22.2176 25.6957 22.4717C25.6957 22.7257 25.5714 22.9593 25.3547 23.1126C25.3372 23.1249 25.3192 23.1364 25.3005 23.1469L21.6354 25.2248C21.4886 25.3179 21.3166 25.3654 21.1434 25.3654C21.0032 25.3654 20.8622 25.3341 20.7338 25.2706C20.4512 25.1311 20.2759 24.8588 20.2759 24.5601ZM27.095 15.9353V14.8521H29.2443V15.9353H27.095ZM25.8139 15.9353H23.6644V14.8521H25.8139V15.9353ZM22.3833 15.9353H20.234V14.8521H22.3833V15.9353ZM18.9529 15.9353H16.8036V14.8521H18.9529V15.9353ZM18.9529 29.0081V30.0912H16.8036V29.0081H18.9529ZM20.234 29.0081H22.3833V30.0912H20.234V29.0081ZM23.6644 29.0081H25.8139V30.0912H23.6644V29.0081ZM27.095 29.0081H29.2443V30.0912H27.095V29.0081ZM32.6366 15.9353H30.5254V14.8521H32.6366V15.9353ZM15.5225 14.8521V15.9353H13.3348V14.8521H15.5225ZM13.3348 29.0081H15.5225V30.0912H13.3348V29.0081ZM30.5254 30.0912V29.0081H32.6366V30.0912H30.5254Z" fill="white"/>
</svg>
