 <svg
              width="20"
              height="25"
              viewBox="0 0 20 25"
              fill="none"
              xmlns="http://www.w3.org/2000/svg"
            >
              <path
                d="M13.8554 0.796875H3.03956C1.908 0.796875 0.988281 1.7166 0.988281 2.84816V16.6477C0.988281 17.7793 1.908 18.699 3.03956 18.699H13.8554C14.987 18.699 15.9067 17.7793 15.9067 16.6477V2.84816C15.9067 1.7166 14.987 0.796875 13.8554 0.796875ZM3.22604 7.32368C3.22604 7.01487 3.47667 6.76424 3.78549 6.76424H7.88805C8.19686 6.76424 8.44749 7.01487 8.44749 7.32368V8.0696C8.44749 8.37842 8.19686 8.62904 7.88805 8.62904C7.57924 8.62904 7.32861 8.37842 7.32861 8.0696V7.88312H6.39621V10.8668C6.70502 10.8668 6.95565 11.1174 6.95565 11.4262C6.95565 11.7351 6.70502 11.9857 6.39621 11.9857H5.27733C4.96852 11.9857 4.71789 11.7351 4.71789 11.4262C4.71789 11.1174 4.96852 10.8668 5.27733 10.8668V7.88312H4.34493V8.0696C4.34493 8.37842 4.0943 8.62904 3.78549 8.62904C3.47667 8.62904 3.22604 8.37842 3.22604 8.0696V7.32368ZM13.1095 16.4612H3.78549C3.47667 16.4612 3.22604 16.2106 3.22604 15.9018C3.22604 15.593 3.47667 15.3423 3.78549 15.3423H13.1095C13.4183 15.3423 13.6689 15.593 13.6689 15.9018C13.6689 16.2106 13.4183 16.4612 13.1095 16.4612ZM13.1095 14.2235H3.78549C3.47667 14.2235 3.22604 13.9728 3.22604 13.664C3.22604 13.3552 3.47667 13.1046 3.78549 13.1046H13.1095C13.4183 13.1046 13.6689 13.3552 13.6689 13.664C13.6689 13.9728 13.4183 14.2235 13.1095 14.2235ZM13.1095 11.9857H10.4988C10.19 11.9857 9.93933 11.7351 9.93933 11.4262C9.93933 11.1174 10.19 10.8668 10.4988 10.8668H13.1095C13.4183 10.8668 13.6689 11.1174 13.6689 11.4262C13.6689 11.7351 13.4183 11.9857 13.1095 11.9857ZM13.1095 9.93441H10.4988C10.19 9.93441 9.93933 9.68378 9.93933 9.37497C9.93933 9.06615 10.19 8.81553 10.4988 8.81553H13.1095C13.4183 8.81553 13.6689 9.06615 13.6689 9.37497C13.6689 9.68378 13.4183 9.93441 13.1095 9.93441ZM13.1095 7.88312H10.4988C10.19 7.88312 9.93933 7.63249 9.93933 7.32368C9.93933 7.01487 10.19 6.76424 10.4988 6.76424H13.1095C13.4183 6.76424 13.6689 7.01487 13.6689 7.32368C13.6689 7.63249 13.4183 7.88312 13.1095 7.88312Z"
                fill="white"
              />
            </svg>