<svg width="46" height="46" viewBox="0 0 46 46" fill="none" xmlns="http://www.w3.org/2000/svg">
<rect x="0.717773" y="0.577148" width="44.6797" height="44.6797" rx="22.3398" fill="#01AAC1"/>
<path d="M34.577 22.5663L28.6299 16.6192C28.4449 16.4342 28.1177 16.4342 27.9328 16.6192L26.6435 17.9085C26.4509 18.1011 26.4509 18.4132 26.6435 18.6058L30.9528 22.9147L26.6437 27.2243C26.4511 27.4169 26.4511 27.729 26.6437 27.9216L27.933 29.211C28.0255 29.3034 28.151 29.3557 28.2817 29.3557C28.4121 29.3557 28.5379 29.3034 28.6303 29.211L34.577 23.2641C34.7695 23.0713 34.7695 22.7589 34.577 22.5663Z" fill="white"/>
<path d="M19.4713 27.2247L15.1626 22.9156L19.472 18.6067C19.5645 18.5143 19.6165 18.389 19.6165 18.2581C19.6165 18.1274 19.5647 18.0019 19.472 17.9094L18.1827 16.6201C18.0902 16.5276 17.9647 16.4756 17.834 16.4756C17.7033 16.4756 17.5778 16.5276 17.4853 16.6201L11.538 22.5667C11.3454 22.7593 11.3454 23.0714 11.538 23.2643L17.4851 29.2111C17.5776 29.3036 17.7031 29.3559 17.8338 29.3559C17.9644 29.3559 18.0899 29.3036 18.1824 29.2111L19.4717 27.9218C19.6643 27.7295 19.6643 27.4173 19.4713 27.2247Z" fill="white"/>
<path d="M26.4398 14.6188C26.3772 14.5039 26.2717 14.4186 26.1464 14.3816L25.1012 14.0731C24.8403 13.9957 24.5656 14.1454 24.4887 14.4065L19.6364 30.8389C19.5994 30.9644 19.6137 31.0993 19.6761 31.214C19.7384 31.3291 19.8442 31.4142 19.9695 31.4514L21.0147 31.7599C21.0613 31.7737 21.1084 31.7804 21.1545 31.7804C21.3673 31.7804 21.5638 31.6413 21.6272 31.4265L26.4795 14.9939C26.5165 14.8683 26.5025 14.7335 26.4398 14.6188Z" fill="white"/>
</svg>
