<svg width="46" height="46" viewBox="0 0 46 46" fill="none" xmlns="http://www.w3.org/2000/svg">
<rect x="0.544434" y="0.5" width="44.9111" height="44.9111" rx="22.4556" fill="#01AAC1"/>
<path d="M20.3618 14.0796V14.8185H30.4889V27.3979H31.4591V14.0796H20.3618Z" fill="white"/>
<path d="M18.4233 16.2973H28.5496V28.876H29.5197V15.5571H18.4233V16.2973Z" fill="white"/>
<path d="M16.479 17.7762H26.6051V30.354H27.5755V17.0361H16.479V17.7762Z" fill="white"/>
<path d="M14.5376 31.8319H25.6352V18.5146H14.5376V31.8319ZM16.9143 21.8288H22.6349V22.2944H16.9143V21.8288ZM16.9143 23.9026H21.3209V24.3692H16.9143V23.9026ZM16.9143 25.9759H21.3209V26.4434H16.9143V25.9759ZM16.9143 28.0517H22.6349V28.5179H16.9143V28.0517Z" fill="white"/>
</svg>

