<svg
              width="32"
              height="19"
              viewBox="0 0 32 19"
              fill="none"
              xmlns="http://www.w3.org/2000/svg"
            >
              <path
                d="M19.7386 11.8894C18.9417 11.4541 18.0277 11.207 17.0561 11.207H14.747C13.7482 11.207 12.8107 11.4683 11.9989 11.926C10.2917 12.887 9.13867 14.7168 9.13867 16.8154V18.5455H22.6645V16.8154C22.6645 14.6896 21.4818 12.8406 19.7386 11.8894Z"
                fill="white"
              />
              <path
                d="M26.1175 9.67188H24.1979C23.0771 9.67188 22.0325 10.0032 21.1562 10.5741C21.5773 10.8503 21.973 11.1729 22.3377 11.5376C23.7477 12.9476 24.5242 14.8226 24.5242 16.8172V17.6308H31.7091V15.2635C31.7091 12.1804 29.2007 9.67188 26.1175 9.67188Z"
                fill="white"
              />
              <path
                d="M7.51711 9.67188H5.5975C2.51436 9.67188 0.00585938 12.1804 0.00585938 15.2635V17.6308H7.28428V16.8172C7.28428 14.8226 8.06141 12.9476 9.47139 11.5376C9.82249 11.1865 10.2021 10.8744 10.6058 10.6051C9.72032 10.0155 8.65834 9.67188 7.51711 9.67188Z"
                fill="white"
              />
              <path
                d="M25.1565 1.26172C25.1467 1.26172 25.1365 1.26178 25.1266 1.2619C23.0486 1.27906 21.3727 3.07513 21.3908 5.26553C21.4088 7.44552 23.0977 9.20704 25.1622 9.20704C25.1722 9.20704 25.1823 9.20698 25.1922 9.20686C26.2112 9.19844 27.162 8.76919 27.8696 7.99806C28.5608 7.24483 28.9367 6.25233 28.9281 5.20323C28.9101 3.02324 27.2212 1.26172 25.1565 1.26172Z"
                fill="white"
              />
              <path
                d="M6.55499 1.26172C6.54514 1.26172 6.53492 1.26178 6.52501 1.2619C4.44701 1.27906 2.77113 3.07513 2.78921 5.26553C2.80717 7.44552 4.49611 9.20704 6.56068 9.20704C6.57059 9.20704 6.58075 9.20698 6.59065 9.20686C7.60953 9.19844 8.56042 8.76919 9.26807 7.99806C9.95932 7.24483 10.3352 6.25233 10.3265 5.20323C10.3085 3.02324 8.61962 1.26172 6.55499 1.26172Z"
                fill="white"
              />
              <path
                d="M15.9051 0.644531C13.5093 0.644531 11.5605 2.70347 11.5605 5.23487C11.5605 7.06408 12.5786 8.64682 14.048 9.38371C14.6115 9.66669 15.2412 9.8246 15.9051 9.8246C16.5689 9.8246 17.1986 9.66669 17.7621 9.38371C19.2316 8.64682 20.2496 7.06408 20.2496 5.23487C20.2496 2.70347 18.3009 0.644531 15.9051 0.644531Z"
                fill="white"
              />
            </svg>