<svg width="19" height="18" viewBox="0 0 19 18" fill="none" xmlns="http://www.w3.org/2000/svg">
<path d="M2.34161 10.2063C2.11369 8.66194 2.37868 7.08501 3.09886 5.69994C3.81904 4.31487 4.95773 3.19223 6.35288 2.49178C7.74803 1.79133 9.32856 1.54875 10.8696 1.79856C12.4106 2.04837 13.8335 2.77785 14.9359 3.88319L14.3219 4.4972C14.2942 4.52487 14.2746 4.55963 14.2652 4.59768C14.2559 4.63573 14.2572 4.67561 14.269 4.71297C14.2808 4.75033 14.3026 4.78374 14.3321 4.80955C14.3616 4.83535 14.3975 4.85257 14.4361 4.85932L17.1629 5.34053C17.1968 5.34654 17.2317 5.34427 17.2645 5.33392C17.2974 5.32356 17.3272 5.30544 17.3515 5.28107C17.3759 5.25671 17.394 5.22683 17.4043 5.19397C17.4146 5.16112 17.4168 5.12626 17.4108 5.09236L16.9287 2.36588C16.9219 2.32729 16.9047 2.29131 16.8788 2.26185C16.853 2.23239 16.8196 2.21058 16.7822 2.1988C16.7448 2.18702 16.7049 2.18572 16.6669 2.19503C16.6288 2.20435 16.594 2.22393 16.5663 2.25164L15.9426 2.87536C14.6291 1.56032 12.9348 0.692335 11.1001 0.394564C9.26549 0.0967933 7.38365 0.384363 5.72165 1.21647C4.05965 2.04857 2.70191 3.38295 1.84109 5.03025C0.980268 6.67756 0.660082 8.55412 0.925967 10.3937C0.950811 10.5814 1.04921 10.7516 1.19952 10.8667C1.34983 10.9819 1.53974 11.0327 1.72746 11.0078C1.91519 10.983 2.08536 10.8846 2.20053 10.7343C2.31571 10.584 2.36646 10.3941 2.34161 10.2063Z" fill="#01AAC1"/>
<path d="M18.4509 7.86555C18.4305 7.7249 18.3688 7.59347 18.2736 7.488C18.1783 7.38252 18.0538 7.30777 17.916 7.27325C17.8035 7.2444 17.6857 7.24356 17.5729 7.2708C17.46 7.29804 17.3555 7.35253 17.2686 7.4295C17.1817 7.50646 17.115 7.60356 17.0743 7.71229C17.0336 7.82102 17.0202 7.93807 17.0352 8.05318C17.2628 9.59747 16.9977 11.1742 16.2774 12.5591C15.5572 13.944 14.4186 15.0665 13.0236 15.7669C11.6286 16.4673 10.0482 16.71 8.50731 16.4604C6.96642 16.2108 5.54348 15.4816 4.44093 14.3766L5.05522 13.7623C5.08293 13.7346 5.10251 13.6998 5.11183 13.6618C5.12115 13.6237 5.11985 13.5838 5.10807 13.5464C5.09629 13.5091 5.07448 13.4756 5.04502 13.4498C5.01556 13.424 4.97958 13.4067 4.94099 13.3999L2.21508 12.9187C2.18117 12.9127 2.14631 12.915 2.11347 12.9253C2.08063 12.9357 2.05077 12.9538 2.02643 12.9782C2.0021 13.0025 1.984 13.0324 1.97369 13.0653C1.96337 13.0981 1.96114 13.133 1.96719 13.1669L2.44811 15.8933C2.45492 15.9319 2.47218 15.9679 2.49802 15.9974C2.52386 16.0268 2.55728 16.0486 2.59466 16.0604C2.63203 16.0722 2.67192 16.0735 2.70998 16.0642C2.74804 16.0549 2.78282 16.0353 2.81052 16.0076L3.43424 15.3839C4.74788 16.6985 6.44212 17.5662 8.27664 17.8637C10.1112 18.1613 11.9928 17.8737 13.6546 17.0416C15.3165 16.2096 16.6741 14.8754 17.535 13.2284C18.3959 11.5813 18.7164 9.70498 18.4509 7.86555Z" fill="#01AAC1"/>
<path d="M9.02062 2.93494C8.7192 2.80583 8.38605 2.76988 8.06403 2.83172C7.74201 2.89356 7.44587 3.05036 7.21372 3.28193L3.98261 6.51304C3.75104 6.74519 3.59424 7.04133 3.53241 7.36335C3.47057 7.68536 3.50652 8.01852 3.63563 8.31993C3.65402 8.36322 3.68274 8.40134 3.71928 8.43096C3.75581 8.46058 3.79905 8.4808 3.8452 8.48984C3.89136 8.49889 3.93903 8.49649 3.98404 8.48285C4.02906 8.46921 4.07004 8.44475 4.10341 8.41161L9.11229 3.40273C9.14543 3.36936 9.16989 3.32837 9.18353 3.28336C9.19717 3.23835 9.19957 3.19068 9.19053 3.14452C9.18148 3.09837 9.16126 3.05513 9.13165 3.01859C9.10203 2.98206 9.0639 2.95334 9.02062 2.93494Z" fill="#01AAC1"/>
<path d="M10.3559 15.0388C10.6574 15.1679 10.9905 15.2038 11.3125 15.142C11.6346 15.0802 11.9307 14.9234 12.1628 14.6918L15.394 11.4607C15.6255 11.2285 15.7823 10.9324 15.8442 10.6104C15.906 10.2884 15.87 9.95521 15.7409 9.6538C15.7225 9.61051 15.6938 9.57239 15.6573 9.54277C15.6208 9.51315 15.5775 9.49293 15.5314 9.48389C15.4852 9.47484 15.4375 9.47725 15.3925 9.49089C15.3475 9.50452 15.3065 9.52898 15.2732 9.56213L10.2643 14.571C10.2311 14.6044 10.2067 14.6454 10.193 14.6904C10.1794 14.7354 10.177 14.7831 10.186 14.8292C10.1951 14.8754 10.2153 14.9186 10.2449 14.9551C10.2745 14.9917 10.3127 15.0204 10.3559 15.0388Z" fill="#01AAC1"/>
<path d="M12.8821 10.168L11.3742 10.6721L10.8702 12.18C10.8124 12.3518 10.7956 12.5348 10.8212 12.7143C10.8467 12.8938 10.9139 13.0649 11.0173 13.2138L13.916 10.3151C13.767 10.2117 13.596 10.1446 13.4165 10.119C13.237 10.0935 13.054 10.1103 12.8821 10.168Z" fill="#01AAC1"/>
<path d="M10.7076 13.5199C10.5487 13.313 10.4431 13.0701 10.4003 12.8127C10.3575 12.5553 10.3787 12.2913 10.462 12.044L10.9989 10.4336C11.0094 10.402 11.027 10.3734 11.0505 10.3499C11.074 10.3263 11.1027 10.3087 11.1343 10.2982L12.7447 9.76133C12.992 9.67798 13.256 9.65679 13.5134 9.69962C13.7707 9.74246 14.0136 9.848 14.2206 10.0069L14.836 9.39178C14.3158 8.88308 13.6796 8.50851 12.9824 8.30035C12.2852 8.09219 11.5478 8.05669 10.8338 8.1969C10.7262 8.62014 10.5623 9.02702 10.3464 9.40663C10.3179 9.45615 10.2832 9.50175 10.243 9.54229C10.2026 9.58248 10.1571 9.61714 10.1076 9.64538C9.72796 9.8615 9.32097 10.0256 8.89758 10.1332C8.75737 10.8472 8.79288 11.5845 9.00104 12.2817C9.2092 12.979 9.58377 13.6151 10.0925 14.1354L10.7076 13.5199Z" fill="#01AAC1"/>
<path d="M9.89481 9.2738C9.9279 9.2547 9.95538 9.22722 9.97449 9.19412C10.3114 8.60173 10.5088 7.94029 10.5516 7.26013C10.5944 6.57997 10.4815 5.89901 10.2215 5.26904L9.65891 6.31343C9.05695 7.43621 8.13689 8.35627 7.01411 8.95823L5.96973 9.52083C6.59969 9.78082 7.28065 9.8937 7.96081 9.85089C8.64097 9.80809 9.30241 9.61072 9.89481 9.2738Z" fill="#01AAC1"/>
<path d="M6.81215 8.58219C7.86108 8.01933 8.72075 7.15967 9.28361 6.11074L9.99271 4.79219C9.79981 4.44406 9.56113 4.12335 9.28304 3.83862L4.54004 8.58162C4.82477 8.85971 5.14548 9.0984 5.49361 9.2913L6.81215 8.58219Z" fill="#01AAC1"/>
</svg>
