<svg width="13" height="15" viewBox="0 0 13 15" fill="none" xmlns="http://www.w3.org/2000/svg">
<path d="M7.25729 13.5368C7.46651 13.7879 7.32957 14.2433 7.00286 14.2353C5.85711 14.2242 4.70931 14.2353 3.56696 14.159C3.02169 14.1215 2.47165 13.9598 1.9625 13.7544C0.940114 13.3436 0.541382 12.4609 0.517527 11.4116C0.467771 9.22285 1.39474 7.57124 3.25548 6.46437C3.41565 6.36861 3.52811 6.38388 3.68215 6.48658C5.05897 7.40538 6.43919 7.39289 7.81941 6.48242C7.88011 6.44103 7.95006 6.41729 8.02183 6.41279C8.08687 6.40871 8.12598 6.41891 8.1861 6.44406C9.07638 6.81648 8.60406 7.9246 7.82189 8.48985C7.17699 8.9559 6.72923 9.65509 6.50598 10.6073C6.29994 11.4895 6.4515 12.57 7.25729 13.5368Z" fill="#111111"/>
<path d="M8.93084 3.48524C8.93304 4.344 8.60165 5.16881 8.00895 5.77981C7.41625 6.3908 6.61031 6.73842 5.76689 6.74684C5.34642 6.75133 4.92923 6.67114 4.53929 6.5109C4.14936 6.35066 3.79439 6.11353 3.49478 5.81313C3.19518 5.51273 2.95685 5.15499 2.7935 4.76049C2.63015 4.36599 2.54501 3.94251 2.54297 3.51439C2.54494 2.65591 2.8804 1.83308 3.47611 1.22552C4.07182 0.61796 4.87941 0.275008 5.72259 0.271528C6.56586 0.267075 7.37659 0.602558 7.97771 1.2047C8.57883 1.80685 8.92149 2.62672 8.93084 3.48524Z" fill="#111111"/>
<path d="M9.8728 8.34801C9.48931 8.34195 9.10844 8.41345 8.75229 8.55837C8.39613 8.70328 8.07177 8.91874 7.79801 9.19224C7.52425 9.46574 7.30653 9.79184 7.15748 10.1516C7.00842 10.5115 6.931 10.8978 6.92969 11.2883C6.92824 12.0711 7.23197 12.8226 7.77419 13.3776C8.3164 13.9327 9.0528 14.246 9.82168 14.2487C10.5901 14.2552 11.3296 13.9508 11.8777 13.4025C12.4259 12.8542 12.7378 12.1067 12.745 11.3244C12.7489 10.9368 12.6776 10.5522 12.5353 10.1928C12.3929 9.83326 12.1823 9.5059 11.9155 9.22941C11.6487 8.95292 11.3309 8.73275 10.9804 8.5815C10.6299 8.43026 10.2535 8.35091 9.8728 8.34801ZM10.9573 12.4451C10.7541 12.6392 10.4288 12.6197 10.2503 12.4027C10.0515 12.161 9.67877 12.1693 9.49082 12.4196L9.48296 12.4301C9.29359 12.6823 8.9195 12.6945 8.71401 12.4553L8.68633 12.4231C8.51063 12.2186 8.51743 11.9145 8.7021 11.718L8.77179 11.6438C8.97501 11.4276 8.94954 11.0838 8.71669 10.8998C8.47929 10.7123 8.45824 10.3597 8.67191 10.1456C8.67697 10.1405 8.68201 10.1354 8.68705 10.1304C8.89007 9.92691 9.21895 9.92495 9.42477 10.1256L9.47731 10.1768C9.6894 10.3836 10.033 10.3647 10.2212 10.136C10.4123 9.90377 10.7626 9.88851 10.9731 10.1033L10.9921 10.1226C11.1998 10.3344 11.1842 10.678 10.9582 10.8702C10.722 11.0711 10.7175 11.4343 10.9487 11.641L10.9709 11.6608C11.1957 11.8618 11.2016 12.2117 10.9835 12.42L10.9573 12.4451Z" fill="#D94242"/>
</svg>
