<svg
              width="22"
              height="19"
              viewBox="0 0 22 19"
              fill="none"
              xmlns="http://www.w3.org/2000/svg"
            >
              <path
                fill-rule="evenodd"
                clip-rule="evenodd"
                d="M5.20445 18.6759H2.36308C2.0948 18.6759 1.87529 18.4564 1.87529 18.1881V14.8834H0.9363C0.75338 14.8834 0.582653 14.7858 0.49729 14.6151C0.424122 14.4444 0.436317 14.2492 0.546069 14.1029L3.39964 10.3103C3.485 10.1884 3.63133 10.1152 3.78987 10.1152C3.9362 10.1152 4.08254 10.1884 4.1801 10.3103L6.98488 14.0663C7.07025 14.1517 7.11903 14.2736 7.11903 14.3956C7.11903 14.6639 6.89952 14.8834 6.63124 14.8834H5.69224V18.1881C5.69224 18.4564 5.47274 18.6759 5.20445 18.6759Z"
                fill="white"
              />
              <path
                fill-rule="evenodd"
                clip-rule="evenodd"
                d="M12.278 18.675H9.42446C9.15618 18.675 8.94887 18.4555 8.94887 18.1872V13.4556H8.00987C7.82695 13.4556 7.65623 13.3459 7.57086 13.1874C7.4855 13.0166 7.50989 12.8215 7.61964 12.6752L10.461 8.88262C10.5586 8.76067 10.7049 8.6875 10.8512 8.6875C11.0098 8.6875 11.1561 8.76067 11.2415 8.88262L14.0585 12.6386C14.1438 12.724 14.1926 12.8337 14.1926 12.9678C14.1926 13.2361 13.9731 13.4556 13.7048 13.4556H12.7658V18.1872C12.7658 18.4555 12.5463 18.675 12.278 18.675Z"
                fill="white"
              />
              <path
                fill-rule="evenodd"
                clip-rule="evenodd"
                d="M19.3491 18.676H16.4956C16.2273 18.676 16.0078 18.4565 16.0078 18.1882V12.0299H15.0688C14.8859 12.0299 14.7151 11.9201 14.642 11.7616C14.5566 11.5908 14.5688 11.3957 14.6785 11.2494L17.5321 7.45683C17.6175 7.33489 17.7638 7.26172 17.9223 7.26172C18.0687 7.26172 18.215 7.33489 18.3126 7.45683L21.1296 11.2128C21.2027 11.2982 21.2637 11.4079 21.2637 11.5421C21.2637 11.8104 21.0442 12.0299 20.7759 12.0299C20.7637 12.0299 20.7637 12.0299 20.7637 12.0299H19.8369V18.1882C19.8369 18.4565 19.6174 18.676 19.3491 18.676Z"
                fill="white"
              />
              <path
                fill-rule="evenodd"
                clip-rule="evenodd"
                d="M2.30256 9.76001C2.19281 9.76001 2.09525 9.72343 2.00989 9.66246C1.86355 9.5527 1.77819 9.35759 1.81477 9.17467L2.08306 7.77227L1.0465 6.79669C0.912363 6.66255 0.851389 6.46744 0.912363 6.28452C0.973336 6.11379 1.13187 5.97965 1.31479 5.95526L2.74157 5.77234L3.33911 4.4797C3.42448 4.30897 3.5952 4.19922 3.79032 4.19922C3.97324 4.19922 4.14396 4.30897 4.22933 4.4797L4.83906 5.77234L6.25365 5.95526C6.43657 5.97965 6.5951 6.11379 6.65608 6.28452C6.71705 6.46744 6.65608 6.66255 6.52194 6.79669L5.48538 7.77227L5.75367 9.17467C5.79025 9.35759 5.70489 9.5527 5.55855 9.66246C5.40002 9.77221 5.20491 9.7844 5.03418 9.69904L3.79032 9.00394L2.53426 9.69904C2.46109 9.73562 2.37573 9.76001 2.30256 9.76001Z"
                fill="white"
              />
              <path
                fill-rule="evenodd"
                clip-rule="evenodd"
                d="M9.36266 8.16431C9.2651 8.16431 9.16755 8.12773 9.08218 8.06675C8.92365 7.957 8.85048 7.76188 8.88707 7.57896L9.15535 6.17657L8.1188 5.20099C7.97246 5.06685 7.92368 4.87173 7.98466 4.68881C8.04563 4.51809 8.20416 4.38395 8.38708 4.35956L9.80167 4.18883L10.4114 2.88399C10.4968 2.71327 10.6675 2.60352 10.8504 2.60352C11.0455 2.60352 11.2163 2.71327 11.2894 2.88399L11.8992 4.18883L13.3138 4.35956C13.5089 4.38395 13.6674 4.51809 13.7284 4.68881C13.7772 4.87173 13.7284 5.06685 13.5942 5.20099L12.5455 6.17657L12.8138 7.57896C12.8504 7.76188 12.7772 7.957 12.6308 8.06675C12.4723 8.1765 12.265 8.1887 12.1065 8.10334L10.8504 7.40824L9.60656 8.10334C9.53339 8.13992 9.44802 8.16431 9.36266 8.16431Z"
                fill="white"
              />
              <path
                fill-rule="evenodd"
                clip-rule="evenodd"
                d="M19.4107 6.33423C19.3254 6.33423 19.2522 6.30984 19.179 6.27326L17.923 5.57816L16.6669 6.27326C16.5084 6.35862 16.3011 6.34643 16.1425 6.23667C15.9962 6.12692 15.923 5.93181 15.9596 5.74888L16.2279 4.34649L15.1792 3.37091C15.045 3.23677 14.9962 3.04166 15.0572 2.85874C15.106 2.68801 15.2645 2.55387 15.4596 2.52948L16.8742 2.34656L17.484 1.05392C17.5571 0.88319 17.7278 0.773438 17.923 0.773438C18.1059 0.773438 18.2766 0.88319 18.362 1.05392L18.9717 2.34656L20.3863 2.52948C20.5814 2.55387 20.7278 2.68801 20.7887 2.85874C20.8497 3.04166 20.8009 3.23677 20.6668 3.37091L19.618 4.34649L19.8863 5.74888C19.9229 5.93181 19.8497 6.12692 19.6912 6.23667C19.6058 6.29765 19.5083 6.33423 19.4107 6.33423Z"
                fill="white"
              />
            </svg>