<svg width="18" height="17" viewBox="0 0 18 17" fill="none" xmlns="http://www.w3.org/2000/svg">
<path d="M10.5907 9.81273L10.5906 9.81261L10.5814 9.82104C8.3146 11.913 6.03062 14.0084 3.72947 16.1072L3.72934 16.107L3.71924 16.1168C3.5366 16.293 3.30388 16.4083 3.05305 16.447C2.80221 16.4856 2.54556 16.4456 2.31835 16.3326L2.30184 16.3243L2.28477 16.3174C2.03882 16.2168 1.8299 16.0428 1.68652 15.8191C1.54313 15.5954 1.47228 15.3329 1.48363 15.0674L1.48422 15.0537L1.48405 15.0399C1.46695 13.6442 1.47264 12.2473 1.47836 10.8456C1.48122 10.1425 1.48409 9.43821 1.48409 8.73224V8.71991V8.70758V8.69525V8.68292V8.6706V8.65827V8.64595V8.63362V8.6213V8.60898V8.59666V8.58434V8.57202V8.5597V8.54738V8.53507V8.52275V8.51044V8.49813V8.48582V8.47351V8.4612V8.44889V8.43658V8.42427V8.41197V8.39966V8.38736V8.37506V8.36275V8.35045V8.33815V8.32586V8.31356V8.30126V8.28896V8.27667V8.26438V8.25208V8.23979V8.2275V8.21521V8.20292V8.19063V8.17834V8.16606V8.15377V8.14149V8.1292V8.11692V8.10464V8.09236V8.08008V8.0678V8.05552V8.04324V8.03096V8.01869V8.00641V7.99414V7.98187V7.96959V7.95732V7.94505V7.93278V7.92051V7.90825V7.89598V7.88371V7.87145V7.85918V7.84692V7.83466V7.8224V7.81013V7.79787V7.78562V7.77336V7.7611V7.74884V7.73659V7.72433V7.71208V7.69982V7.68757V7.67532V7.66307V7.65082V7.63857V7.62632V7.61407V7.60182V7.58958V7.57733V7.56509V7.55284V7.5406V7.52836V7.51611V7.50387V7.49163V7.47939V7.46715V7.45492V7.44268V7.43044V7.41821V7.40597V7.39374V7.3815V7.36927V7.35704V7.34481V7.33258V7.32035V7.30812V7.29589V7.28366V7.27143V7.25921V7.24698V7.23476V7.22253V7.21031V7.19809V7.18586V7.17364V7.16142V7.1492V7.13698V7.12476V7.11254V7.10033V7.08811V7.07589V7.06368V7.05146V7.03925V7.02704V7.01482V7.00261V6.9904V6.97819V6.96598V6.95377V6.94156V6.92935V6.91714V6.90493V6.89273V6.88052V6.86832V6.85611V6.84391V6.8317V6.8195V6.8073V6.7951V6.7829V6.77069V6.75849V6.74629V6.7341V6.7219V6.7097V6.6975V6.68531V6.67311V6.66091V6.64872V6.63652V6.62433V6.61214V6.59994V6.58775V6.57556V6.56337V6.55118V6.53899V6.5268V6.51461V6.50242V6.49023V6.47805V6.46586V6.45367V6.44149V6.4293V6.41712V6.40493V6.39275V6.38056V6.36838V6.3562V6.34402V6.33183V6.31965V6.30747V6.29529V6.28311V6.27093V6.25875V6.24658V6.2344V6.22222V6.21004V6.19787V6.18569V6.17351V6.16134V6.14916V6.13699V6.12482V6.11264V6.10047V6.0883V6.07612V6.06395V6.05178V6.03961V6.02744V6.01527V6.0031V5.99093V5.97876V5.96659V5.95442V5.94226V5.93009V5.91792V5.90575V5.89359V5.88142V5.86926V5.85709V5.84492V5.83276V5.8206V5.80843V5.79627V5.7841V5.77194V5.75978V5.74762V5.73546V5.72329V5.71113V5.69897V5.68681V5.67465V5.66249V5.65033V5.63817V5.62601V5.61385V5.6017V5.58954V5.57738V5.56522V5.55306V5.54091V5.52875V5.51659V5.50444V5.49228V5.48013V5.46797V5.45581V5.44366V5.43151V5.41935V5.4072V5.39504V5.38289V5.37074V5.35858V5.34643V5.33428V5.32212V5.30997V5.29782V5.28567V5.27352V5.26137V5.24921V5.23706V5.22491V5.21276V5.20061V5.18846V5.17631V5.16416V5.15201V5.13986V5.12771V5.11556V5.10342V5.09127V5.07912V5.06697V5.05482V5.04267V5.03053V5.01838V5.00623V4.99408V4.98194V4.96979V4.95764V4.94549V4.93335V4.9212V4.90905V4.89691V4.88476V4.87262V4.86047V4.84832V4.83618V4.82403V4.81189V4.79974V4.7876V4.77545V4.76331V4.75116V4.73902V4.72687V4.71473V4.70258V4.69044V4.67829V4.66615V4.654V4.64186V4.62971V4.61757V4.60543V4.59328V4.58114V4.56899V4.55685V4.5447V4.53256V4.52042V4.50827V4.49613V4.48398V4.47184V4.4597V4.44755V4.43541V4.42326V4.41112V4.39898V4.38683V4.37469V4.36255V4.3504V4.33826V4.32611V4.31397V4.30183V4.28968V4.27754V4.26539V4.25325V4.24111V4.22896V4.21682V4.20467V4.19253V4.18038V4.16824V4.1561V4.14395V4.13181V4.11966V4.10752V4.09537V4.08323V4.07108V4.05894V4.04679V4.03465V4.0225V4.01036V3.99821V3.98607V3.97392V3.96177V3.94963V3.93748V3.92534V3.91319V3.90104V3.8889V3.87675V3.8646V3.85246V3.84031V3.82816V3.81602V3.80387V3.79172V3.77957V3.76742V3.75528V3.74313V3.73098V3.71883V3.70668V3.69453V3.68238V3.67024V3.65809V3.64594V3.63379V3.62164V3.60949V3.59734V3.58519V3.57303V3.56088V3.54873V3.53658V3.52443V3.51228V3.50013V3.48797V3.47582V3.46367V3.45152V3.43936V3.42721V3.41506V3.4029V3.39075V3.37859V3.36644V3.35428V3.34213V3.32997V3.31782V3.30566V3.2935V3.28135V3.26919V3.25703V3.24488V3.23272V3.22056V3.2084V3.19624V3.18409V3.17193V3.15977V3.14761V3.13545V3.12329V3.11113V3.09897V3.0868V3.07464V3.06248V3.05032V3.03816V3.02599V3.01383V3.00167V2.9895V2.97734V2.96517V2.95301V2.94084V2.92868V2.91651V2.90434V2.89218V2.88001V2.86784V2.85567V2.84351V2.83134V2.81917V2.807V2.79483V2.78266V2.77049V2.75832V2.74614V2.73397V2.7218V2.70963V2.69745V2.68528V2.67311V2.66093V2.64876V2.63658V2.62441V2.61223V2.60005V2.58788V2.5757V2.56352V2.55134V2.53916V2.52698V2.5148V2.50262V2.49044V2.47943L1.48361 2.46842C1.47333 2.23534 1.52331 2.00352 1.62871 1.79535C1.73411 1.58719 1.89136 1.40972 2.08532 1.28004L2.08541 1.28017L2.09562 1.27297C2.34539 1.09678 2.64888 1.01338 2.9536 1.03719C3.25833 1.061 3.54517 1.19051 3.76456 1.40335L3.76975 1.4084L3.7751 1.41329C5.8274 3.29209 7.88454 5.18527 9.93782 7.07489L10.1664 7.28523C10.2499 7.36538 10.3477 7.45293 10.4356 7.53169C10.4875 7.57825 10.5361 7.62175 10.5763 7.65882L10.5815 7.66366L10.5869 7.66834C10.74 7.80177 10.8628 7.96641 10.947 8.15118C11.0313 8.33594 11.075 8.53659 11.0754 8.73968C11.0758 8.94275 11.0327 9.14355 10.9491 9.32863C10.8655 9.5137 10.7433 9.67876 10.5907 9.81273Z" stroke="#232323"/>
<path d="M16.9606 2.30255L16.9602 2.31161V2.32068V2.34576V2.37085V2.39593V2.42102V2.44611V2.47119V2.49628V2.52137V2.54645V2.57154V2.59663V2.62171V2.6468V2.67189V2.69698V2.72206V2.74715V2.77224V2.79733V2.82242V2.84751V2.8726V2.89769V2.92277V2.94786V2.97295V2.99804V3.02313V3.04822V3.07331V3.0984V3.12349V3.14858V3.17368V3.19877V3.22386V3.24895V3.27404V3.29913V3.32422V3.34932V3.37441V3.3995V3.42459V3.44968V3.47478V3.49987V3.52496V3.55006V3.57515V3.60024V3.62534V3.65043V3.67552V3.70062V3.72571V3.75081V3.7759V3.801V3.82609V3.85119V3.87628V3.90138V3.92647V3.95157V3.97666V4.00176V4.02686V4.05195V4.07705V4.10215V4.12724V4.15234V4.17744V4.20253V4.22763V4.25273V4.27783V4.30292V4.32802V4.35312V4.37822V4.40332V4.42842V4.45351V4.47861V4.50371V4.52881V4.55391V4.57901V4.60411V4.62921V4.65431V4.67941V4.70451V4.72961V4.75471V4.77981V4.80491V4.83002V4.85512V4.88022V4.90532V4.93042V4.95552V4.98063V5.00573V5.03083V5.05593V5.08104V5.10614V5.13124V5.15634V5.18145V5.20655V5.23166V5.25676V5.28186V5.30697V5.33207V5.35718V5.38228V5.40739V5.43249V5.4576V5.4827V5.50781V5.53291V5.55802V5.58312V5.60823V5.63334V5.65844V5.68355V5.70865V5.73376V5.75887V5.78398V5.80908V5.83419V5.8593V5.88441V5.90951V5.93462V5.95973V5.98484V6.00995V6.03506V6.06016V6.08527V6.11038V6.13549V6.1606V6.18571V6.21082V6.23593V6.26104V6.28615V6.31126V6.33637V6.36148V6.38659V6.41171V6.43682V6.46193V6.48704V6.51215V6.53726V6.56237V6.58749V6.6126V6.63771V6.66282V6.68794V6.71305V6.73816V6.76328V6.78839V6.8135V6.83862V6.86373V6.88884V6.91396V6.93907V6.96419V6.9893V7.01442V7.03953V7.06465V7.08976V7.11488V7.13999V7.16511V7.19023V7.21534V7.24046V7.26557V7.29069V7.31581V7.34092V7.36604V7.39116V7.41628V7.44139V7.46651V7.49163V7.51675V7.54187V7.56698V7.5921V7.61722V7.64234V7.66746V7.69258V7.7177V7.74282V7.76794V7.79306V7.81817V7.8433V7.86841V7.89354V7.91866V7.94378V7.9689V7.99402V8.01914V8.04426V8.06938V8.0945V8.11963V8.14475V8.16987V8.19499V8.22011V8.24524V8.27036V8.29548V8.3206V8.34573V8.37085V8.39597V8.4211V8.44622V8.47135V8.49647V8.52159V8.54672V8.57184V8.59697V8.62209V8.64722V8.67234V8.69747V8.72259V8.74772V8.77285V8.79797V8.8231V8.84822V8.87335V8.89848V8.9236V8.94873V8.97386V8.99899V9.02411V9.04924V9.07437V9.0995V9.12462V9.14975V9.17488V9.20001V9.22514V9.25027V9.2754V9.30052V9.32565V9.35078V9.37591V9.40104V9.42617V9.4513V9.47643V9.50156V9.52669V9.55182V9.57695V9.60209V9.62722V9.65235V9.67748V9.70261V9.72774V9.75288V9.77801V9.80314V9.82827V9.8534V9.87854V9.90367V9.9288V9.95394V9.97907V10.0042V10.0293V10.0545V10.0796V10.1047V10.1299V10.155V10.1801V10.2053V10.2304V10.2555V10.2807V10.3058V10.331V10.3561V10.3812V10.4064V10.4315V10.4566V10.4818V10.5069V10.532V10.5572V10.5823V10.6075V10.6326V10.6577V10.6829V10.708V10.7331V10.7583V10.7834V10.8086V10.8337V10.8588V10.884V10.9091V10.9343V10.9594V10.9845V11.0097V11.0348V11.06V11.0851V11.1102V11.1354V11.1605V11.1857V11.2108V11.2359V11.2611V11.2862V11.3114V11.3365V11.3616V11.3868V11.4119V11.4371V11.4622V11.4874V11.5125V11.5376V11.5628V11.5879V11.6131V11.6382V11.6634V11.6885V11.7137V11.7388V11.7639V11.7891V11.8142V11.8394V11.8645V11.8897V11.9148V11.94V11.9651V11.9902V12.0154V12.0405V12.0657V12.0908V12.116V12.1411V12.1663V12.1914V12.2166V12.2417V12.2669V12.292V12.3172V12.3423V12.3675V12.3926V12.4178V12.4429V12.468V12.4932V12.5183V12.5435V12.5686V12.5938V12.6189V12.6441V12.6692V12.6944V12.7195V12.7447V12.7698V12.795V12.8202V12.8453V12.8705V12.8956V12.9208V12.9459V12.9711V12.9962V13.0214V13.0465V13.0717V13.0968V13.122V13.1471V13.1723V13.1974V13.2226V13.2477V13.2729V13.2981V13.3232V13.3484V13.3735V13.3987V13.4238V13.449V13.4741V13.4993V13.5244V13.5496V13.5748V13.5999V13.6251V13.6502V13.6754V13.7005V13.7257V13.7509V13.776V13.8012V13.8263V13.8515V13.8766V13.9018V13.927V13.9521V13.9773V14.0024V14.0276V14.0527V14.0779V14.1031V14.1282V14.1534V14.1785V14.2037V14.2289V14.254V14.2792V14.3043V14.3295V14.3547V14.3798V14.405V14.4301V14.4553V14.4805V14.5056V14.5308V14.556V14.5811V14.6063V14.6314V14.6566V14.6818V14.7069V14.7321V14.7573V14.7824V14.8076V14.8327V14.8579V14.8831V14.9082V14.9334V14.9586V14.9837V15.0089V15.0341V15.0592V15.0844V15.1096V15.1347V15.1599V15.1851H16.9602L16.9603 15.1895C16.9618 15.3594 16.9293 15.528 16.8647 15.6852C16.8001 15.8424 16.7047 15.9852 16.5842 16.105L16.9367 16.4596L16.5842 16.105C16.4636 16.2249 16.3204 16.3194 16.1628 16.3831C16.0052 16.4468 15.8365 16.4783 15.6665 16.4758L15.656 16.4757L15.6455 16.476C15.1601 16.4893 14.6744 16.4687 14.1919 16.4143C13.9314 16.3612 13.6969 16.2203 13.5276 16.015C13.3547 15.8053 13.2608 15.5416 13.2622 15.2699V15.2674V15.2547V15.242V15.2293V15.2166V15.2039V15.1912V15.1785V15.1658V15.1531V15.1404V15.1276V15.1149V15.1022V15.0895V15.0768V15.0641V15.0514V15.0387V15.026V15.0133V15.0006V14.9879V14.9752V14.9625V14.9498V14.9371V14.9244V14.9117V14.899V14.8863V14.8736V14.8609V14.8482V14.8355V14.8228V14.8101V14.7974V14.7847V14.7719V14.7592V14.7465V14.7338V14.7211V14.7084V14.6957V14.683V14.6703V14.6576V14.6449V14.6322V14.6195V14.6068V14.5941V14.5814V14.5687V14.556V14.5433V14.5306V14.5179V14.5052V14.4925V14.4798V14.4671V14.4544V14.4417V14.429V14.4162V14.4035V14.3908V14.3781V14.3654V14.3527V14.34V14.3273V14.3146V14.3019V14.2892V14.2765V14.2638V14.2511V14.2384V14.2257V14.213V14.2003V14.1876V14.1749V14.1622V14.1495V14.1368V14.1241V14.1114V14.0987V14.086V14.0733V14.0605V14.0478V14.0351V14.0224V14.0097V13.997V13.9843V13.9716V13.9589V13.9462V13.9335V13.9208V13.9081V13.8954V13.8827V13.87V13.8573V13.8446V13.8319V13.8192V13.8065V13.7938V13.7811V13.7684V13.7557V13.743V13.7303V13.7176V13.7049V13.6921V13.6794V13.6667V13.654V13.6413V13.6286V13.6159V13.6032V13.5905V13.5778V13.5651V13.5524V13.5397V13.527V13.5143V13.5016V13.4889V13.4762V13.4635V13.4508V13.4381V13.4254V13.4127V13.4V13.3873V13.3746V13.3619V13.3492V13.3364V13.3237V13.311V13.2983V13.2856V13.2729V13.2602V13.2475V13.2348V13.2221V13.2094V13.1967V13.184V13.1713V13.1586V13.1459V13.1332V13.1205V13.1078V13.0951V13.0824V13.0697V13.057V13.0443V13.0316V13.0189V13.0062V12.9935V12.9807V12.968V12.9553V12.9426V12.9299V12.9172V12.9045V12.8918V12.8791V12.8664V12.8537V12.841V12.8283V12.8156V12.8029V12.7902V12.7775V12.7648V12.7521V12.7394V12.7267V12.714V12.7013V12.6886V12.6759V12.6632V12.6505V12.6378V12.625V12.6123V12.5996V12.5869V12.5742V12.5615V12.5488V12.5361V12.5234V12.5107V12.498V12.4853V12.4726V12.4599V12.4472V12.4345V12.4218V12.4091V12.3964V12.3837V12.371V12.3583V12.3456V12.3329V12.3202V12.3075V12.2948V12.2821V12.2693V12.2566V12.2439V12.2312V12.2185V12.2058V12.1931V12.1804V12.1677V12.155V12.1423V12.1296V12.1169V12.1042V12.0915V12.0788V12.0661V12.0534V12.0407V12.028V12.0153V12.0026V11.9899V11.9772V11.9645V11.9518V11.9391V11.9264V11.9136V11.9009V11.8882V11.8755V11.8628V11.8501V11.8374V11.8247V11.812V11.7993V11.7866V11.7739V11.7612V11.7485V11.7358V11.7231V11.7104V11.6977V11.685V11.6723V11.6596V11.6469V11.6342V11.6215V11.6088V11.5961V11.5834V11.5707V11.558V11.5452V11.5325V11.5198V11.5071V11.4944V11.4817V11.469V11.4563V11.4436V11.4309V11.4182V11.4055V11.3928V11.3801V11.3674V11.3547V11.342V11.3293V11.3166V11.3039V11.2912V11.2785V11.2658V11.2531V11.2404V11.2277V11.215V11.2023V11.1895V11.1768V11.1641V11.1514V11.1387V11.126V11.1133V11.1006V11.0879V11.0752V11.0625V11.0498V11.0371V11.0244V11.0117V10.999V10.9863V10.9736V10.9609V10.9482V10.9355V10.9228V10.9101V10.8974V10.8847V10.872V10.8593V10.8466V10.8338V10.8211V10.8084V10.7957V10.783V10.7703V10.7576V10.7449V10.7322V10.7195V10.7068V10.6941V10.6814V10.6687V10.656V10.6433V10.6306V10.6179V10.6052V10.5925V10.5798V10.5671V10.5544V10.5417V10.529V10.5163V10.5036V10.4909V10.4781V10.4654V10.4527V10.44V10.4273V10.4146V10.4019V10.3892V10.3765V10.3638V10.3511V10.3384V10.3257V10.313V10.3003V10.2876V10.2749V10.2622V10.2495V10.2368V10.2241V10.2114V10.1987V10.186V10.1733V10.1606V10.1479V10.1352V10.1224V10.1097V10.097V10.0843V10.0716V10.0589V10.0462V10.0335V10.0208V10.0081V9.99541V9.98271V9.97001V9.9573V9.9446V9.9319V9.91919V9.90649V9.89378V9.88108V9.86838V9.85567V9.84297V9.83027V9.81756V9.80486V9.79216V9.77945V9.76675V9.75405V9.74134V9.72864V9.71593V9.70323V9.69053V9.67782V9.66512V9.65242V9.63971V9.62701V9.61431V9.6016V9.5889V9.5762V9.56349V9.55079V9.53808V9.52538V9.51268V9.49997V9.48727V9.47457V9.46186V9.44916V9.43646V9.42375V9.41105V9.39835V9.38564V9.37294V9.36024V9.34753V9.33483V9.32212V9.30942V9.29672V9.28401V9.27131V9.25861V9.2459V9.2332V9.2205V9.20779V9.19509V9.18239V9.16968V9.15698V9.14427V9.13157V9.11887V9.10616V9.09346V9.08076V9.06805V9.05535V9.04265V9.02994V9.01724V9.00454V8.99183V8.97913V8.96642V8.95372V8.94102V8.92831V8.91561V8.90291V8.8902V8.8775V8.8648V8.85209V8.83939V8.82668V8.81398V8.80128V8.78857V8.77587V8.76317V2.34126V2.32802L13.2615 2.3148C13.2446 1.99599 13.3545 1.68347 13.5673 1.44546C13.78 1.20746 14.0784 1.06332 14.3971 1.04454L14.4051 1.04406L14.4132 1.04332C14.9179 0.997143 15.4264 1.01314 15.9272 1.09094L15.9272 1.09106L15.9384 1.09254C16.2287 1.13098 16.4943 1.27624 16.6833 1.49998C16.8723 1.72372 16.9712 2.00986 16.9606 2.30255Z" stroke="#232323"/>
</svg>
