<svg width="46" height="45" viewBox="0 0 46 45" fill="none" xmlns="http://www.w3.org/2000/svg">
<rect x="0.660156" y="0.131836" width="44.6797" height="44.6797" rx="22.3398" fill="#01AAC1"/>
<path d="M27.0227 17.9037C26.5193 17.9027 26.0367 17.7023 25.6807 17.3463C25.3247 16.9903 25.1243 16.5078 25.1234 16.0043V13.6079H18.7256C18.1557 13.6084 17.6093 13.8351 17.2063 14.2381C16.8033 14.6411 16.5767 15.1875 16.5762 15.7574V29.186C16.5767 29.7559 16.8033 30.3023 17.2063 30.7053C17.6093 31.1083 18.1557 31.3349 18.7256 31.3354H27.2728C27.8427 31.3349 28.3892 31.1083 28.7921 30.7053C29.1951 30.3023 29.4218 29.7559 29.4223 29.186V17.9037H27.0227ZM18.4091 18.3564H22.9992C23.0823 18.3576 23.1616 18.3916 23.2199 18.4508C23.2782 18.51 23.3109 18.5898 23.3109 18.6729C23.3109 18.756 23.2782 18.8358 23.2199 18.8951C23.1616 18.9543 23.0823 18.9882 22.9992 18.9895H18.4091C18.326 18.9882 18.2467 18.9543 18.1884 18.895C18.1301 18.8358 18.0974 18.756 18.0974 18.6729C18.0974 18.5898 18.1301 18.51 18.1884 18.4508C18.2467 18.3916 18.326 18.3576 18.4091 18.3564ZM19.2005 29.1195C18.9505 29.1166 18.7118 29.0153 18.536 28.8375C18.3603 28.6597 18.2617 28.4198 18.2617 28.1698C18.2617 27.9198 18.3603 27.6799 18.536 27.5021C18.7118 27.3243 18.9505 27.223 19.2005 27.2201C19.4505 27.223 19.6892 27.3243 19.865 27.5021C20.0407 27.6799 20.1393 27.9198 20.1393 28.1698C20.1393 28.4198 20.0407 28.6597 19.865 28.8375C19.6892 29.0153 19.4505 29.1166 19.2005 29.1195ZM26.9879 27.7899L25.8958 28.6098C25.7846 28.689 25.654 28.7364 25.5179 28.747C25.3818 28.7576 25.2455 28.731 25.1234 28.67C25.036 28.6305 24.9603 28.5693 24.9032 28.4923C24.8461 28.4153 24.8097 28.325 24.7973 28.23C24.7819 28.2246 24.7655 28.2224 24.7492 28.2235C24.7329 28.2246 24.7169 28.2289 24.7023 28.2363L24.2085 28.6098C24.0971 28.6898 23.9659 28.7377 23.8291 28.7483C23.6924 28.7589 23.5553 28.7318 23.4329 28.67C23.346 28.63 23.2705 28.5687 23.2135 28.4917C23.1565 28.4148 23.1198 28.3248 23.1069 28.23C23.092 28.2246 23.0761 28.2224 23.0603 28.2235C23.0445 28.2246 23.0291 28.2289 23.0151 28.2363L21.9229 29.0562C21.8556 29.1043 21.7722 29.1242 21.6904 29.1116C21.6086 29.099 21.535 29.0548 21.4854 28.9886C21.4357 28.9224 21.414 28.8394 21.4248 28.7574C21.4355 28.6754 21.478 28.6008 21.5431 28.5497L22.6352 27.7298C22.7464 27.6506 22.877 27.6032 23.0131 27.5926C23.1491 27.582 23.2855 27.6086 23.4076 27.6696C23.4949 27.7091 23.5707 27.7703 23.6278 27.8473C23.6848 27.9243 23.7213 28.0146 23.7337 28.1097C23.7491 28.1149 23.7655 28.1171 23.7818 28.116C23.7981 28.1149 23.814 28.1106 23.8286 28.1033L24.3225 27.7298C24.4342 27.6505 24.5654 27.6031 24.7019 27.5925C24.8385 27.5819 24.9754 27.6086 25.098 27.6696C25.185 27.7097 25.2605 27.771 25.3175 27.8479C25.3744 27.9248 25.4111 28.0148 25.4241 28.1097C25.439 28.115 25.4549 28.1172 25.4707 28.1161C25.4865 28.115 25.5019 28.1107 25.5159 28.1033L26.6081 27.2834C26.6753 27.235 26.7589 27.2149 26.8409 27.2274C26.9228 27.2399 26.9966 27.2841 27.0464 27.3504C27.0961 27.4167 27.1178 27.4999 27.1069 27.5821C27.096 27.6643 27.0533 27.7389 26.9879 27.7899ZM27.5894 25.3207H18.4091C18.326 25.3194 18.2467 25.2855 18.1884 25.2263C18.1301 25.1671 18.0974 25.0873 18.0974 25.0042C18.0974 24.921 18.1301 24.8413 18.1884 24.782C18.2467 24.7228 18.326 24.6889 18.4091 24.6876H27.5894C27.6725 24.6889 27.7518 24.7228 27.8101 24.782C27.8684 24.8413 27.9011 24.9211 27.9011 25.0042C27.9011 25.0873 27.8684 25.1671 27.8101 25.2263C27.7518 25.2855 27.6725 25.3195 27.5894 25.3207ZM27.5894 23.2093H18.4091C18.3259 23.208 18.2466 23.1741 18.1882 23.1149C18.1299 23.0557 18.0972 22.9758 18.0972 22.8927C18.0972 22.8095 18.1299 22.7297 18.1883 22.6705C18.2466 22.6113 18.3259 22.5774 18.4091 22.5761H27.5894C27.6725 22.5774 27.7518 22.6113 27.8101 22.6706C27.8684 22.7298 27.9011 22.8096 27.9011 22.8927C27.9011 22.9758 27.8684 23.0556 27.8101 23.1148C27.7518 23.1741 27.6725 23.208 27.5894 23.2093ZM27.5894 21.101H18.4091C18.3259 21.0997 18.2466 21.0658 18.1882 21.0066C18.1299 20.9474 18.0972 20.8675 18.0972 20.7844C18.0972 20.7012 18.1299 20.6214 18.1883 20.5622C18.2466 20.503 18.3259 20.4691 18.4091 20.4678H27.5894C27.6725 20.4691 27.7519 20.503 27.8102 20.5622C27.8686 20.6214 27.9013 20.7012 27.9013 20.7844C27.9013 20.8675 27.8686 20.9474 27.8102 21.0066C27.7519 21.0658 27.6725 21.0997 27.5894 21.101Z" fill="white"/>
<path d="M27.0231 17.2705H29.2359L25.7568 13.7915V16.0043C25.7573 16.34 25.8908 16.6618 26.1282 16.8992C26.3656 17.1365 26.6874 17.2701 27.0231 17.2705Z" fill="white"/>
</svg>
