<svg width="11" height="11" viewBox="0 0 11 11" fill="none" xmlns="http://www.w3.org/2000/svg">
<path d="M10.3597 6.68329C10.317 6.64074 10.2631 6.61116 10.2044 6.59796C10.1456 6.58476 10.0842 6.58849 10.0275 6.60871C9.26471 6.88058 8.44044 6.9305 7.65042 6.75267C6.86041 6.57484 6.13709 6.17656 5.5645 5.6041C4.9919 5.03165 4.59355 4.30851 4.41571 3.51872C4.23787 2.72893 4.28786 1.90491 4.55985 1.14239C4.58006 1.08563 4.58377 1.02432 4.57054 0.965544C4.55732 0.906771 4.5277 0.852949 4.48512 0.810318C4.44255 0.767687 4.38875 0.737993 4.32998 0.724678C4.27122 0.711364 4.20987 0.714974 4.15307 0.73509C3.4654 0.977855 2.84135 1.37253 2.32735 1.88974C1.40591 2.81159 0.888426 4.06155 0.888672 5.36476C0.888918 6.66797 1.40688 7.91774 2.32866 8.83925C3.25044 9.76075 4.50057 10.2786 5.80417 10.2788C7.10776 10.2791 8.35809 9.76172 9.28022 8.84056C9.79762 8.32662 10.1924 7.70263 10.4352 7.01505C10.4553 6.95827 10.4588 6.89696 10.4454 6.83825C10.4321 6.77953 10.4023 6.7258 10.3597 6.68329Z" fill="white"/>
</svg>
