<svg width="16" height="10" viewBox="0 0 16 10" class="fill-coal-600 dark:fill-lightGray" xmlns="http://www.w3.org/2000/svg">
<g clip-path="url(#clip0_3019_14)">
<path d="M8.20031 0.205078C5.15039 0.205078 2.38456 1.87372 0.343653 4.58403C0.177116 4.80609 0.177116 5.1163 0.343653 5.33835C2.38456 8.05194 5.15039 9.72058 8.20031 9.72058C11.2502 9.72058 14.016 8.05194 16.057 5.34162C16.2234 5.11957 16.2234 4.80935 16.057 4.5873C14.016 1.87372 11.2502 0.205078 8.20031 0.205078ZM8.4191 8.31317C6.39452 8.44052 4.72262 6.77188 4.84997 4.74404C4.95446 3.07213 6.30962 1.71698 7.98152 1.61248C10.0061 1.48513 11.678 3.15377 11.5507 5.18161C11.4429 6.85025 10.0877 8.20541 8.4191 8.31317ZM8.31787 6.76535C7.2272 6.83392 6.32594 5.93594 6.39779 4.84527C6.4533 3.94401 7.18476 3.21581 8.08601 3.15704C9.17668 3.08846 10.0779 3.98646 10.0061 5.07713C9.94733 5.98165 9.21586 6.70984 8.31787 6.76535Z" />
</g>
<defs>
<clipPath id="clip0_3019_14">
<rect width="16" height="9.84616" fill="white"/>
</clipPath>
</defs>
</svg>
