<svg width="17" height="16" viewBox="0 0 17 16" fill="none" xmlns="http://www.w3.org/2000/svg">
<path d="M15.6142 13.9083L15.6141 13.9216L15.6146 13.935C15.6254 14.1842 15.5587 14.4306 15.4238 14.6405C15.2889 14.8503 15.0924 15.0133 14.8612 15.107L14.8432 15.1143L14.8257 15.123C14.6129 15.2292 14.3724 15.2669 14.1372 15.2309C13.9021 15.195 13.6838 15.087 13.5125 14.922L13.5073 14.9171L13.502 14.9123C11.3111 12.9202 9.13055 10.9179 6.96025 8.90532L6.9541 8.89963L6.94777 8.89414C6.80353 8.7691 6.68786 8.61454 6.60859 8.44091C6.52931 8.26728 6.48828 8.07862 6.48828 7.88774C6.48828 7.69686 6.52931 7.50822 6.60859 7.33458C6.68786 7.16095 6.80353 7.00639 6.94777 6.88135L6.9572 6.87318L6.96622 6.86454C7.03696 6.79675 7.09936 6.7414 7.16853 6.68006C7.2211 6.63345 7.27756 6.58337 7.34456 6.52174C7.34462 6.52169 7.34467 6.52164 7.34472 6.52159L13.4577 0.902584L13.4578 0.902714L13.4674 0.893467C13.6733 0.693876 13.9424 0.572556 14.2283 0.550514C14.5142 0.528471 14.7988 0.607089 15.0328 0.772756L15.0328 0.772884L15.0432 0.779863C15.2243 0.90138 15.3714 1.06715 15.4705 1.26143C15.5695 1.45571 15.6173 1.6721 15.6094 1.89006L15.609 1.89922V1.90838V1.92002V1.93165V1.94329V1.95493V1.96657V1.97821V1.98985V2.00149V2.01313V2.02477V2.0364V2.04804V2.05968V2.07132V2.08296V2.0946V2.10624V2.11788V2.12952V2.14117V2.15281V2.16445V2.17609V2.18773V2.19937V2.21101V2.22265V2.23429V2.24593V2.25758V2.26922V2.28086V2.2925V2.30414V2.31578V2.32743V2.33907V2.35071V2.36235V2.374V2.38564V2.39728V2.40892V2.42057V2.43221V2.44385V2.4555V2.46714V2.47878V2.49043V2.50207V2.51371V2.52536V2.537V2.54865V2.56029V2.57193V2.58358V2.59522V2.60687V2.61851V2.63016V2.6418V2.65345V2.66509V2.67674V2.68838V2.70003V2.71167V2.72332V2.73496V2.74661V2.75825V2.7699V2.78154V2.79319V2.80484V2.81648V2.82813V2.83977V2.85142V2.86307V2.87471V2.88636V2.89801V2.90965V2.9213V2.93295V2.94459V2.95624V2.96789V2.97953V2.99118V3.00283V3.01448V3.02612V3.03777V3.04942V3.06107V3.07271V3.08436V3.09601V3.10766V3.1193V3.13095V3.1426V3.15425V3.1659V3.17755V3.18919V3.20084V3.21249V3.22414V3.23579V3.24744V3.25909V3.27073V3.28238V3.29403V3.30568V3.31733V3.32898V3.34063V3.35228V3.36393V3.37558V3.38723V3.39888V3.41053V3.42218V3.43382V3.44547V3.45712V3.46877V3.48042V3.49207V3.50372V3.51537V3.52702V3.53867V3.55032V3.56198V3.57363V3.58528V3.59693V3.60858V3.62023V3.63188V3.64353V3.65518V3.66683V3.67848V3.69013V3.70178V3.71343V3.72508V3.73674V3.74839V3.76004V3.77169V3.78334V3.79499V3.80664V3.81829V3.82995V3.8416V3.85325V3.8649V3.87655V3.8882V3.89985V3.91151V3.92316V3.93481V3.94646V3.95811V3.96977V3.98142V3.99307V4.00472V4.01637V4.02803V4.03968V4.05133V4.06298V4.07463V4.08629V4.09794V4.10959V4.12124V4.13289V4.14455V4.1562V4.16785V4.1795V4.19116V4.20281V4.21446V4.22611V4.23777V4.24942V4.26107V4.27273V4.28438V4.29603V4.30768V4.31934V4.33099V4.34264V4.35429V4.36595V4.3776V4.38925V4.40091V4.41256V4.42421V4.43586V4.44752V4.45917V4.47082V4.48248V4.49413V4.50578V4.51744V4.52909V4.54074V4.55239V4.56405V4.5757V4.58735V4.59901V4.61066V4.62231V4.63397V4.64562V4.65727V4.66893V4.68058V4.69223V4.70389V4.71554V4.72719V4.73885V4.7505V4.76215V4.77381V4.78546V4.79711V4.80877V4.82042V4.83207V4.84373V4.85538V4.86703V4.87869V4.89034V4.90199V4.91365V4.9253V4.93695V4.94861V4.96026V4.97191V4.98357V4.99522V5.00687V5.01853V5.03018V5.04183V5.05349V5.06514V5.07679V5.08845V5.1001V5.11175V5.1234V5.13506V5.14671V5.15836V5.17002V5.18167V5.19332V5.20498V5.21663V5.22828V5.23994V5.25159V5.26324V5.2749V5.28655V5.2982V5.30985V5.32151V5.33316V5.34481V5.35647V5.36812V5.37977V5.39143V5.40308V5.41473V5.42638V5.43804V5.44969V5.46134V5.473V5.48465V5.4963V5.50795V5.51961V5.53126V5.54291V5.55456V5.56622V5.57787V5.58952V5.60117V5.61283V5.62448V5.63613V5.64778V5.65944V5.67109V5.68274V5.69439V5.70604V5.7177V5.72935V5.741V5.75265V5.76431V5.77596V5.78761V5.79926V5.81091V5.82257V5.83422V5.84587V5.85752V5.86917V5.88082V5.89248V5.90413V5.91578V5.92743V5.93908V5.95073V5.96238V5.97404V5.98569V5.99734V6.00899V6.02064V6.03229V6.04394V6.05559V6.06724V6.0789V6.09055V6.1022V6.11385V6.1255V6.13715V6.1488V6.16045V6.1721V6.18375V6.1954V6.20705V6.2187V6.23035V6.242V6.25365V6.2653V6.27695V6.2886V6.30025V6.3119V6.32355V6.3352V6.34685V6.3585V6.37015V6.3818V6.39345V6.4051V6.41675V6.4284V6.44005V6.4517V6.46335V6.475V6.48665V6.49829V6.50994V6.52159V6.53324V6.54489V6.55654V6.56819V6.57984V6.59148V6.60313V6.61478V6.62643V6.63808V6.64973V6.66137V6.67302V6.68467V6.69632V6.70796V6.71961V6.73126V6.74291V6.75456V6.7662V6.77785V6.7895V6.80114V6.81279V6.82444V6.83609V6.84773V6.85938V6.87103V6.88267V6.89432V6.90597V6.91761V6.92926V6.9409V6.95255V6.9642V6.97584V6.98749V6.99913V7.01078V7.02243V7.03407V7.04572V7.05736V7.06901V7.08065V7.0923V7.10394V7.11559V7.12723V7.13888V7.15052V7.16217V7.17381V7.18546V7.1971V7.20874V7.22039V7.23203V7.24368V7.25532V7.26696V7.27861V7.29025V7.3019V7.31354V7.32518V7.33682V7.34847V7.36011V7.37175V7.3834V7.39504V7.40668V7.41832V7.42997V7.44161V7.45325V7.46489V7.47654V7.48818V7.49982V7.51146V7.5231V7.53474V7.54639V7.55803V7.56967V7.58131V7.59295V7.60459V7.61623V7.62787V7.63951V7.65115V7.66279V7.67443V7.68607V7.69771V7.70935V7.72099V7.73263V7.74427V7.75591V7.76755V7.77919V7.79083V7.80247V7.81411V7.82575V7.83739V7.84902V7.86066V7.8723C15.609 8.58351 15.6123 9.29982 15.6156 10.018C15.6215 11.3151 15.6274 12.6182 15.6142 13.9083Z" stroke="#232323"/>
<path d="M4.36218 1.76959L4.36125 1.78485V1.80013V7.91844V7.9305V7.94256V7.95462V7.96668V7.97874V7.99081V8.00287V8.01493V8.02699V8.03906V8.05112V8.06318V8.07525V8.08731V8.09938V8.11144V8.12351V8.13557V8.14764V8.15971V8.17177V8.18384V8.19591V8.20798V8.22004V8.23211V8.24418V8.25625V8.26832V8.28039V8.29246V8.30453V8.3166V8.32867V8.34074V8.35281V8.36489V8.37696V8.38903V8.4011V8.41318V8.42525V8.43732V8.4494V8.46147V8.47355V8.48562V8.4977V8.50977V8.52185V8.53392V8.546V8.55808V8.57015V8.58223V8.59431V8.60639V8.61847V8.63054V8.64262V8.6547V8.66678V8.67886V8.69094V8.70302V8.71511V8.72719V8.73927V8.75135V8.76343V8.77551V8.7876V8.79968V8.81176V8.82385V8.83593V8.84802V8.8601V8.87218V8.88427V8.89636V8.90844V8.92053V8.93262V8.9447V8.95679V8.96888V8.98096V8.99305V9.00514V9.01723V9.02932V9.04141V9.0535V9.06559V9.07768V9.08977V9.10186V9.11395V9.12604V9.13813V9.15023V9.16232V9.17441V9.18651V9.1986V9.21069V9.22279V9.23488V9.24698V9.25907V9.27117V9.28326V9.29536V9.30745V9.31955V9.33165V9.34375V9.35584V9.36794V9.38004V9.39214V9.40424V9.41634V9.42843V9.44053V9.45263V9.46474V9.47684V9.48894V9.50104V9.51314V9.52524V9.53734V9.54945V9.56155V9.57365V9.58576V9.59786V9.60996V9.62207V9.63417V9.64628V9.65838V9.67049V9.6826V9.6947V9.70681V9.71891V9.73102V9.74313V9.75524V9.76735V9.77946V9.79156V9.80367V9.81578V9.82789V9.84V9.85211V9.86422V9.87633V9.88845V9.90056V9.91267V9.92478V9.93689V9.94901V9.96112V9.97323V9.98535V9.99746V10.0096V10.0217V10.0338V10.0459V10.058V10.0702V10.0823V10.0944V10.1065V10.1186V10.1307V10.1429V10.155V10.1671V10.1792V10.1913V10.2035V10.2156V10.2277V10.2398V10.2519V10.2641V10.2762V10.2883V10.3004V10.3125V10.3247V10.3368V10.3489V10.361V10.3732V10.3853V10.3974V10.4095V10.4217V10.4338V10.4459V10.458V10.4702V10.4823V10.4944V10.5065V10.5187V10.5308V10.5429V10.5551V10.5672V10.5793V10.5914V10.6036V10.6157V10.6278V10.64V10.6521V10.6642V10.6764V10.6885V10.7006V10.7128V10.7249V10.737V10.7492V10.7613V10.7734V10.7856V10.7977V10.8098V10.822V10.8341V10.8462V10.8584V10.8705V10.8826V10.8948V10.9069V10.9191V10.9312V10.9433V10.9555V10.9676V10.9798V10.9919V11.004V11.0162V11.0283V11.0405V11.0526V11.0647V11.0769V11.089V11.1012V11.1133V11.1255V11.1376V11.1497V11.1619V11.174V11.1862V11.1983V11.2105V11.2226V11.2348V11.2469V11.2591V11.2712V11.2833V11.2955V11.3076V11.3198V11.3319V11.3441V11.3562V11.3684V11.3805V11.3927V11.4048V11.417V11.4291V11.4413V11.4534V11.4656V11.4778V11.4899V11.5021V11.5142V11.5264V11.5385V11.5507V11.5628V11.575V11.5871V11.5993V11.6114V11.6236V11.6358V11.6479V11.6601V11.6722V11.6844V11.6966V11.7087V11.7209V11.733V11.7452V11.7573V11.7695V11.7817V11.7938V11.806V11.8181V11.8303V11.8425V11.8546V11.8668V11.879V11.8911V11.9033V11.9155V11.9276V11.9398V11.9519V11.9641V11.9763V11.9884V12.0006V12.0128V12.0249V12.0371V12.0493V12.0614V12.0736V12.0858V12.0979V12.1101V12.1223V12.1345V12.1466V12.1588V12.171V12.1831V12.1953V12.2075V12.2196V12.2318V12.244V12.2562V12.2683V12.2805V12.2927V12.3049V12.317V12.3292V12.3414V12.3536V12.3657V12.3779V12.3901V12.4023V12.4144V12.4266V12.4388V12.451V12.4631V12.4753V12.4875V12.4997V12.5119V12.524V12.5362V12.5484V12.5606V12.5728V12.5849V12.5971V12.6093V12.6215V12.6337V12.6459V12.658V12.6702V12.6824V12.6946V12.7068V12.719V12.7311V12.7433V12.7555V12.7677V12.7799V12.7921V12.8043V12.8164V12.8286V12.8408V12.853V12.8652V12.8774V12.8896V12.9018V12.914V12.9261V12.9383V12.9505V12.9627V12.9749V12.9871V12.9993V13.0115V13.0237V13.0359V13.0481V13.0603V13.0724V13.0846V13.0968V13.109V13.1212V13.1334V13.1456V13.1578V13.17V13.1822V13.1944V13.2066V13.2188V13.231V13.2432V13.2554V13.2676V13.2798V13.292V13.3042V13.3164V13.3286V13.3408V13.353V13.3652V13.3774V13.3896V13.4018V13.414V13.4262V13.4384V13.4506V13.4628V13.475V13.4872V13.4994V13.5116V13.5238V13.536V13.5482V13.5605V13.5727V13.5849V13.5971V13.6093V13.6215V13.6337V13.6459V13.6581V13.6703V13.6825V13.6947V13.7069V13.7192V13.7314V13.7436V13.7558V13.768V13.7802V13.7924V13.8046V13.8169V13.8291V13.8413V13.8535V13.8657V13.8779V13.8901V13.9024V13.9146V13.9268V13.939V13.9512V13.9634V13.9756V13.9879V14.0001V14.0123V14.0245V14.0367V14.049V14.0612V14.0734V14.0856V14.0978V14.1101V14.1223V14.132C4.35842 14.383 4.26863 14.6253 4.10713 14.8175C3.9483 15.0066 3.72981 15.1357 3.48789 15.1838C3.03143 15.2378 2.57163 15.2584 2.11217 15.2453L2.10128 15.245L2.09038 15.2452C1.93061 15.2476 1.77196 15.218 1.62377 15.1582L1.45491 15.5766L1.62377 15.1582C1.47558 15.0984 1.34087 15.0096 1.22754 14.8969C1.1142 14.7843 1.02455 14.6501 0.96386 14.5023C0.90317 14.3545 0.87266 14.196 0.874132 14.0362H0.874153V14.0316V14.0076V13.9837V13.9597V13.9357V13.9118V13.8878V13.8639V13.8399V13.8159V13.792V13.768V13.7441V13.7201V13.6961V13.6722V13.6482V13.6243V13.6003V13.5763V13.5524V13.5284V13.5044V13.4805V13.4565V13.4326V13.4086V13.3846V13.3607V13.3367V13.3128V13.2888V13.2648V13.2409V13.2169V13.193V13.169V13.145V13.1211V13.0971V13.0731V13.0492V13.0252V13.0013V12.9773V12.9533V12.9294V12.9054V12.8815V12.8575V12.8335V12.8096V12.7856V12.7616V12.7377V12.7137V12.6898V12.6658V12.6418V12.6179V12.5939V12.5699V12.546V12.522V12.4981V12.4741V12.4501V12.4262V12.4022V12.3783V12.3543V12.3303V12.3064V12.2824V12.2584V12.2345V12.2105V12.1865V12.1626V12.1386V12.1147V12.0907V12.0667V12.0428V12.0188V11.9948V11.9709V11.9469V11.923V11.899V11.875V11.8511V11.8271V11.8031V11.7792V11.7552V11.7312V11.7073V11.6833V11.6594V11.6354V11.6114V11.5875V11.5635V11.5395V11.5156V11.4916V11.4676V11.4437V11.4197V11.3958V11.3718V11.3478V11.3239V11.2999V11.2759V11.252V11.228V11.204V11.1801V11.1561V11.1321V11.1082V11.0842V11.0602V11.0363V11.0123V10.9884V10.9644V10.9404V10.9165V10.8925V10.8685V10.8446V10.8206V10.7966V10.7727V10.7487V10.7247V10.7008V10.6768V10.6528V10.6289V10.6049V10.5809V10.557V10.533V10.509V10.4851V10.4611V10.4372V10.4132V10.3892V10.3653V10.3413V10.3173V10.2934V10.2694V10.2454V10.2215V10.1975V10.1735V10.1496V10.1256V10.1016V10.0777V10.0537V10.0297V10.0058V9.9818V9.95783V9.93386V9.90989V9.88593V9.86196V9.838V9.81403V9.79006V9.7661V9.74213V9.71816V9.69419V9.67023V9.64626V9.62229V9.59833V9.57436V9.55039V9.52642V9.50246V9.47849V9.45452V9.43056V9.40659V9.38262V9.35865V9.33469V9.31072V9.28675V9.26278V9.23881V9.21485V9.19088V9.16691V9.14294V9.11898V9.09501V9.07104V9.04707V9.0231V8.99914V8.97517V8.9512V8.92723V8.90326V8.87929V8.85533V8.83136V8.80739V8.78342V8.75945V8.73548V8.71152V8.68755V8.66358V8.63961V8.61564V8.59167V8.5677V8.54373V8.51976V8.4958V8.47183V8.44786V8.42389V8.39992V8.37595V8.35198V8.32801V8.30404V8.28007V8.25611V8.23214V8.20817V8.1842V8.16023V8.13626V8.11229V8.08832V8.06435V8.04038V8.01641V7.99244V7.96847V7.9445V7.92053V7.89656V7.87259V7.84862V7.82465V7.80068V7.77671V7.75274V7.72877V7.7048V7.68083V7.65686V7.63289V7.60892V7.58495V7.56098V7.53701V7.51304V7.48907V7.4651V7.44113V7.41715V7.39318V7.36921V7.34524V7.32127V7.2973V7.27333V7.24936V7.22539V7.20142V7.17745V7.15347V7.1295V7.10553V7.08156V7.05759V7.03362V7.00965V6.98568V6.9617V6.93773V6.91376V6.88979V6.86582V6.84185V6.81787V6.7939V6.76993V6.74596V6.72199V6.69802V6.67404V6.65007V6.6261V6.60213V6.57816V6.55418V6.53021V6.50624V6.48227V6.4583V6.43432V6.41035V6.38638V6.36241V6.33843V6.31446V6.29049V6.26652V6.24254V6.21857V6.1946V6.17063V6.14665V6.12268V6.09871V6.07473V6.05076V6.02679V6.00281V5.97884V5.95487V5.9309V5.90692V5.88295V5.85898V5.835V5.81103V5.78706V5.76308V5.73911V5.71514V5.69116V5.66719V5.64322V5.61924V5.59527V5.57129V5.54732V5.52335V5.49937V5.4754V5.45143V5.42745V5.40348V5.3795V5.35553V5.33155V5.30758V5.28361V5.25963V5.23566V5.21168V5.18771V5.16373V5.13976V5.11579V5.09181V5.06784V5.04386V5.01989V4.99591V4.97194V4.94796V4.92399V4.90001V4.87604V4.85206V4.82809V4.80411V4.78014V4.75616V4.73219V4.70821V4.68424V4.66026V4.63629V4.61231V4.58834V4.56436V4.54039V4.51641V4.49244V4.46846V4.44449V4.42051V4.39653V4.37256V4.34858V4.32461V4.30063V4.27666V4.25268V4.2287V4.20473V4.18075V4.15678V4.1328V4.10882V4.08485V4.06087V4.03689V4.01292V3.98894V3.96497V3.94099V3.91701V3.89304V3.86906V3.84508V3.82111V3.79713V3.77315V3.74918V3.7252V3.70122V3.67725V3.65327V3.62929V3.60532V3.58134V3.55736V3.53338V3.50941V3.48543V3.46145V3.43748V3.4135V3.38952V3.36554V3.34157V3.31759V3.29361V3.26963V3.24566V3.22168V3.1977V3.17372V3.14975V3.12577V3.10179V3.07781V3.05384V3.02986V3.00588V2.9819V2.95792V2.93395V2.90997V2.88599V2.86201V2.83803V2.81405V2.79008V2.7661V2.74212V2.71814V2.69416V2.67018V2.64621V2.62223V2.59825V2.57427V2.55029V2.52631V2.50233V2.47835V2.45438V2.4304V2.40642V2.38244V2.35846V2.33448V2.3105V2.28652V2.26254V2.23856V2.21459V2.19061V2.16663V2.14265V2.11867V2.09469V2.07071V2.04673V2.02275V1.99877V1.97479V1.95081V1.92683V1.90285V1.87887V1.85489V1.83091V1.80693V1.78295V1.75897V1.74968L0.873808 1.74039C0.863608 1.46608 0.956306 1.19786 1.1337 0.988396C1.31109 0.778931 1.56037 0.643333 1.83261 0.608218L1.83263 0.608361L1.8445 0.606538C2.31491 0.534335 2.79239 0.520013 3.26628 0.563887L3.27641 0.564825L3.28658 0.56535C3.43652 0.573096 3.58343 0.610475 3.71883 0.675328C3.85424 0.740184 3.97545 0.831229 4.07546 0.943204C4.17547 1.05518 4.25231 1.18587 4.30152 1.32771C4.35074 1.46956 4.37135 1.61974 4.36218 1.76959Z" stroke="#232323"/>
</svg>
