<svg width="23" height="25" viewBox="0 0 23 25" fill="none" xmlns="http://www.w3.org/2000/svg">
<path d="M15.0399 12.4122C14.6667 9.36279 11.9965 9.53298 11.8433 9.54994C11.1423 9.53317 9.02059 9.6262 8.64649 12.4122C8.64651 12.419 8.64518 12.4258 8.64258 12.4321C9.61299 11.8666 10.7154 11.567 11.8386 11.5635C12.9617 11.56 14.066 11.8527 15.0399 12.4122Z" fill="white"/>
<path d="M22.8219 9.16453L21.5003 7.94637L17.5472 7.94238L17.5273 14.889C17.5581 14.8737 22.8039 14.9056 22.8259 14.8772L22.8219 9.16453ZM21.7511 13.03H18.5982C18.5074 13.0292 18.4206 12.9926 18.3566 12.9281C18.2927 12.8636 18.2568 12.7764 18.2568 12.6856C18.2568 12.5948 18.2927 12.5077 18.3566 12.4432C18.4206 12.3787 18.5074 12.342 18.5982 12.3413H21.7511C21.841 12.3435 21.9264 12.3807 21.9892 12.445C22.052 12.5094 22.0871 12.5957 22.0871 12.6856C22.0871 12.7755 22.052 12.8618 21.9892 12.9262C21.9264 12.9905 21.841 13.0278 21.7511 13.03ZM21.7511 10.4862H18.5982C18.5528 10.4865 18.5078 10.4778 18.4658 10.4606C18.4238 10.4434 18.3855 10.4181 18.3533 10.3861C18.3211 10.3541 18.2956 10.316 18.2782 10.2741C18.2607 10.2322 18.2517 10.1872 18.2517 10.1418C18.2517 10.0964 18.2607 10.0515 18.2782 10.0096C18.2956 9.96765 18.3211 9.9296 18.3533 9.8976C18.3855 9.86559 18.4238 9.84027 18.4658 9.82309C18.5078 9.80591 18.5528 9.79721 18.5982 9.79749H21.7511C21.841 9.79967 21.9264 9.8369 21.9892 9.90124C22.052 9.96558 22.0872 10.0519 22.0872 10.1418C22.0872 10.2317 22.052 10.3181 21.9892 10.3824C21.9264 10.4468 21.841 10.484 21.7511 10.4862Z" fill="white"/>
<path d="M15.0987 13.2924C14.1488 12.6114 13.0093 12.2451 11.8404 12.2451C10.6715 12.2451 9.53202 12.6114 8.58203 13.2924C8.58203 14.3274 8.83283 16.0073 10.3137 16.8513C10.8137 17.135 11.3829 17.2737 11.9574 17.2519C12.5319 17.2301 13.089 17.0486 13.5661 16.7279C14.8718 15.8561 15.0987 14.2717 15.0987 13.2924Z" fill="white"/>
<path d="M10.2871 17.6074V18.324L11.8477 20.6408L13.4002 18.3239V17.6074C12.9109 17.8278 12.3803 17.9418 11.8436 17.9418C11.307 17.9418 10.7764 17.8278 10.2871 17.6074Z" fill="white"/>
<path d="M13.9056 18.8096L12.1858 21.3694V22.699C12.1837 22.7889 12.1464 22.8744 12.0821 22.9372C12.0178 23.0001 11.9314 23.0352 11.8415 23.0352C11.7515 23.0352 11.6652 23.0001 11.6008 22.9372C11.5365 22.8744 11.4993 22.7889 11.4971 22.699V21.3574L9.78135 18.8057C9.0436 18.9569 8.38119 19.3594 7.90712 19.9445C7.43305 20.5297 7.17671 21.2612 7.18181 22.0143C7.18273 22.0223 7.18113 24.0769 7.18181 24.0843C7.18181 24.0763 16.5209 24.0995 16.5051 24.0764V22.0143C16.5107 21.2615 16.2545 20.5302 15.7802 19.9456C15.306 19.361 14.6433 18.9594 13.9056 18.8096Z" fill="white"/>
<path d="M4.23962 13.6063L4.20779 13.0489C4.20862 12.8967 4.24907 12.7472 4.32514 12.6153C4.40122 12.4834 4.51032 12.3735 4.6417 12.2965C5.15958 11.9726 5.62427 12.3042 6.05889 12.5673L6.83518 11.166L6.35748 10.9231C6.2195 10.8434 6.10492 10.7288 6.02527 10.5908C5.94561 10.4528 5.90367 10.2963 5.90367 10.1369C5.90367 9.97758 5.94561 9.82104 6.02527 9.68303C6.10492 9.54502 6.2195 9.43041 6.35748 9.35071L6.84715 9.06804L6.01915 7.69465L5.56532 7.98923C5.42854 8.06584 5.27432 8.1059 5.11754 8.10554C4.96076 8.10519 4.80672 8.06443 4.67028 7.98721C4.53384 7.90998 4.41961 7.7989 4.33861 7.66467C4.25761 7.53044 4.21257 7.37759 4.20784 7.22089V6.63574L2.60752 6.66757L2.63538 7.20899C2.63516 7.36601 2.59391 7.52026 2.5157 7.65642C2.43749 7.79259 2.32505 7.90594 2.18953 7.98526C1.68796 8.29979 1.21255 7.96068 0.784263 7.70658L0.0119188 9.10784L0.489639 9.35071C0.627627 9.4304 0.742209 9.54502 0.821873 9.68302C0.901536 9.82103 0.943475 9.97758 0.943475 10.1369C0.943475 10.2963 0.901536 10.4528 0.821873 10.5908C0.742209 10.7288 0.627627 10.8434 0.489639 10.9231L0 11.2058L0.82405 12.5752L1.27788 12.2806C1.41569 12.2025 1.57152 12.1618 1.72994 12.1624C1.88835 12.163 2.04384 12.2051 2.18101 12.2843C2.31818 12.3636 2.43226 12.4773 2.51195 12.6142C2.59164 12.7511 2.63418 12.9064 2.63534 13.0649V13.6341L4.23962 13.6063ZM1.80333 10.1349C1.80721 9.70777 1.97963 9.29942 2.28306 8.99874C2.5865 8.69805 2.9964 8.52936 3.42358 8.52937C3.85076 8.52937 4.26065 8.69808 4.56408 8.99877C4.8675 9.29947 5.03991 9.70782 5.04377 10.135C5.03989 10.5621 4.86748 10.9705 4.56404 11.2712C4.26061 11.5719 3.85071 11.7406 3.42353 11.7405C2.99635 11.7405 2.58645 11.5718 2.28303 11.2711C1.9796 10.9704 1.8072 10.5621 1.80333 10.1349Z" fill="white"/>
<path d="M4.35525 10.1358C4.35245 9.89059 4.25307 9.65636 4.07868 9.48395C3.90428 9.31153 3.66893 9.21484 3.42369 9.21484C3.17845 9.21485 2.94311 9.31156 2.76872 9.48398C2.59433 9.65641 2.49497 9.89065 2.49219 10.1359C2.49498 10.3811 2.59436 10.6153 2.76876 10.7877C2.94315 10.9602 3.1785 11.0568 3.42374 11.0568C3.66898 11.0568 3.90433 10.9601 4.07871 10.7877C4.2531 10.6153 4.35247 10.381 4.35525 10.1358Z" fill="white"/>
<path d="M9.07727 3.55495C9.0772 3.64678 9.04069 3.73483 8.97576 3.79977C8.91082 3.8647 8.82277 3.90121 8.73094 3.90128H8.29304C8.37284 4.72519 8.73653 5.49575 9.32185 6.08107C9.90716 6.66638 10.6777 7.03007 11.5016 7.10987C11.511 6.81272 11.4105 6.34017 11.844 6.32169C11.8893 6.32179 11.9341 6.33085 11.9758 6.34834C12.0176 6.36583 12.0554 6.39141 12.0872 6.4236C12.1191 6.45578 12.1442 6.49395 12.1612 6.53589C12.1782 6.57784 12.1868 6.62273 12.1864 6.66799V7.10987C13.0103 7.03008 13.7808 6.66639 14.3662 6.08107C14.9515 5.49576 15.3152 4.72519 15.395 3.90128C15.0951 3.89317 14.6302 3.99007 14.6108 3.55495C14.6109 3.50968 14.6199 3.46489 14.6374 3.42314C14.6549 3.38139 14.6805 3.34351 14.7127 3.31169C14.7449 3.27986 14.783 3.25472 14.825 3.23771C14.8669 3.2207 14.9118 3.21216 14.9571 3.21257H15.3989C15.3177 2.38812 14.9532 1.61732 14.3674 1.03153C13.7816 0.445735 13.0108 0.0811866 12.1863 0C12.1771 0.297157 12.2775 0.769708 11.844 0.788216C11.7987 0.788099 11.7539 0.779031 11.7122 0.761536C11.6704 0.74404 11.6326 0.718462 11.6007 0.686273C11.5689 0.654084 11.5438 0.615921 11.5268 0.573979C11.5098 0.532037 11.5012 0.487145 11.5016 0.441886V0C10.6772 0.0811949 9.90638 0.44575 9.32059 1.03155C8.7348 1.61734 8.37025 2.38814 8.28906 3.21259C8.58624 3.22188 9.05876 3.12143 9.07727 3.55495ZM11.4977 2.50799C11.4996 2.41791 11.5367 2.33216 11.601 2.26912C11.6654 2.20608 11.7519 2.17078 11.842 2.17078C11.9321 2.17078 12.0186 2.20608 12.083 2.26912C12.1474 2.33216 12.1845 2.41791 12.1863 2.50799V3.76991L13.0502 4.3113C13.1119 4.35165 13.1591 4.41075 13.1848 4.47991C13.2104 4.54907 13.2132 4.62464 13.1927 4.6955C13.1722 4.76636 13.1295 4.82877 13.0709 4.87355C13.0123 4.91833 12.9408 4.94312 12.8671 4.94428C12.7527 4.99566 11.7785 4.30289 11.6608 4.25162C11.611 4.22119 11.5699 4.17848 11.5413 4.12759C11.5128 4.0767 11.4977 4.01934 11.4977 3.96098V2.50799Z" fill="white"/>
<path d="M18.9043 7.25287H19.9792C19.077 5.66781 17.7286 4.38308 16.1018 3.55859C16.1021 3.88845 16.0634 4.21717 15.9863 4.5379C17.1644 5.1934 18.1657 6.12506 18.9043 7.25287Z" fill="white"/>
<path d="M4.89554 6.6359V7.02203L4.92737 7.04591C5.65519 6.01522 6.60118 5.15758 7.69807 4.53397C7.62104 4.21325 7.58229 3.88453 7.58264 3.55469C6.39897 4.16014 5.35804 5.01108 4.5293 6.05071C4.63916 6.10399 4.73178 6.18715 4.79656 6.29065C4.86133 6.39415 4.89564 6.5138 4.89554 6.6359Z" fill="white"/>
<path d="M16.0703 19.2356C16.2859 19.4581 16.4743 19.7053 16.6316 19.9721C18.3453 18.9503 19.6893 17.4097 20.4692 15.5732H19.4621C18.724 17.1063 17.5423 18.3823 16.0703 19.2356Z" fill="white"/>
<path d="M3.73074 14.2959H2.7793C3.40661 16.6749 4.9435 18.7122 7.05875 19.9687C7.21474 19.701 7.40328 19.4536 7.62006 19.2322C5.73714 18.1481 4.34425 16.3802 3.73074 14.2959Z" fill="white"/>
</svg>
