<svg width="28" height="28" viewBox="0 0 28 28" fill="none" xmlns="http://www.w3.org/2000/svg">
<path d="M18.7963 6.82023C18.7963 3.52898 16.1336 0.860352 12.8364 0.860352C5.74572 0.860352 0 6.59741 0 13.6967C0 20.7874 5.73706 26.5331 12.8364 26.5331C15.7537 26.5331 18.5292 25.541 20.7534 23.7993C20.7873 21.9001 20.9069 20.0031 21.0689 18.2164C20.6633 19.0671 19.795 19.6566 18.7915 19.6566C17.4011 19.6566 16.2699 18.5254 16.2699 17.1349C16.2699 15.7445 17.4011 14.6133 18.7915 14.6133C19.971 14.6133 20.9636 15.4276 21.2377 16.5234C21.4698 14.3854 21.7467 12.4769 21.9831 11.0156C20.1457 10.5058 18.7963 8.82396 18.7963 6.82023ZM6.88136 19.6566C5.4909 19.6566 4.3597 18.5254 4.3597 17.135C4.3597 15.7446 5.4909 14.6134 6.88136 14.6134C8.27177 14.6134 9.40297 15.7446 9.40297 17.135C9.40297 18.5254 8.27177 19.6566 6.88136 19.6566ZM6.88136 12.7801C5.4909 12.7801 4.3597 11.6489 4.3597 10.2585C4.3597 8.8681 5.4909 7.7369 6.88136 7.7369C8.27177 7.7369 9.40297 8.8681 9.40297 10.2585C9.40297 11.6489 8.27177 12.7801 6.88136 12.7801ZM12.8364 23.0949C11.446 23.0949 10.3148 21.9637 10.3148 20.5733C10.3148 19.1829 11.446 18.0517 12.8364 18.0517C14.2268 18.0517 15.358 19.1829 15.358 20.5733C15.358 21.9637 14.2268 23.0949 12.8364 23.0949ZM12.8364 9.34184C11.446 9.34184 10.3148 8.21064 10.3148 6.82023C10.3148 5.42983 11.446 4.29863 12.8364 4.29863C14.2268 4.29863 15.358 5.42983 15.358 6.82023C15.358 8.21064 14.2268 9.34184 12.8364 9.34184Z" fill="white"/>
<path d="M12.8365 5.90234C12.3311 5.90234 11.9199 6.31354 11.9199 6.81896C11.9199 7.32437 12.3311 7.73557 12.8365 7.73557C13.342 7.73557 13.7532 7.32437 13.7532 6.81896C13.7532 6.31354 13.342 5.90234 12.8365 5.90234Z" fill="white"/>
<path d="M12.8365 19.6562C12.3311 19.6562 11.9199 20.0674 11.9199 20.5729C11.9199 21.0783 12.3311 21.4895 12.8365 21.4895C13.342 21.4895 13.7532 21.0783 13.7532 20.5729C13.7532 20.0674 13.342 19.6562 12.8365 19.6562Z" fill="white"/>
<path d="M6.88151 9.34082C6.37604 9.34082 5.96484 9.75202 5.96484 10.2574C5.96484 10.7628 6.37604 11.174 6.88151 11.174C7.38692 11.174 7.79812 10.7628 7.79812 10.2574C7.79812 9.75202 7.38692 9.34082 6.88151 9.34082Z" fill="white"/>
<path d="M18.7916 18.051C19.2978 18.051 19.7082 17.6406 19.7082 17.1344C19.7082 16.6282 19.2978 16.2178 18.7916 16.2178C18.2854 16.2178 17.875 16.6282 17.875 17.1344C17.875 17.6406 18.2854 18.051 18.7916 18.051Z" fill="white"/>
<path d="M6.88151 16.2178C6.37604 16.2178 5.96484 16.629 5.96484 17.1344C5.96484 17.6398 6.37604 18.051 6.88151 18.051C7.38692 18.051 7.79812 17.6398 7.79812 17.1344C7.79812 16.629 7.38692 16.2178 6.88151 16.2178Z" fill="white"/>
<path d="M24.8713 10.9458C24.4469 10.9458 24.0374 10.8812 23.6518 10.7617C23.1376 13.8375 22.3496 19.4377 22.3496 24.87C22.3496 26.2604 23.4808 27.3916 24.8712 27.3916C26.2616 27.3916 27.3929 26.2604 27.3929 24.87C27.3929 19.4377 26.6049 13.8376 26.0907 10.7617C25.7051 10.8812 25.2956 10.9458 24.8713 10.9458Z" fill="white"/>
<path d="M24.8713 9.34107C26.2617 9.34107 27.3929 8.20987 27.3929 6.81946C27.3929 3.68587 25.6451 0.541525 25.5707 0.40922C25.4286 0.156434 25.1612 0 24.8713 0C24.5813 0 24.3139 0.156434 24.1718 0.409167C24.0973 0.541472 22.3496 3.68587 22.3496 6.81941C22.3496 8.20987 23.4808 9.34107 24.8713 9.34107Z" fill="white"/>
</svg>
