<svg width="23" height="28" viewBox="0 0 23 28" fill="none" xmlns="http://www.w3.org/2000/svg">
<path d="M19.7873 0.304688H3.23823C1.50685 0.304688 0.0996094 1.71193 0.0996094 3.44331V24.5577C0.0996094 26.289 1.50685 27.6963 3.23823 27.6963H19.7873C21.5187 27.6963 22.9259 26.289 22.9259 24.5577V3.44331C22.9259 1.71193 21.5187 0.304688 19.7873 0.304688ZM3.52356 10.2912C3.52356 9.8187 3.90704 9.43522 4.37955 9.43522H10.6568C11.1293 9.43522 11.5128 9.8187 11.5128 10.2912V11.4325C11.5128 11.905 11.1293 12.2885 10.6568 12.2885C10.1843 12.2885 9.8008 11.905 9.8008 11.4325V11.1472H8.37416V15.7125C8.84666 15.7125 9.23014 16.0959 9.23014 16.5685C9.23014 17.041 8.84666 17.4244 8.37416 17.4244H6.66218C6.18968 17.4244 5.80619 17.041 5.80619 16.5685C5.80619 16.0959 6.18968 15.7125 6.66218 15.7125V11.1472H5.23553V11.4325C5.23553 11.905 4.85205 12.2885 4.37955 12.2885C3.90704 12.2885 3.52356 11.905 3.52356 11.4325V10.2912ZM18.646 24.2723H4.37955C3.90704 24.2723 3.52356 23.8889 3.52356 23.4164C3.52356 22.9438 3.90704 22.5604 4.37955 22.5604H18.646C19.1185 22.5604 19.502 22.9438 19.502 23.4164C19.502 23.8889 19.1185 24.2723 18.646 24.2723ZM18.646 20.8484H4.37955C3.90704 20.8484 3.52356 20.4649 3.52356 19.9924C3.52356 19.5199 3.90704 19.1364 4.37955 19.1364H18.646C19.1185 19.1364 19.502 19.5199 19.502 19.9924C19.502 20.4649 19.1185 20.8484 18.646 20.8484ZM18.646 17.4244H14.6514C14.1789 17.4244 13.7954 17.041 13.7954 16.5685C13.7954 16.0959 14.1789 15.7125 14.6514 15.7125H18.646C19.1185 15.7125 19.502 16.0959 19.502 16.5685C19.502 17.041 19.1185 17.4244 18.646 17.4244ZM18.646 14.2858H14.6514C14.1789 14.2858 13.7954 13.9023 13.7954 13.4298C13.7954 12.9573 14.1789 12.5738 14.6514 12.5738H18.646C19.1185 12.5738 19.502 12.9573 19.502 13.4298C19.502 13.9023 19.1185 14.2858 18.646 14.2858ZM18.646 11.1472H14.6514C14.1789 11.1472 13.7954 10.7637 13.7954 10.2912C13.7954 9.8187 14.1789 9.43522 14.6514 9.43522H18.646C19.1185 9.43522 19.502 9.8187 19.502 10.2912C19.502 10.7637 19.1185 11.1472 18.646 11.1472Z" fill="white"/>
</svg>
