<svg width="9" height="10" viewBox="0 0 9 10" fill="none" xmlns="http://www.w3.org/2000/svg">
<g clip-path="url(#clip0_1003_13403)">
<path d="M8.94586 1.7476C8.81719 1.40218 8.46062 1.17179 8.03885 1.16905C7.56728 1.16597 7.09573 1.16905 6.60628 1.16905C6.60628 1.06909 6.60874 0.985213 6.60628 0.90134C6.59016 0.402556 6.22727 0.0163997 5.73292 0.00921062C4.91532 -0.00277117 4.09736 -0.000717147 3.2787 0.00921062C2.84395 0.0140033 2.50491 0.309782 2.42743 0.728118C2.40184 0.865053 2.39903 1.00883 2.38396 1.16939C1.90047 1.16939 1.42786 1.16562 0.954894 1.16939C0.488941 1.17418 0.113448 1.46003 0.0205377 1.87221C-0.0674639 2.25939 0.132383 2.6363 0.523307 2.85163C0.554068 2.87363 0.579915 2.90152 0.599265 2.9336C0.618616 2.96568 0.631063 3.00127 0.635849 3.03821C0.681428 3.4627 0.716489 3.88857 0.750848 4.31444C0.801686 4.94434 0.84586 5.57492 0.8981 6.20482C0.975934 7.14693 1.06183 8.08767 1.13686 9.03081C1.1884 9.67577 1.5355 9.99963 2.19569 9.99997H3.14232C4.39841 9.99997 5.65451 9.99997 6.9106 9.99997C7.37691 9.99997 7.78711 9.69186 7.82919 9.28996C7.89931 8.60529 7.9526 7.91788 8.0115 7.23149C8.04971 6.78303 8.08162 6.33423 8.12229 5.88611C8.16366 5.40957 8.21135 4.93338 8.25202 4.45685C8.29269 3.98032 8.32424 3.50276 8.37297 3.02691C8.37963 2.9605 8.4473 2.87697 8.51041 2.84307C8.70543 2.74177 8.85668 2.57542 8.93661 2.37434C9.01654 2.17326 9.01982 1.95084 8.94586 1.7476ZM2.99681 0.907502C3.00943 0.711001 3.13039 0.588444 3.33129 0.587417C4.11313 0.583538 4.89499 0.583538 5.67683 0.587417C5.87738 0.587417 5.99728 0.71237 6.00991 0.909214C6.01481 0.987951 6.00991 1.06703 6.00991 1.1622H2.99471C2.99576 1.07354 2.9919 0.988978 2.99681 0.907502ZM7.71945 3.65681C7.67843 4.14498 7.6332 4.63247 7.59042 5.1203C7.53398 5.76115 7.47648 6.40167 7.42179 7.04286C7.38217 7.5081 7.34745 7.97368 7.30924 8.43925C7.29066 8.66588 7.27734 8.89354 7.24578 9.11879C7.21423 9.34405 7.11431 9.41731 6.8787 9.41834C6.48147 9.41834 6.08423 9.41834 5.68665 9.41834H2.19919C1.86436 9.41834 1.77005 9.342 1.7399 9.01952C1.69818 8.5714 1.66978 8.12259 1.63016 7.67413C1.57511 7.02746 1.51516 6.38113 1.46117 5.73445C1.40928 5.11037 1.36265 4.48561 1.31181 3.86118C1.28762 3.56164 1.25887 3.26244 1.23047 2.94338H7.76818C7.75205 3.18575 7.73908 3.42162 7.71945 3.65681ZM8.39226 2.10397C8.36316 2.26042 8.25798 2.33915 8.0967 2.3395C7.52966 2.34132 6.96285 2.34189 6.39627 2.34121H4.48583C3.31715 2.34121 2.14847 2.34121 0.979794 2.34121C0.76312 2.34121 0.645312 2.26795 0.614459 2.12177C0.579398 1.95334 0.676866 1.80579 0.859881 1.76574C0.923057 1.75499 0.987255 1.75108 1.05131 1.7541C3.35384 1.7541 5.65614 1.7541 7.95821 1.7541C8.02799 1.75127 8.09786 1.75714 8.16612 1.77156C8.33266 1.81401 8.42206 1.94376 8.3912 2.10397H8.39226Z" fill="black"/>
<path d="M4.80963 8.3893C4.80963 8.67515 4.7083 8.82612 4.51267 8.83433C4.31703 8.84255 4.19922 8.67994 4.19922 8.3893C4.19922 7.64848 4.19922 6.90766 4.19922 6.16685C4.19922 5.40891 4.19922 4.65098 4.19922 3.89304C4.19922 3.66436 4.3002 3.5377 4.47796 3.52811C4.64344 3.51887 4.75844 3.60035 4.7935 3.75885C4.80556 3.82665 4.8105 3.89547 4.80822 3.96425C4.80962 5.43812 4.81009 6.91314 4.80963 8.3893Z" fill="black"/>
<path d="M6.60482 3.83008C6.54767 4.67326 6.49088 5.4798 6.43864 6.28669C6.39832 6.91145 6.36395 7.5369 6.32609 8.16201C6.31872 8.28149 6.30681 8.40165 6.29524 8.51941C6.27666 8.7142 6.14097 8.84874 5.97969 8.83299C5.81 8.81656 5.68448 8.66661 5.69605 8.48244C5.72059 8.08464 5.7511 7.68753 5.77704 7.28974C5.83127 6.45489 5.88492 5.6197 5.93797 4.78417C5.95901 4.46614 5.9832 4.14811 6.00809 3.83042C6.02422 3.61715 6.12625 3.51924 6.32083 3.52677C6.49683 3.53362 6.60903 3.66747 6.60482 3.83008Z" fill="black"/>
<path d="M3.30788 8.4975C3.3149 8.67825 3.175 8.82957 3.00847 8.83436C2.85736 8.83847 2.72343 8.71043 2.71186 8.53858C2.66347 7.82275 2.61965 7.10659 2.57162 6.39076C2.51762 5.5728 2.46188 4.75496 2.40438 3.93723C2.38615 3.68322 2.49097 3.52643 2.69923 3.52643C2.86437 3.52643 2.98182 3.61954 2.99339 3.77702C3.03091 4.28813 3.06351 4.79924 3.09857 5.31069C3.15491 6.15694 3.21077 7.00331 3.26616 7.8498C3.28194 8.06581 3.30017 8.28046 3.30788 8.4975Z" fill="black"/>
</g>
<defs>
<clipPath id="clip0_1003_13403">
<rect width="9" height="10" fill="white"/>
</clipPath>
</defs>
</svg>
