<svg width="46" height="46" viewBox="0 0 46 46" fill="none" xmlns="http://www.w3.org/2000/svg">
<rect x="0.602539" y="0.577148" width="44.6797" height="44.6797" rx="22.3398" fill="#01AAC1"/>
<path d="M29.7956 31.7803H25.8578H24.7974H24.5684V26.4983H26.2959C26.734 26.4983 26.9928 26.0005 26.734 25.6421L23.3737 20.9924C23.1596 20.6937 22.7165 20.6937 22.5025 20.9924L19.1421 25.6421C18.8833 26.0005 19.1372 26.4983 19.5802 26.4983H21.3077V31.7803H21.0787H20.0183H15.4533C12.8397 31.6359 10.7588 29.1916 10.7588 26.5431C10.7588 24.7161 11.7495 23.1231 13.218 22.2619C13.0836 21.8984 13.0139 21.5101 13.0139 21.1019C13.0139 19.2351 14.5223 17.7267 16.3892 17.7267C16.7924 17.7267 17.1807 17.7964 17.5441 17.9308C18.6244 15.6408 20.9542 14.0527 23.6624 14.0527C27.1671 14.0577 30.0545 16.741 30.383 20.161C33.0763 20.624 35.1223 23.1181 35.1223 25.9408C35.1223 28.9576 32.7726 31.5712 29.7956 31.7803Z" fill="white"/>
</svg>

