<svg width="14" height="9" viewBox="0 0 14 9" fill="none" xmlns="http://www.w3.org/2000/svg">
<path d="M13.094 4.64859C11.7655 2.25657 9.59556 1.04916 6.66947 0.94014C6.45044 0.94014 6.23142 0.932003 6.01299 0.94014C5.83471 0.949228 5.65739 0.970075 5.48244 1.00252C3.07735 1.44024 1.29652 2.62975 0.216912 4.64588C0.136029 4.82504 0.136029 5.02595 0.216912 5.20511C1.54956 7.81518 4.69288 9.34098 7.82725 8.83925C10.2437 8.45197 12.0138 7.2169 13.0946 5.20511C13.1352 5.11697 13.1561 5.02236 13.156 4.9268C13.1559 4.83124 13.1348 4.73665 13.094 4.64859ZM11.9105 5.1552C10.7169 6.95546 8.95698 7.86725 6.64679 7.95784C4.36822 7.8678 2.61663 6.95763 1.41349 5.18016C1.29413 5.00821 1.281 4.86881 1.40453 4.68711C2.62916 2.88631 4.38851 1.90617 6.72855 1.92841C9.02084 1.95065 10.7301 2.94489 11.9207 4.71097C12.0275 4.87641 12.0138 5.0017 11.9105 5.15737V5.1552Z" fill="white"/>
<path d="M6.65935 2.89648C6.06632 2.89769 5.49748 3.11029 5.07509 3.48861C4.6527 3.86693 4.41048 4.38077 4.40047 4.91967C4.38973 6.02402 5.40966 6.95642 6.63607 6.96347C7.8786 6.97107 8.91404 6.04463 8.91046 4.92727C8.90688 3.81858 7.88636 2.89811 6.65935 2.89648ZM6.64622 5.9828C6.02495 5.9752 5.50753 5.48758 5.51231 4.91479C5.52039 4.64257 5.6427 4.38345 5.85418 4.19054C6.06567 3.99762 6.35031 3.88551 6.6498 3.87716C7.26569 3.87174 7.79982 4.36208 7.79923 4.93106C7.79863 5.50005 7.26032 5.99039 6.64622 5.9828Z" fill="white"/>
</svg>
