<svg width="17" height="14" viewBox="0 0 17 14" fill="none" xmlns="http://www.w3.org/2000/svg">
<path d="M10.0685 11.9405C10.0603 11.9153 10.0453 11.8929 10.0251 11.8757C10.0049 11.8586 9.98034 11.8474 9.95415 11.8433L9.04099 11.7104L8.63142 10.883C8.61843 10.8604 8.59969 10.8416 8.57711 10.8285C8.55453 10.8155 8.5289 10.8086 8.50281 10.8086C8.47672 10.8086 8.45109 10.8155 8.42851 10.8285C8.40593 10.8416 8.38719 10.8604 8.37419 10.883L7.96692 11.7104L7.05375 11.8433C7.02742 11.8472 7.00269 11.8584 6.98235 11.8755C6.96201 11.8927 6.94687 11.9152 6.93864 11.9405C6.93041 11.9659 6.92942 11.993 6.93577 12.0188C6.94212 12.0447 6.95556 12.0682 6.97458 12.0869L7.63538 12.7311L7.47932 13.6405C7.47484 13.6668 7.47779 13.6938 7.48783 13.7184C7.49788 13.7431 7.51462 13.7645 7.53617 13.7802C7.55772 13.7958 7.58322 13.8052 7.60979 13.8071C7.63636 13.809 7.66294 13.8035 7.68654 13.7911L8.50338 13.3619L9.32023 13.7906C9.34069 13.8013 9.36344 13.8069 9.38653 13.8069C9.40733 13.8069 9.42789 13.8023 9.44675 13.7936C9.46562 13.7848 9.48234 13.772 9.49576 13.7561C9.50918 13.7402 9.51897 13.7216 9.52444 13.7015C9.52991 13.6815 9.53093 13.6605 9.52744 13.6399L9.37139 12.7305L10.0322 12.0863C10.0512 12.0678 10.0646 12.0443 10.071 12.0186C10.0774 11.9928 10.0766 11.9658 10.0685 11.9405Z" fill="white"/>
<path d="M6.62902 11.9405C6.62085 11.9153 6.60583 11.8929 6.58564 11.8757C6.56545 11.8586 6.54089 11.8474 6.5147 11.8433L5.60154 11.7104L5.19311 10.883C5.18012 10.8604 5.16138 10.8416 5.1388 10.8285C5.11622 10.8155 5.09059 10.8086 5.0645 10.8086C5.03841 10.8086 5.01278 10.8155 4.9902 10.8285C4.96762 10.8416 4.94888 10.8604 4.93588 10.883L4.52746 11.7104L3.6143 11.8433C3.58796 11.8472 3.56323 11.8584 3.5429 11.8755C3.52256 11.8927 3.50742 11.9152 3.49919 11.9405C3.49096 11.9659 3.48996 11.993 3.49631 12.0188C3.50266 12.0447 3.51611 12.0682 3.53513 12.0869L4.19592 12.7311L4.03987 13.6405C4.03539 13.6668 4.03833 13.6938 4.04838 13.7184C4.05842 13.7431 4.07516 13.7645 4.09671 13.7802C4.11826 13.7958 4.14376 13.8052 4.17033 13.8071C4.1969 13.809 4.22349 13.8035 4.24708 13.7911L5.06393 13.3619L5.88077 13.7906C5.90123 13.8013 5.92399 13.8069 5.94708 13.8069C5.96788 13.8069 5.98843 13.8023 6.0073 13.7936C6.02616 13.7848 6.04289 13.772 6.05631 13.7561C6.06973 13.7402 6.07951 13.7216 6.08498 13.7015C6.09045 13.6815 6.09148 13.6605 6.08798 13.6399L5.93193 12.7305L6.59272 12.0863C6.61171 12.0678 6.62516 12.0443 6.63157 12.0186C6.63798 11.9928 6.6371 11.9658 6.62902 11.9405Z" fill="white"/>
<path d="M13.5079 11.9405C13.4998 11.9153 13.4847 11.8929 13.4645 11.8757C13.4444 11.8586 13.4198 11.8474 13.3936 11.8433L12.4804 11.7104L12.072 10.883C12.059 10.8604 12.0403 10.8416 12.0177 10.8285C11.9951 10.8155 11.9695 10.8086 11.9434 10.8086C11.9173 10.8086 11.8917 10.8155 11.8691 10.8285C11.8465 10.8416 11.8278 10.8604 11.8148 10.883L11.4064 11.7104L10.4932 11.8433C10.4669 11.8472 10.4421 11.8584 10.4218 11.8755C10.4015 11.8927 10.3863 11.9152 10.3781 11.9405C10.3699 11.9659 10.3689 11.993 10.3752 12.0188C10.3816 12.0447 10.395 12.0682 10.414 12.0869L11.0748 12.7311L10.9188 13.6405C10.9143 13.6668 10.9172 13.6938 10.9273 13.7184C10.9373 13.7431 10.9541 13.7645 10.9756 13.7802C10.9972 13.7958 11.0227 13.8052 11.0492 13.8071C11.0758 13.809 11.1024 13.8035 11.126 13.7911L11.9428 13.3619L12.7594 13.7906C12.78 13.8012 12.8028 13.8068 12.826 13.8069C12.8468 13.8069 12.8673 13.8023 12.8862 13.7936C12.9051 13.7848 12.9218 13.772 12.9352 13.7561C12.9486 13.7402 12.9584 13.7216 12.9639 13.7015C12.9694 13.6815 12.9704 13.6605 12.9669 13.6399L12.8108 12.7305L13.4716 12.0863C13.4906 12.0678 13.5041 12.0443 13.5105 12.0186C13.5169 11.9928 13.516 11.9658 13.5079 11.9405Z" fill="white"/>
<path d="M8.50488 0.90625C3.86811 0.90625 0.109375 4.6617 0.109375 9.30504C0.109375 9.44973 0.22776 9.56812 0.372454 9.56812H5.19666C5.34136 9.56812 5.45974 9.44973 5.45974 9.30504C5.45974 7.68711 6.70937 6.40131 8.24509 6.26977V8.16065C7.72222 8.28232 7.33089 8.746 7.33089 9.30504C7.33089 9.95287 7.85705 10.479 8.50488 10.479C9.15271 10.479 9.67887 9.95287 9.67887 9.30504C9.67887 8.746 9.28754 8.28232 8.76467 8.16065V6.26648C10.3004 6.39802 11.55 7.68711 11.55 9.30175C11.55 9.44645 11.6684 9.56483 11.8131 9.56483H16.6373C16.782 9.56483 16.9004 9.44645 16.9004 9.30175C16.907 4.68472 13.1778 0.912827 8.50488 0.90625ZM10.843 6.59862C10.2609 6.09548 9.53746 5.79952 8.77125 5.74361V3.22463C8.77125 3.07994 8.65286 2.96155 8.50817 2.96155C8.36347 2.96155 8.24509 3.07994 8.24509 3.22463V5.74361C7.47558 5.79952 6.7554 6.09548 6.17334 6.59862L3.13149 3.55348C4.59158 2.18547 6.49233 1.43241 8.50817 1.43241C10.5273 1.4357 12.4248 2.18876 13.8848 3.55677L10.843 6.59862Z" fill="white"/>
</svg>
