<?xml version="1.0" standalone="no"?>
<!DOCTYPE svg PUBLIC "-//W3C//DTD SVG 20010904//EN"
 "http://www.w3.org/TR/2001/REC-SVG-20010904/DTD/svg10.dtd">
<svg version="1.0" xmlns="http://www.w3.org/2000/svg"
 width="300.000000pt" height="358.000000pt" viewBox="0 0 300.000000 358.000000"
 preserveAspectRatio="xMidYMid meet">
<metadata>
Created by potrace 1.10, written by Peter Selinger 2001-2011
</metadata>
<g transform="translate(0.000000,358.000000) scale(0.100000,-0.100000)"
fill="#fff" stroke="none"> 
<path d="M1284 3436 c-5 -74 -12 -138 -16 -141 -5 -6 -334 97 -486 152 -24 8
-45 13 -47 11 -2 -2 3 -23 11 -48 25 -73 63 -230 79 -335 18 -109 32 -344 27
-441 l-4 -62 -111 -4 c-170 -5 -182 -19 -277 -301 -32 -94 -130 -383 -218
-642 -88 -259 -170 -506 -182 -549 -30 -108 -21 -137 63 -204 224 -178 796
-484 1227 -657 258 -103 566 -178 740 -179 156 -1 154 -3 208 161 l42 130 99
-5 c137 -6 134 -11 196 238 43 175 52 199 83 234 47 53 77 122 107 248 13 59
36 141 50 183 29 87 27 119 -11 165 l-25 29 35 158 c19 87 45 211 57 276 23
117 23 118 3 145 -11 15 -42 38 -69 52 l-50 25 23 90 c46 186 81 440 91 659 4
104 3 153 -5 161 -6 6 -148 59 -315 119 -167 59 -340 120 -384 136 -347 124
-698 249 -790 280 -60 21 -117 41 -126 44 -13 6 -17 -12 -25 -128z m195 38
c185 -67 1027 -366 1235 -437 l178 -62 -6 -140 c-8 -182 -30 -354 -67 -540
-29 -142 -109 -439 -122 -452 -4 -3 -39 4 -79 16 -40 13 -81 25 -91 28 -12 3
-17 11 -14 21 102 347 136 516 172 858 l7 60 -304 107 c-167 59 -427 152 -578
206 -206 74 -278 95 -287 87 -7 -6 -24 -79 -38 -161 -46 -267 -101 -491 -177
-723 -27 -85 -32 -93 -52 -88 -11 3 -55 11 -96 18 -41 6 -76 12 -78 13 -1 1
22 77 53 167 98 294 163 613 186 911 7 86 17 157 22 157 5 0 66 -21 136 -46z
m-372 -165 l161 -52 -5 -36 c-35 -256 -96 -523 -175 -761 -28 -85 -52 -156
-53 -157 -1 -2 -38 3 -83 9 -92 14 -87 6 -71 113 18 124 13 433 -10 590 -17
116 -54 278 -86 381 -7 21 -5 21 77 -7 45 -15 156 -51 245 -80z m621 -189
c624 -220 904 -320 910 -324 9 -6 -10 -184 -39 -361 -21 -130 -67 -327 -109
-462 l-21 -71 -31 10 c-20 7 -28 16 -25 27 2 9 21 72 41 141 57 193 116 518
116 636 0 43 44 24 -476 207 -225 79 -427 152 -448 161 -22 9 -40 15 -41 14
-1 -2 -12 -59 -24 -128 -38 -210 -116 -504 -178 -672 -23 -61 -28 -68 -52 -68
-15 0 -30 2 -33 5 -3 3 11 49 29 103 70 198 163 578 188 767 11 81 13 87 36
74 11 -5 82 -32 157 -59z m117 -147 c223 -78 690 -245 694 -249 6 -6 -29 -239
-54 -365 -24 -119 -61 -257 -96 -365 l-20 -61 -127 39 c-409 125 -687 207
-755 224 -63 14 -76 21 -71 33 54 117 158 496 190 686 10 61 22 115 27 122 7
9 21 7 60 -8 29 -12 97 -37 152 -56z m-995 -445 c0 -7 -3 -30 -6 -50 -6 -36
-9 -38 -43 -38 -51 0 -111 -19 -118 -36 -11 -30 53 -75 256 -177 351 -176 578
-266 944 -372 242 -70 309 -92 532 -172 212 -76 225 -83 225 -123 0 -17 -2
-30 -4 -30 -7 0 -714 239 -851 288 -673 240 -885 334 -1042 460 -55 45 -113
96 -127 113 -45 53 -27 119 37 138 51 15 197 14 197 -1z m-253 -168 c70 -81
233 -201 348 -256 242 -114 705 -288 1294 -486 212 -71 386 -130 388 -132 6
-5 -35 -189 -65 -291 l-29 -100 -54 3 c-69 4 -155 26 -226 57 -67 30 -102 31
-135 5 -39 -30 -60 -94 -66 -196 -5 -107 6 -151 54 -204 52 -57 122 -83 222
-84 69 -1 82 -4 78 -16 -2 -8 -49 -143 -104 -300 l-100 -285 -44 -6 c-129 -18
-490 66 -778 181 -204 82 -534 241 -788 382 -170 93 -414 252 -455 296 -38 40
-43 90 -18 172 18 61 185 553 356 1052 41 120 75 224 75 233 0 24 10 18 47
-25z m233 10 c0 -36 -22 -40 -60 -10 -21 17 -23 21 -10 30 8 5 27 10 43 10 23
0 27 -4 27 -30z m286 -129 c291 -61 407 -92 1029 -281 204 -62 429 -129 500
-150 72 -21 138 -42 148 -45 11 -5 17 -2 17 6 0 23 -14 37 -43 44 -21 6 -27
12 -22 24 3 9 18 55 33 104 15 48 31 87 36 87 21 0 77 -44 82 -65 7 -29 -51
-330 -114 -585 l-48 -195 -72 -44 c-40 -24 -74 -42 -76 -40 -2 2 6 36 19 74
12 39 37 141 54 228 35 181 33 200 -35 232 -75 35 -445 165 -614 214 -440 130
-615 195 -1003 374 -155 71 -150 72 109 18z m1730 -905 c4 -25 -2 -58 -20
-113 -14 -43 -41 -136 -61 -208 -40 -143 -65 -190 -126 -235 -79 -57 -141 -74
-269 -74 -124 0 -161 10 -213 58 -39 36 -59 90 -59 157 0 117 43 237 80 226 9
-3 55 -19 102 -36 167 -59 302 -60 402 -2 83 47 92 59 118 164 13 54 28 97 32
97 4 0 10 -15 14 -34z m-220 -623 c-2 -10 -21 -81 -41 -158 -51 -192 -55 -201
-99 -208 -33 -5 -136 1 -136 9 0 1 13 38 29 81 16 43 42 114 59 158 l29 80 64
18 c35 10 68 23 74 28 15 15 27 10 21 -8z"/>
<path d="M1837 2693 c-18 -17 -2 -32 46 -43 73 -18 267 -85 345 -121 66 -30
92 -31 92 -6 0 22 -168 93 -349 148 -97 30 -123 34 -134 22z"/>
<path d="M1790 2506 c0 -20 16 -27 139 -61 52 -14 136 -43 188 -64 77 -32 95
-36 100 -24 3 8 2 18 -3 22 -31 28 -285 117 -388 136 -29 6 -36 4 -36 -9z"/>
<path d="M335 1378 c-2 -7 -30 -82 -60 -166 -31 -84 -57 -167 -57 -184 -1 -42
30 -68 175 -141 102 -52 117 -58 138 -47 21 12 14 17 -104 77 -161 82 -168 92
-137 196 18 58 63 183 97 265 3 8 -4 12 -21 12 -15 0 -29 -6 -31 -12z"/>
<path d="M2201 953 c-20 -78 -21 -75 53 -106 47 -19 88 -29 129 -30 l60 -2 12
60 c7 33 11 63 8 68 -2 4 -25 7 -51 7 -26 1 -72 9 -102 20 -83 29 -97 27 -109
-17z m103 -8 c27 -8 63 -15 79 -15 30 0 30 0 23 -47 -3 -25 -8 -49 -11 -51 -2
-3 -36 6 -75 18 -70 22 -92 41 -83 70 10 34 12 40 15 40 2 0 25 -7 52 -15z"/>
</g>
</svg>
