<svg width="52" height="64" viewBox="0 0 52 64" fill="none" xmlns="http://www.w3.org/2000/svg">
<path d="M46.4282 10.8729C46.4035 10.1072 46.2829 9.34806 46.0692 8.61416C45.4891 6.39178 44.2101 4.42931 42.4316 3.03285C40.6531 1.63639 38.4752 0.884458 36.2375 0.894348C27.7115 0.878967 19.1856 0.878967 10.6597 0.894348C4.6242 0.894348 0.0762847 5.36796 0.0448734 11.5466C-0.0149578 23.9638 -0.0149578 36.381 0.0448734 48.7983C0.0740411 54.4716 3.8591 58.8668 9.35833 59.2705C14.0454 59.6143 18.7817 59.4159 23.48 59.3951C23.7268 59.3951 24.1194 58.8552 24.198 58.5069C25.0012 54.9492 26.6772 51.9291 29.4324 49.6242C30.6597 48.5998 32.0575 47.79 33.3656 46.8902C27.8978 42.3243 28.6539 35.412 31.7075 31.7967C34.9721 27.9206 41.0232 26.4002 46.3923 30.8461C46.4125 30.5023 46.4327 30.3201 46.4327 30.1355C46.4462 23.7192 46.4551 17.2915 46.4282 10.8729ZM12.9168 11.2974C19.8273 11.2882 26.7385 11.2882 33.6505 11.2974C34.7589 11.2974 35.6451 11.6573 36.0198 12.8178C36.1724 13.2182 36.1822 13.6612 36.0475 14.0683C35.9128 14.4754 35.6423 14.8203 35.2839 15.042C34.8062 15.3226 34.2634 15.4645 33.7134 15.4526C30.202 15.4872 26.6884 15.4711 23.1681 15.4711C19.7278 15.4711 16.2875 15.4711 12.8472 15.4711C11.3193 15.4711 10.3792 14.6866 10.359 13.4477C10.3635 12.1626 11.3619 11.2974 12.9168 11.2974ZM22.1428 37.8115C18.9702 37.8269 15.7977 37.8269 12.6251 37.8115C11.3485 37.8115 10.4016 36.9094 10.3814 35.735C10.3635 34.5191 11.3148 33.6401 12.6834 33.6332C14.2899 33.6332 15.8941 33.6332 17.5006 33.6332C19.0308 33.6332 20.561 33.6216 22.0911 33.6332C23.4373 33.6447 24.2855 34.4476 24.2989 35.6843C24.3124 36.9209 23.4486 37.8046 22.1428 37.8115ZM35.7775 25.6088C35.5196 25.9149 35.2047 26.1646 34.8513 26.3434C34.4979 26.5221 34.1133 26.6261 33.7201 26.6494C26.7355 26.7255 19.7488 26.7024 12.7642 26.6886C11.3933 26.6886 10.4106 25.7934 10.3837 24.6121C10.3568 23.4308 11.2969 22.5126 12.6947 22.5034C16.2441 22.4757 19.7936 22.5034 23.3409 22.5034C26.8881 22.5034 30.3658 22.4734 33.8861 22.5172C35.6833 22.531 36.7647 24.2568 35.7775 25.6088Z" fill="white"/>
<path d="M49.6299 63.8756C46.2308 63.8918 42.8339 63.8756 39.4347 63.8756C36.1096 63.8756 32.7867 63.8756 29.4638 63.8756C27.7026 63.8756 26.8545 62.9274 26.9644 61.137C27.3862 54.3055 32.6992 48.9805 39.345 48.9413C46.3946 48.8975 51.3598 54.4554 51.8489 60.3111C51.8714 60.5764 51.9387 60.8394 51.9723 61.107C52.1743 62.759 51.2588 63.8641 49.6299 63.8756Z" fill="white"/>
<path d="M46.4641 38.5082C46.4641 42.585 43.415 45.7043 39.4482 45.6997C38.5235 45.7046 37.607 45.5216 36.7512 45.1613C35.8955 44.801 35.1174 44.2705 34.4615 43.6001C33.8057 42.9298 33.2851 42.1329 32.9295 41.2551C32.574 40.3774 32.3905 39.436 32.3896 38.4852C32.4021 36.5635 33.1553 34.7255 34.4841 33.3742C35.8128 32.023 37.6086 31.2689 39.4773 31.2775C43.6079 31.2568 46.6885 34.909 46.4641 38.5082Z" fill="white"/>
</svg>
