<svg width="78" height="47" viewBox="0 0 78 47" fill="none" xmlns="http://www.w3.org/2000/svg">
<path d="M66.7937 12.3091C61.5802 11.3017 56.2992 11.8359 51.6931 13.9417C52.2528 16.0186 52.5487 18.1732 52.5487 20.3754C52.5487 28.0581 49.0088 35.1867 42.7568 40.3159C49.4377 40.7171 55.9523 38.5925 60.7313 33.8146C66.3492 28.1966 68.3154 20.1747 66.7937 12.3102V12.3091Z" fill="white"/>
<path d="M68.6172 25.7461C67.4136 29.4711 65.3854 32.857 62.5703 35.6698C57.8556 40.3834 51.3842 42.9946 44.3465 42.9946C44.0339 42.9946 43.7192 42.9846 43.4033 42.9702C48.5425 46.171 54.5961 47.4577 60.6097 46.1045C68.3623 44.3611 74.3127 38.6334 77.2331 31.1746C74.684 28.7773 71.7548 26.9264 68.6183 25.7461H68.6172Z" fill="white"/>
<path d="M33.6531 42.9946C26.6154 42.9946 20.1429 40.3823 15.4282 35.6687C12.6142 32.8547 10.5849 29.47 9.3813 25.7461C6.24481 26.9264 3.31556 28.7773 0.767578 31.1746C3.68795 38.6323 9.63732 44.3611 17.391 46.1045C23.4046 47.4577 29.4582 46.1721 34.5963 42.9702C34.2804 42.9835 33.9668 42.9935 33.6542 42.9935L33.6531 42.9946Z" fill="white"/>
<path d="M25.509 20.374C25.509 18.1806 25.8005 16.0339 26.3569 13.9647C21.7375 11.84 16.4376 11.2981 11.203 12.3089C9.68246 20.1734 11.6475 28.1941 17.2677 33.8121C22.06 38.6033 28.5978 40.729 35.2975 40.3101C29.0489 35.182 25.5101 28.0556 25.5101 20.374H25.509Z" fill="white"/>
<path d="M28.1079 20.3756C28.1079 28.321 32.3915 35.382 39.028 39.8684C45.6645 35.382 49.9481 28.321 49.9481 20.3756C49.9481 12.4302 45.6645 5.36811 39.028 0.882812C32.3915 5.36922 28.1079 12.4291 28.1079 20.3756Z" fill="white"/>
</svg>
