<svg width="49" height="50" viewBox="0 0 49 50" fill="none" xmlns="http://www.w3.org/2000/svg">
<path d="M24.5179 0.882996C11.0134 0.830939 0 11.8724 0 25.3802C0 38.8881 11.0026 49.881 24.5018 49.8828C37.9902 49.8397 48.9839 39.1555 49 25.4035C49.0161 11.6516 38.0117 0.935053 24.5179 0.882996ZM7.00997 37.1433C2.28535 31.0221 1.30464 19.706 8.44167 11.5385C16.1997 2.67806 29.2944 1.62975 38.1191 9.07746C47.1191 16.6742 47.7669 29.1301 42.0831 37.1971C32.3475 27.4625 16.6578 27.4912 7.00639 37.1451L7.00997 37.1433Z" fill="white"/>
<path d="M34.3161 17.2737C34.2893 22.7738 30.0496 27.0281 24.5054 27.0029C18.8662 26.976 14.7412 22.6948 14.7197 17.2432C14.6982 11.6031 19.115 7.48344 24.534 7.40984C29.9941 7.51216 34.3447 11.6534 34.3161 17.2737Z" fill="white"/>
</svg>
